<?xml version="1.0" encoding="utf-8"?>
<!-- Generator: Adobe Illustrator 16.0.0, SVG Export Plug-In . SVG Version: 6.00 Build 0)  -->
<!DOCTYPE svg PUBLIC "-//W3C//DTD SVG 1.1//EN" "http://www.w3.org/Graphics/SVG/1.1/DTD/svg11.dtd">
<svg version="1.1" id="Capa_1" xmlns="http://www.w3.org/2000/svg" xmlns:xlink="http://www.w3.org/1999/xlink" x="0px" y="0px"
	 width="425.197px" height="425.197px" viewBox="0 0 425.197 425.197" enable-background="new 0 0 425.197 425.197"
	 xml:space="preserve">
<g>
	<g>
		<path fill="#B8A880" d="M260.384,408.541c0,0,0.023-34.938,0.023-37.923v-52.563c0-16.107-4.317-27.901-12.95-35.373
			c9.467-0.998,17.977-2.496,25.534-4.492c7.556-1.993,15.364-5.23,23.422-9.716c8.053-4.481,14.78-10.003,20.183-16.565
			c5.396-6.565,9.796-15.277,13.198-26.159c3.397-10.882,5.107-23.375,5.107-37.492c0-20.096-6.565-37.205-19.687-51.323
			c6.147-15.111,5.483-32.053-1.989-50.82c-4.652-1.496-11.383-0.583-20.187,2.737c-8.797,3.322-16.441,6.977-22.917,10.964
			l-9.468,5.978c-15.45-4.318-31.396-6.477-47.836-6.477c-16.441,0-32.385,2.159-47.833,6.477
			c-2.659-1.825-6.187-4.073-10.591-6.728c-4.401-2.653-11.333-5.855-20.802-9.594c-9.466-3.734-16.607-4.858-21.425-3.362
			c-7.309,18.768-7.889,35.708-1.742,50.82c-13.121,14.119-19.683,31.225-19.683,51.324c0,14.117,1.703,26.571,5.105,37.369
			c3.403,10.794,7.765,19.517,13.079,26.159c5.312,6.641,11.998,12.207,20.058,16.688c8.054,4.489,15.86,7.727,23.416,9.723
			c7.56,1.99,16.068,3.488,25.535,4.483c-6.64,5.979-10.71,14.529-12.205,25.664c-3.489,1.659-7.228,2.907-11.211,3.738
			c-3.987,0.825-8.721,1.241-14.199,1.241c-5.481,0-10.921-1.783-16.317-5.354c-5.401-3.569-10.006-8.762-13.827-15.572
			c-3.156-5.312-7.183-9.631-12.083-12.951c-4.901-3.324-9.011-5.312-12.333-5.979l-4.98-0.745c-3.489,0-5.896,0.364-7.226,1.114
			c-1.331,0.748-1.744,1.705-1.245,2.868c0.497,1.163,1.244,2.326,2.242,3.489c0.997,1.16,2.075,2.161,3.238,2.991l1.743,1.248
			c3.653,1.661,7.266,4.814,10.838,9.469c3.572,4.646,6.185,8.887,7.847,12.704l2.491,5.731c2.161,6.309,5.812,11.416,10.96,15.319
			c5.149,3.902,10.713,6.395,16.694,7.469c5.978,1.083,11.751,1.666,17.312,1.744c5.564,0.081,10.173-0.203,13.827-0.871l5.73-0.991
			c0,6.307,0.04,13.696,0.126,22.169c0.084,8.472,0.126,12.953,0.126,13.452c0,2.985-0.213,37.916-0.213,37.916s0,0,47.552,0
			C260.384,408.541,260.384,408.541,260.384,408.541z"/>
	</g>
	<path fill="#B8A880" d="M425.197,212.597C425.197,95.184,330.01,0,212.597,0C95.184,0,0,95.184,0,212.597
		s95.186,212.6,212.598,212.6S425.197,330.01,425.197,212.597z M19.327,212.597c0-106.743,86.526-193.271,193.271-193.271
		c106.743,0,193.271,86.527,193.271,193.271s-86.528,193.271-193.271,193.271C105.853,405.869,19.327,319.341,19.327,212.597z"/>
</g>
</svg>
