<?xml version="1.0" encoding="utf-8"?>
<!-- Generator: Adobe Illustrator 16.0.0, SVG Export Plug-In . SVG Version: 6.00 Build 0)  -->
<!DOCTYPE svg PUBLIC "-//W3C//DTD SVG 1.1//EN" "http://www.w3.org/Graphics/SVG/1.1/DTD/svg11.dtd">
<svg version="1.1" id="Capa_1" xmlns="http://www.w3.org/2000/svg" xmlns:xlink="http://www.w3.org/1999/xlink" x="0px" y="0px"
	 width="425.197px" height="425.197px" viewBox="0 0 425.197 425.197" enable-background="new 0 0 425.197 425.197"
	 xml:space="preserve">
<g>
	<g>
		<path fill="#B8A880" d="M188.27,204.519c0,0,23.876-1.782,23.876-29.772c0-28.017-19.536-41.683-44.291-41.683H122.31h-1.338
			H86.425v156.508h34.548h1.338h45.545c0,0,49.719,1.557,49.719-46.214C217.574,243.367,219.742,204.511,188.27,204.519z
			 M122.286,195.798v-34.925h0.017h39.683h5.879c0,0,11.073,0,11.073,16.273c0,16.283-6.522,18.65-13.898,18.65L122.286,195.798
			L122.286,195.798z M165.555,261.757c-1.204,0.033-2.216,0-2.902,0h-40.344v-41.841h45.545c0,0,16.509-0.209,16.509,21.511
			C184.364,259.742,172.038,261.59,165.555,261.757z"/>
		<path fill="#B8A880" d="M283.911,172.874c-60.189,0-60.132,60.122-60.132,60.122s-4.114,59.82,60.132,59.82
			c0,0,53.557,3.062,53.557-41.613h-27.564c0,0,0.896,16.835-25.104,16.835c0,0-27.549,1.848-27.549-27.247h81.122
			C338.346,240.799,347.245,172.874,283.911,172.874z M256.956,219.883c0,0,3.388-24.085,27.549-24.085
			c24.169,0,23.852,24.119,23.852,24.085H256.956z"/>
		<rect x="250.216" y="142.281" fill="#B8A880" width="64.555" height="19.277"/>
	</g>
	<path fill="#B8A880" d="M425.197,212.598C425.197,95.188,330.01,0,212.598,0C95.188,0,0,95.188,0,212.598
		s95.188,212.599,212.599,212.599S425.197,330.009,425.197,212.598z M19.327,212.598c0-106.738,86.532-193.271,193.271-193.271
		c106.747,0,193.271,86.532,193.271,193.271c0,106.747-86.533,193.271-193.271,193.271S19.327,319.345,19.327,212.598z"/>
</g>
</svg>
