<?xml version="1.0" encoding="utf-8"?>
<!-- Generator: Adobe Illustrator 16.0.0, SVG Export Plug-In . SVG Version: 6.00 Build 0)  -->
<!DOCTYPE svg PUBLIC "-//W3C//DTD SVG 1.1//EN" "http://www.w3.org/Graphics/SVG/1.1/DTD/svg11.dtd">
<svg version="1.1" id="Capa_1" xmlns="http://www.w3.org/2000/svg" xmlns:xlink="http://www.w3.org/1999/xlink" x="0px" y="0px"
	 width="425.197px" height="425.197px" viewBox="0 0 425.197 425.197" enable-background="new 0 0 425.197 425.197"
	 xml:space="preserve">
<g>
	<g>
		<path fill="#B8A880" d="M425.198,212.598c0-117.413-95.188-212.599-212.6-212.599C95.185-0.001-0.001,95.185-0.001,212.598
			c0,117.413,95.186,212.6,212.599,212.6C330.01,425.198,425.198,330.01,425.198,212.598z M19.327,212.598
			c0-106.744,86.526-193.271,193.271-193.271c106.743,0,193.272,86.526,193.272,193.271c0,106.743-86.529,193.272-193.272,193.272
			C105.854,405.87,19.327,319.341,19.327,212.598z"/>
		<path fill="#B8A880" d="M220.755,335.307V212.598h40.488l6.396-40.664h-46.887v-20.39c0-10.611,3.48-20.738,18.709-20.738h30.439
			V90.219h-43.213c-36.335,0-46.25,23.926-46.25,57.093v24.604h-24.932v40.682h24.932v122.709H220.755L220.755,335.307z"/>
	</g>
</g>
</svg>
