<?xml version="1.0" encoding="utf-8"?>
<!-- Generator: Adobe Illustrator 16.0.0, SVG Export Plug-In . SVG Version: 6.00 Build 0)  -->
<!DOCTYPE svg PUBLIC "-//W3C//DTD SVG 1.1//EN" "http://www.w3.org/Graphics/SVG/1.1/DTD/svg11.dtd">
<svg version="1.1" id="圖層_1" xmlns="http://www.w3.org/2000/svg" xmlns:xlink="http://www.w3.org/1999/xlink" x="0px" y="0px"
	 width="141.732px" height="141.732px" viewBox="0 0 141.732 141.732" enable-background="new 0 0 141.732 141.732"
	 xml:space="preserve">
<ellipse fill="#ABE1C8" cx="70.866" cy="70.865" rx="62.216" ry="63.12"/>
<path fill="#FFFFFF" d="M69.824,140.366c0,0,0,0,0-0.011l0,0c-0.59,0-1.062-0.501-1.052-1.1l0,0c0-0.6,0.494-1.078,1.084-1.067
	v-0.011c0.59,0.011,1.062,0.512,1.062,1.11l0,0c-0.011,0.6-0.494,1.078-1.084,1.078l0,0H69.824z M74.172,140.29
	c-0.59,0.021-1.095-0.436-1.127-1.034l0,0c-0.021-0.61,0.429-1.111,1.021-1.144l0,0c0.59-0.032,1.094,0.436,1.127,1.034l0,0
	C75.213,139.745,74.762,140.258,74.172,140.29L74.172,140.29L74.172,140.29z M65.489,140.16c-0.591-0.044-1.042-0.578-0.988-1.166
	l0,0c0.043-0.61,0.559-1.056,1.149-1.001l0,0c0.59,0.043,1.03,0.565,0.987,1.164l0,0c-0.043,0.566-0.515,1.003-1.073,1.003l0,0
	C65.542,140.16,65.51,140.16,65.489,140.16z M77.316,138.983c-0.063-0.6,0.354-1.144,0.944-1.209l0,0
	c0.592-0.064,1.128,0.359,1.192,0.958l0,0c0.063,0.599-0.365,1.144-0.955,1.21l0,0c-0.032,0-0.075,0.01-0.118,0.01l0,0
	C77.843,139.952,77.37,139.539,77.316,138.983z M61.163,139.68c-0.58-0.088-0.987-0.632-0.912-1.23l0,0
	c0.086-0.599,0.633-1.013,1.213-0.927l0,0c0.59,0.088,0.998,0.632,0.912,1.231l0,0c-0.075,0.545-0.537,0.937-1.062,0.937l0,0
	C61.27,139.691,61.217,139.691,61.163,139.68z M81.556,138.427c-0.097-0.588,0.29-1.154,0.869-1.252v-0.011
	c0.591-0.099,1.148,0.294,1.245,0.893l0,0c0.107,0.588-0.279,1.154-0.869,1.253l0,0c-0.065,0.011-0.129,0.021-0.183,0.021l0,0
	C82.103,139.331,81.653,138.962,81.556,138.427z M56.881,138.918c-0.58-0.119-0.945-0.696-0.826-1.285l0,0
	c0.118-0.588,0.687-0.969,1.266-0.839l0,0c0.58,0.12,0.956,0.698,0.837,1.286l0,0c-0.107,0.512-0.558,0.86-1.052,0.86l0,0
	C57.031,138.94,56.956,138.94,56.881,138.918z M85.763,137.611c-0.149-0.589,0.204-1.177,0.784-1.318l0,0
	c0.58-0.141,1.159,0.219,1.299,0.807l0,0c0.14,0.588-0.215,1.176-0.795,1.317l0,0c-0.075,0.022-0.161,0.033-0.247,0.033l0,0
	C86.31,138.45,85.882,138.112,85.763,137.611z M52.662,137.894c-0.568-0.163-0.913-0.762-0.751-1.34l0,0
	c0.15-0.577,0.741-0.925,1.32-0.762l0,0c0.569,0.152,0.902,0.751,0.751,1.34l0,0c-0.129,0.479-0.569,0.794-1.042,0.794l0,0
	C52.856,137.927,52.759,137.916,52.662,137.894z M89.896,136.522c-0.172-0.577,0.14-1.188,0.708-1.361l0,0
	c0.569-0.186,1.171,0.143,1.342,0.719l0,0c0.182,0.566-0.14,1.176-0.697,1.361l0,0l0,0l0,0c-0.108,0.032-0.215,0.043-0.322,0.043
	l0,0C90.465,137.284,90.047,136.991,89.896,136.522z M48.509,136.588c-0.558-0.195-0.858-0.816-0.666-1.384l0,0
	c0.193-0.565,0.805-0.87,1.363-0.675l0,0c0.559,0.196,0.859,0.816,0.666,1.384l0,0c-0.15,0.446-0.569,0.74-1.02,0.74l0,0
	C48.745,136.653,48.626,136.632,48.509,136.588z M93.964,135.161c-0.214-0.556,0.064-1.187,0.622-1.405l0,0
	c0.549-0.206,1.171,0.066,1.385,0.632l0,0c0.205,0.557-0.063,1.188-0.622,1.405l0,0l0,0l0,0c-0.128,0.055-0.257,0.076-0.376,0.076
	l0,0C94.533,135.869,94.125,135.596,93.964,135.161z M44.441,135.009c0,0,0,0,0,0.011l0,0c-0.547-0.239-0.805-0.871-0.58-1.426l0,0
	c0.236-0.556,0.859-0.817,1.406-0.588l0,0c0.548,0.229,0.805,0.87,0.58,1.426l0,0c-0.172,0.413-0.568,0.664-0.987,0.664l0,0
	C44.72,135.095,44.58,135.073,44.441,135.009z M97.925,133.55c-0.246-0.544-0.011-1.187,0.536-1.438l0,0
	c0.537-0.25,1.17-0.011,1.418,0.533l0,0c0.246,0.545,0.01,1.198-0.526,1.449l0,0c-0.15,0.064-0.301,0.098-0.451,0.098l0,0
	C98.494,134.192,98.107,133.953,97.925,133.55z M40.48,133.179L40.48,133.179L40.48,133.179c-0.526-0.262-0.751-0.914-0.483-1.459
	l0,0c0.257-0.534,0.901-0.752,1.438-0.49l0,0c0.526,0.272,0.751,0.925,0.483,1.459l0,0c-0.183,0.381-0.569,0.609-0.966,0.609l0,0
	C40.791,133.299,40.631,133.255,40.48,133.179z M101.788,131.687c-0.278-0.533-0.085-1.198,0.43-1.48l0,0
	c0.526-0.283,1.181-0.088,1.46,0.446l0,0c0.279,0.533,0.086,1.187-0.439,1.47l0,0l0,0l0,0c-0.162,0.087-0.334,0.131-0.505,0.131l0,0
	C102.346,132.254,101.982,132.047,101.788,131.687z M36.649,131.099c-0.516-0.305-0.688-0.969-0.397-1.492l0,0
	c0.3-0.511,0.956-0.696,1.471-0.392l0,0c0.515,0.294,0.687,0.97,0.386,1.48l0,0c-0.193,0.35-0.558,0.545-0.923,0.545l0,0
	C37.003,131.241,36.82,131.197,36.649,131.099z M105.524,129.575c-0.322-0.512-0.162-1.188,0.344-1.503l0,0
	c0.493-0.315,1.159-0.163,1.47,0.349l0,0c0.311,0.512,0.161,1.187-0.344,1.503l0,0c-0.172,0.108-0.364,0.164-0.559,0.164l0,0
	C106.071,130.088,105.717,129.901,105.524,129.575z M32.956,128.769c-0.494-0.327-0.634-1.013-0.301-1.503l0,0
	c0.322-0.501,0.987-0.643,1.481-0.305l0,0c0.494,0.327,0.634,1.002,0.301,1.503l0,0c-0.204,0.315-0.547,0.49-0.891,0.49l0,0
	C33.343,128.955,33.138,128.899,32.956,128.769z M109.108,127.222c-0.344-0.489-0.225-1.175,0.258-1.523v0.011
	c0.472-0.36,1.149-0.24,1.492,0.25l0,0c0.344,0.489,0.236,1.165-0.247,1.514l0,0c-0.193,0.142-0.407,0.207-0.622,0.207l0,0
	C109.656,127.68,109.323,127.517,109.108,127.222z M29.404,126.21c-0.472-0.359-0.558-1.045-0.193-1.523l0,0
	c0.354-0.479,1.03-0.566,1.502-0.207l0,0c0.472,0.37,0.558,1.045,0.204,1.524l0,0c-0.214,0.283-0.537,0.435-0.858,0.435l0,0
	C29.833,126.438,29.607,126.362,29.404,126.21z M112.553,124.642c-0.375-0.469-0.311-1.154,0.151-1.524h0.011
	c0.45-0.381,1.126-0.316,1.502,0.152l0,0c0.376,0.469,0.311,1.154-0.15,1.535l0,0l0,0l0,0c-0.204,0.164-0.44,0.239-0.676,0.239l0,0
	C113.08,125.045,112.768,124.915,112.553,124.642z M26.033,123.433L26.033,123.433L26.033,123.433
	c-0.451-0.393-0.494-1.078-0.107-1.535l0,0c0.387-0.457,1.063-0.501,1.514-0.108l0,0c0.451,0.391,0.494,1.077,0.107,1.535l0,0
	c-0.215,0.25-0.515,0.37-0.816,0.37l0,0C26.484,123.695,26.237,123.608,26.033,123.433z M115.827,121.854
	c-0.396-0.446-0.375-1.133,0.065-1.535l0,0c0.429-0.414,1.116-0.381,1.514,0.054l0,0c0.397,0.447,0.375,1.133-0.065,1.548l0,0
	c0,0,0,0,0-0.012l0,0c-0.203,0.196-0.461,0.294-0.719,0.294l0,0C116.333,122.203,116.042,122.083,115.827,121.854z M22.835,120.45
	c-0.419-0.425-0.429-1.122-0.011-1.547l0,0c0.418-0.424,1.095-0.436,1.524-0.01l0,0c0.418,0.424,0.429,1.109,0.01,1.535l0,0
	c-0.214,0.217-0.494,0.326-0.772,0.326l0,0C23.318,120.755,23.05,120.657,22.835,120.45z M118.929,118.86
	c-0.43-0.414-0.45-1.11-0.043-1.536l0,0c0.408-0.446,1.095-0.457,1.524-0.043l0,0c0.429,0.413,0.44,1.111,0.032,1.546l0,0
	c-0.215,0.218-0.493,0.338-0.773,0.338l0,0C119.401,119.165,119.134,119.055,118.929,118.86z M19.84,117.26L19.84,117.26
	L19.84,117.26c-0.397-0.446-0.365-1.144,0.075-1.535l0,0c0.44-0.403,1.127-0.37,1.525,0.076l0,0
	c0.386,0.457,0.354,1.144-0.086,1.546l0,0c-0.204,0.186-0.462,0.272-0.719,0.272l0,0C20.344,117.619,20.044,117.499,19.84,117.26z
	 M121.828,115.67c-0.451-0.382-0.516-1.078-0.129-1.535l0,0c0.375-0.458,1.052-0.523,1.513-0.131l0,0
	c0.452,0.381,0.516,1.078,0.129,1.535l0,0c-0.214,0.25-0.515,0.381-0.826,0.381l0,0C122.279,115.92,122.031,115.844,121.828,115.67z
	 M17.039,113.884c-0.365-0.468-0.29-1.154,0.182-1.524l0,0c0.462-0.382,1.138-0.294,1.503,0.175l0,0
	c0.365,0.479,0.29,1.164-0.183,1.535l0,0c-0.193,0.152-0.429,0.229-0.654,0.229l0,0C17.564,114.298,17.253,114.155,17.039,113.884z
	 M124.532,112.305c-0.482-0.359-0.579-1.046-0.225-1.525l0,0c0.344-0.49,1.02-0.588,1.491-0.229l0,0
	c0.483,0.349,0.579,1.035,0.236,1.525l0,0l0,0l0,0c-0.215,0.282-0.536,0.435-0.869,0.435l0,0
	C124.94,112.511,124.725,112.447,124.532,112.305z M14.463,110.344L14.463,110.344L14.463,110.344
	c-0.344-0.501-0.225-1.175,0.269-1.514l0,0c0.483-0.349,1.159-0.218,1.492,0.272l0,0c0.333,0.49,0.215,1.176-0.269,1.514l0,0
	c-0.193,0.131-0.408,0.196-0.611,0.196l0,0C15,110.813,14.667,110.649,14.463,110.344z M127.011,108.766
	c-0.494-0.328-0.634-1.002-0.312-1.503l0,0c0.312-0.513,0.977-0.653,1.482-0.327l0,0c0.493,0.327,0.633,1.002,0.321,1.502l0,0
	c-0.204,0.328-0.559,0.501-0.913,0.501l0,0C127.398,108.939,127.195,108.885,127.011,108.766z M12.101,106.642
	c-0.3-0.522-0.139-1.187,0.365-1.502l0,0c0.515-0.306,1.17-0.142,1.471,0.381l0,0c0.311,0.511,0.15,1.176-0.365,1.491l0,0
	c-0.172,0.108-0.365,0.152-0.548,0.152l0,0C12.659,107.165,12.305,106.979,12.101,106.642z M129.276,105.074
	c-0.515-0.293-0.708-0.958-0.418-1.48l0,0c0.289-0.522,0.944-0.708,1.459-0.425l0,0c0.526,0.294,0.709,0.958,0.419,1.492l0,0
	c0,0,0,0,0-0.011l0,0c-0.193,0.359-0.559,0.565-0.944,0.565l0,0C129.62,105.216,129.437,105.172,129.276,105.074z M9.987,102.799
	c-0.279-0.534-0.075-1.197,0.451-1.47l0,0c0.526-0.284,1.18-0.065,1.449,0.468l0,0c0.269,0.534,0.064,1.187-0.461,1.459l0,0
	c-0.151,0.087-0.323,0.131-0.494,0.131l0,0C10.545,103.386,10.17,103.169,9.987,102.799z M131.304,101.253
	c-0.536-0.262-0.762-0.915-0.515-1.459h0.011c0.247-0.545,0.891-0.773,1.428-0.512l0,0c0.536,0.261,0.762,0.914,0.504,1.448l0,0
	c-0.183,0.392-0.568,0.62-0.976,0.62l0,0C131.605,101.35,131.456,101.317,131.304,101.253z M8.108,98.825
	c-0.236-0.557,0.011-1.199,0.548-1.438l0,0c0.547-0.239,1.181,0.011,1.417,0.556l0,0c0.247,0.555,0,1.197-0.547,1.438l0,0
	c-0.14,0.064-0.29,0.098-0.429,0.098l0,0C8.677,99.477,8.291,99.226,8.108,98.825z M133.087,97.3
	c-0.558-0.229-0.826-0.86-0.601-1.415l0,0c0.215-0.567,0.848-0.839,1.395-0.61l0,0c0.548,0.218,0.815,0.86,0.601,1.415l0,0l0,0l0,0
	c-0.171,0.426-0.578,0.688-0.997,0.688l0,0C133.344,97.377,133.216,97.344,133.087,97.3z M6.488,94.741
	c-0.204-0.566,0.086-1.198,0.644-1.394l0,0c0.558-0.208,1.169,0.075,1.374,0.642l0,0c0.204,0.566-0.086,1.188-0.644,1.395l0,0
	c-0.118,0.054-0.236,0.075-0.365,0.075l0,0C7.056,95.459,6.649,95.177,6.488,94.741z M134.61,93.237
	c-0.558-0.195-0.868-0.805-0.687-1.371l0,0c0.193-0.577,0.795-0.894,1.363-0.696l0,0c0.559,0.185,0.87,0.794,0.677,1.371l0,0
	c-0.141,0.458-0.569,0.752-1.02,0.752l0,0C134.836,93.293,134.729,93.27,134.61,93.237z M5.125,90.549
	c-0.161-0.578,0.161-1.177,0.73-1.351l0,0c0.569-0.174,1.159,0.163,1.331,0.741l0,0c0.172,0.576-0.161,1.176-0.729,1.35l0,0
	c-0.097,0.032-0.193,0.043-0.301,0.043l0,0C5.694,91.332,5.264,91.028,5.125,90.549z M135.878,89.09
	c-0.569-0.152-0.913-0.74-0.762-1.328l0,0c0.139-0.578,0.729-0.927,1.299-0.785l0,0c0.579,0.153,0.922,0.752,0.772,1.329l0,0l0,0
	l0,0c-0.119,0.489-0.56,0.816-1.03,0.816l0,0C136.06,89.122,135.974,89.11,135.878,89.09z M4.03,86.28
	c-0.129-0.578,0.236-1.166,0.816-1.297l0,0c0.569-0.129,1.148,0.23,1.277,0.817l0,0c0.128,0.588-0.226,1.176-0.805,1.307l0,0
	c-0.086,0.012-0.162,0.022-0.236,0.022l0,0C4.588,87.13,4.148,86.792,4.03,86.28z M136.886,84.875
	c-0.58-0.12-0.966-0.686-0.849-1.273l0,0c0.108-0.599,0.666-0.98,1.256-0.871l0,0c0.58,0.119,0.956,0.686,0.848,1.273l0,0l0,0l0,0
	c-0.096,0.522-0.547,0.882-1.051,0.882l0,0C137.025,84.885,136.951,84.885,136.886,84.875z M3.203,81.957L3.203,81.957L3.203,81.957
	c-0.086-0.599,0.312-1.154,0.891-1.252l0,0c0.59-0.088,1.138,0.315,1.234,0.903l0,0c0.086,0.599-0.312,1.155-0.891,1.253l0,0
	c-0.054,0.011-0.118,0.011-0.171,0.011l0,0C3.751,82.872,3.289,82.491,3.203,81.957z M137.627,80.596
	c-0.59-0.077-1.009-0.621-0.934-1.22l0,0c0.075-0.6,0.612-1.024,1.202-0.938l0,0c0.59,0.077,0.998,0.61,0.923,1.209l0,0
	c-0.064,0.556-0.525,0.958-1.062,0.958l0,0C137.713,80.606,137.67,80.606,137.627,80.596z M2.656,77.579
	c-0.064-0.599,0.375-1.12,0.966-1.187l0,0c0.59-0.054,1.116,0.382,1.169,0.98l0,0c0.054,0.599-0.375,1.133-0.966,1.187l0,0
	C3.794,78.57,3.761,78.57,3.719,78.57l0,0C3.172,78.57,2.71,78.146,2.656,77.579z M138.089,76.284
	c-0.591-0.044-1.041-0.557-0.998-1.155l0,0c0.032-0.599,0.547-1.056,1.137-1.022l0,0c0.591,0.044,1.042,0.555,0.999,1.153l0,0
	c-0.032,0.578-0.505,1.024-1.062,1.024l0,0C138.141,76.284,138.11,76.284,138.089,76.284z M2.377,73.179
	c-0.021-0.599,0.44-1.099,1.041-1.12l0,0c0.59-0.012,1.084,0.457,1.105,1.056l0,0c0.021,0.599-0.451,1.1-1.041,1.122l0,0
	c-0.011,0-0.021,0-0.032,0l0,0C2.871,74.237,2.399,73.768,2.377,73.179z M137.219,70.861c0-0.043,0-0.087,0.011-0.119l0,0
	c-0.011-0.043-0.011-0.077-0.011-0.12l0,0c0-0.599,0.472-1.089,1.073-1.089l0,0c0.59,0,1.073,0.479,1.073,1.089l0,0
	c0,0.033,0,0.077-0.012,0.12l0,0c0.012,0.032,0.012,0.076,0.012,0.119l0,0l0,0l0,0c0,0.599-0.483,1.089-1.073,1.089l0,0
	C137.702,71.95,137.219,71.46,137.219,70.861z M139.366,70.621L139.366,70.621L139.366,70.621L139.366,70.621L139.366,70.621
	L139.366,70.621z M3.407,69.903c-0.59-0.022-1.062-0.523-1.041-1.122l0,0c0.021-0.599,0.515-1.078,1.105-1.056l0,0
	c0.59,0.011,1.062,0.512,1.041,1.122l0,0c-0.021,0.588-0.494,1.056-1.073,1.056l0,0C3.429,69.903,3.418,69.903,3.407,69.903z
	 M137.068,66.353c-0.031-0.599,0.408-1.11,1.01-1.154l0,0c0.59-0.043,1.094,0.414,1.137,1.013l0,0
	c0.043,0.599-0.407,1.122-0.997,1.165l0,0c-0.033,0-0.054,0-0.076,0l0,0C137.584,67.376,137.111,66.93,137.068,66.353z
	 M3.601,65.569c-0.591-0.065-1.02-0.588-0.966-1.187l0,0c0.053-0.599,0.568-1.045,1.169-0.991l0,0
	c0.59,0.055,1.02,0.588,0.966,1.187l0,0c-0.053,0.566-0.515,0.991-1.073,0.991l0,0C3.665,65.569,3.633,65.569,3.601,65.569z
	 M136.661,62.106c-0.074-0.599,0.344-1.144,0.934-1.22l0,0c0.58-0.077,1.127,0.348,1.202,0.937l0,0l0,0l0,0
	c0.075,0.599-0.344,1.143-0.934,1.22l0,0c-0.043,0.011-0.086,0.011-0.14,0.011l0,0C137.197,63.053,136.736,62.651,136.661,62.106z
	 M4.062,61.246c-0.58-0.087-0.988-0.643-0.891-1.241l0,0c0.086-0.6,0.644-1.002,1.223-0.904l0,0c0.59,0.087,0.988,0.643,0.891,1.242
	l0,0c-0.075,0.533-0.537,0.915-1.052,0.915l0,0C4.18,61.257,4.126,61.257,4.062,61.246z M135.995,57.892
	c-0.117-0.588,0.258-1.166,0.838-1.274l0,0c0.59-0.12,1.148,0.261,1.266,0.86l0,0c0.108,0.588-0.268,1.154-0.848,1.274l0,0
	c-0.074,0.011-0.14,0.022-0.203,0.022l0,0C136.544,58.774,136.092,58.415,135.995,57.892z M4.792,56.977
	c-0.58-0.13-0.944-0.718-0.815-1.306l0,0c0.128-0.588,0.708-0.958,1.288-0.828l0,0c0.58,0.131,0.945,0.719,0.816,1.307l0,0
	c-0.119,0.501-0.558,0.849-1.052,0.849l0,0C4.953,56.999,4.878,56.988,4.792,56.977z M135.051,53.732L135.051,53.732
	c-0.149-0.588,0.194-1.176,0.762-1.328l0,0c0.58-0.153,1.17,0.195,1.321,0.773l0,0l0,0l0,0c0.149,0.577-0.194,1.176-0.773,1.328l0,0
	c-0.085,0.022-0.183,0.033-0.269,0.033l0,0C135.609,54.538,135.179,54.212,135.051,53.732z M5.79,52.752
	c-0.569-0.174-0.891-0.773-0.73-1.35l0,0l0,0l0,0c0.161-0.577,0.762-0.915,1.331-0.741l0,0c0.569,0.164,0.891,0.773,0.729,1.351l0,0
	c-0.139,0.479-0.568,0.784-1.03,0.784l0,0C5.994,52.796,5.887,52.785,5.79,52.752z M133.86,49.638
	c-0.194-0.577,0.117-1.187,0.676-1.383l0,0c0.558-0.185,1.17,0.12,1.362,0.697l0,0c0.183,0.566-0.129,1.187-0.687,1.372l0,0
	c-0.107,0.043-0.225,0.055-0.333,0.055l0,0C134.428,50.379,134,50.095,133.86,49.638z M7.056,48.603
	c-0.558-0.207-0.847-0.827-0.654-1.394l0,0l0,0l0,0c0.204-0.566,0.816-0.86,1.374-0.653l0,0c0.568,0.207,0.848,0.828,0.654,1.394
	l0,0c-0.161,0.446-0.58,0.718-1.009,0.718l0,0C7.293,48.669,7.175,48.647,7.056,48.603z M132.4,45.631
	c-0.215-0.555,0.043-1.198,0.59-1.416l0,0c0.559-0.229,1.182,0.044,1.406,0.599l0,0c0.214,0.556-0.043,1.188-0.602,1.416l0,0
	c-0.129,0.054-0.268,0.076-0.397,0.076l0,0C132.969,46.306,132.572,46.055,132.4,45.631z M8.57,44.542
	c-0.547-0.239-0.794-0.882-0.547-1.437l0,0c0,0,0,0-0.011,0l0,0c0.247-0.544,0.87-0.806,1.417-0.556l0,0
	c0.547,0.24,0.794,0.871,0.558,1.426l0,0c-0.182,0.414-0.568,0.653-0.987,0.653l0,0C8.86,44.629,8.71,44.607,8.57,44.542z
	 M130.704,41.732v-0.011c-0.258-0.534-0.032-1.187,0.504-1.448l0,0c0.537-0.261,1.17-0.032,1.428,0.512l0,0
	c0.258,0.544,0.032,1.187-0.504,1.448l0,0c-0.15,0.076-0.301,0.108-0.461,0.108l0,0C131.273,42.342,130.886,42.114,130.704,41.732z
	 M10.352,40.589c-0.537-0.283-0.74-0.937-0.472-1.47l0,0c0.279-0.533,0.923-0.74,1.449-0.468l0,0
	c0.526,0.272,0.73,0.925,0.462,1.459l0,0c-0.194,0.381-0.569,0.599-0.956,0.599l0,0C10.674,40.709,10.502,40.665,10.352,40.589z
	 M128.761,37.943c-0.29-0.522-0.107-1.187,0.408-1.48l0,0c0.515-0.294,1.17-0.109,1.459,0.414l0,0
	c0.29,0.522,0.107,1.188-0.408,1.481l0,0c-0.16,0.098-0.343,0.141-0.526,0.141l0,0C129.319,38.498,128.955,38.302,128.761,37.943z
	 M12.37,36.756c-0.515-0.316-0.676-0.98-0.376-1.492l0,0l0,0l0,0c0.301-0.523,0.966-0.686,1.471-0.381l0,0
	c0.515,0.305,0.676,0.98,0.375,1.491l0,0c-0.204,0.349-0.558,0.534-0.923,0.534l0,0C12.724,36.909,12.542,36.854,12.37,36.756z
	 M126.583,34.296c-0.322-0.512-0.172-1.188,0.321-1.514l0,0c0.494-0.327,1.159-0.185,1.481,0.327l0,0
	c0.321,0.501,0.183,1.176-0.312,1.503l0,0c-0.183,0.12-0.386,0.174-0.59,0.174l0,0C127.14,34.785,126.798,34.611,126.583,34.296z
	 M14.624,33.065c-0.494-0.349-0.623-1.023-0.279-1.513l0,0c0.333-0.501,0.999-0.621,1.492-0.284l0,0
	c0.483,0.338,0.611,1.013,0.279,1.514l0,0c-0.215,0.305-0.548,0.469-0.891,0.469l0,0C15.021,33.25,14.806,33.196,14.624,33.065z
	 M124.188,30.778v0.011c-0.354-0.49-0.257-1.165,0.226-1.524l0,0c0.473-0.359,1.148-0.262,1.503,0.218l0,0c0,0,0,0-0.011,0l0,0
	c0.354,0.49,0.257,1.165-0.215,1.525l0,0c-0.192,0.141-0.418,0.217-0.644,0.217l0,0C124.725,31.224,124.403,31.073,124.188,30.778z
	 M17.103,29.526c-0.472-0.381-0.548-1.067-0.183-1.535l0,0l0,0l0,0c0.365-0.468,1.031-0.556,1.503-0.185l0,0
	c0.472,0.37,0.547,1.056,0.182,1.535l0,0c-0.215,0.272-0.526,0.414-0.848,0.414l0,0C17.532,29.754,17.296,29.678,17.103,29.526z
	 M121.581,27.435h-0.011c-0.376-0.457-0.321-1.143,0.129-1.535l0,0c0.451-0.393,1.138-0.327,1.513,0.13l0,0
	c0.387,0.458,0.333,1.144-0.128,1.536l0,0c-0.194,0.174-0.44,0.261-0.688,0.261l0,0C122.096,27.827,121.785,27.697,121.581,27.435z
	 M19.797,26.15c-0.451-0.403-0.483-1.089-0.086-1.535l0,0c0.387-0.458,1.063-0.49,1.514-0.098l0,0
	c0.44,0.403,0.483,1.089,0.086,1.546l0,0c-0.215,0.239-0.505,0.359-0.805,0.359l0,0C20.248,26.423,20.001,26.335,19.797,26.15z
	 M118.758,24.266c-0.407-0.436-0.396-1.132,0.033-1.546l0,0c0.429-0.414,1.104-0.403,1.512,0.033l0,0
	c0.42,0.436,0.397,1.122-0.021,1.546l0,0c-0.215,0.196-0.483,0.294-0.752,0.294l0,0C119.252,24.593,118.972,24.484,118.758,24.266z
	 M22.695,22.948c-0.418-0.424-0.418-1.111,0-1.535l0,0c0.429-0.425,1.105-0.414,1.524,0.011l0,0
	c0.418,0.425,0.408,1.122-0.011,1.536l0,0c-0.204,0.218-0.483,0.316-0.751,0.316l0,0C23.178,23.276,22.899,23.167,22.695,22.948z
	 M115.753,21.272L115.753,21.272c-0.44-0.403-0.473-1.089-0.064-1.536l0,0c0.396-0.447,1.073-0.468,1.513-0.065l0,0
	c0.44,0.403,0.462,1.089,0.065,1.536l0,0c-0.215,0.239-0.505,0.359-0.795,0.359l0,0C116.214,21.566,115.956,21.468,115.753,21.272z
	 M25.786,19.954c-0.397-0.457-0.343-1.143,0.096-1.535l0,0l0,0l0,0c0.451-0.403,1.127-0.349,1.514,0.098l0,0
	c0.397,0.457,0.343,1.143-0.096,1.546l0,0c-0.204,0.174-0.462,0.261-0.709,0.261l0,0C26.291,20.324,25.99,20.194,25.786,19.954z
	 M112.564,18.485c-0.461-0.381-0.536-1.067-0.16-1.536l0,0c0.364-0.469,1.041-0.534,1.502-0.153l0,0
	c0.462,0.371,0.536,1.057,0.161,1.524l0,0c-0.215,0.262-0.526,0.403-0.837,0.403l0,0C112.994,18.724,112.759,18.648,112.564,18.485z
	 M29.049,17.156c-0.365-0.479-0.268-1.165,0.204-1.524l0,0c0.472-0.37,1.138-0.284,1.502,0.196l0,0
	c0.365,0.479,0.269,1.165-0.204,1.535l0,0c-0.193,0.142-0.419,0.218-0.645,0.218l0,0C29.575,17.58,29.264,17.439,29.049,17.156z
	 M109.205,15.904L109.205,15.904c-0.483-0.348-0.601-1.035-0.257-1.524l0,0c0.343-0.479,1.019-0.599,1.502-0.25l0,0
	c0.483,0.348,0.59,1.023,0.247,1.513l0,0c-0.204,0.305-0.536,0.458-0.869,0.458l0,0C109.613,16.1,109.399,16.034,109.205,15.904z
	 M32.484,14.575c-0.322-0.501-0.193-1.176,0.3-1.513l0,0c0.494-0.338,1.159-0.196,1.492,0.294l0,0
	c0.322,0.501,0.193,1.187-0.301,1.513l0,0c-0.183,0.131-0.386,0.185-0.601,0.185l0,0C33.031,15.054,32.698,14.891,32.484,14.575z
	 M105.696,13.541c-0.505-0.316-0.666-0.991-0.354-1.492l0,0c0.312-0.512,0.977-0.675,1.48-0.359l0,0
	c0.505,0.316,0.655,0.991,0.344,1.503l0,0c-0.204,0.327-0.548,0.512-0.912,0.512l0,0C106.06,13.704,105.868,13.65,105.696,13.541z
	 M36.079,12.212c-0.3-0.512-0.128-1.187,0.387-1.481l0,0l0,0l0,0c0.515-0.305,1.17-0.131,1.47,0.392l0,0
	c0.29,0.522,0.118,1.187-0.397,1.492l0,0c-0.161,0.098-0.354,0.142-0.537,0.142l0,0C36.637,12.757,36.273,12.561,36.079,12.212z
	 M102.036,11.417c-0.517-0.294-0.72-0.948-0.44-1.481l0,0c0.278-0.534,0.934-0.729,1.46-0.446l0,0
	c0.515,0.283,0.719,0.947,0.44,1.47l0,0c-0.194,0.37-0.569,0.577-0.956,0.577l0,0C102.368,11.537,102.197,11.493,102.036,11.417z
	 M39.804,10.099c-0.268-0.544-0.043-1.198,0.483-1.459l0,0c0.525-0.272,1.169-0.055,1.438,0.479l0,0
	c0.268,0.544,0.053,1.198-0.483,1.47l0,0c-0.15,0.076-0.311,0.108-0.472,0.108l0,0C40.373,10.698,39.997,10.481,39.804,10.099z
	 M98.257,9.523c-0.536-0.25-0.772-0.893-0.536-1.438l0,0c0.247-0.555,0.891-0.794,1.427-0.544l0,0
	c0.537,0.25,0.784,0.893,0.537,1.438l0,0c-0.183,0.402-0.58,0.642-0.987,0.642l0,0C98.557,9.62,98.408,9.588,98.257,9.523z
	 M43.657,8.226c-0.236-0.555,0.021-1.197,0.569-1.426l0,0c0.547-0.24,1.18,0.021,1.406,0.577l0,0
	c0.235,0.556-0.021,1.187-0.569,1.427l0,0c-0.14,0.054-0.279,0.087-0.419,0.087l0,0C44.226,8.891,43.829,8.64,43.657,8.226z
	 M94.372,7.878c-0.559-0.217-0.837-0.838-0.622-1.405l0,0c0.203-0.566,0.826-0.849,1.385-0.632l0,0
	c0.547,0.207,0.825,0.839,0.622,1.405l0,0c-0.161,0.436-0.569,0.697-1.009,0.697l0,0C94.619,7.944,94.49,7.922,94.372,7.878z
	 M47.617,6.604c-0.193-0.577,0.097-1.198,0.655-1.394l0,0c0.569-0.196,1.18,0.098,1.374,0.675l0,0
	c0.193,0.566-0.096,1.187-0.666,1.383l0,0c-0.118,0.043-0.236,0.065-0.354,0.065l0,0C48.187,7.334,47.768,7.051,47.617,6.604z
	 M90.379,6.495C89.81,6.31,89.5,5.712,89.67,5.134l0,0c0.173-0.577,0.774-0.904,1.342-0.729l0,0
	c0.569,0.185,0.881,0.795,0.709,1.361l0,0c-0.14,0.468-0.568,0.773-1.03,0.773l0,0C90.594,6.539,90.487,6.528,90.379,6.495z
	 M51.675,5.232c-0.161-0.577,0.182-1.175,0.751-1.339l0,0c0.569-0.163,1.159,0.186,1.32,0.763l0,0
	c0.161,0.577-0.171,1.176-0.751,1.339l0,0c-0.086,0.022-0.183,0.033-0.279,0.033l0,0C52.244,6.027,51.814,5.722,51.675,5.232z
	 M86.322,5.363L86.322,5.363c-0.579-0.131-0.934-0.718-0.794-1.306l0,0c0.139-0.588,0.708-0.948,1.288-0.806l0,0l0,0l0,0
	c0.579,0.142,0.934,0.729,0.793,1.307l0,0c-0.117,0.5-0.558,0.838-1.04,0.838l0,0C86.483,5.396,86.408,5.385,86.322,5.363z
	 M55.818,4.143c-0.118-0.599,0.247-1.175,0.826-1.295l0,0c0.58-0.12,1.148,0.25,1.277,0.838l0,0
	c0.118,0.588-0.257,1.166-0.837,1.295h0.01c-0.075,0.011-0.15,0.022-0.225,0.022l0,0C56.365,5.003,55.926,4.655,55.818,4.143z
	 M82.2,4.513c-0.59-0.109-0.976-0.675-0.88-1.263l0,0c0.097-0.588,0.654-0.991,1.245-0.893l0,0c0.58,0.109,0.966,0.675,0.869,1.263
	l0,0c-0.086,0.534-0.536,0.904-1.051,0.904l0,0C82.318,4.524,82.255,4.524,82.2,4.513z M60.015,3.305
	c-0.086-0.588,0.322-1.144,0.912-1.231l0,0C61.507,1.987,62.054,2.401,62.14,3l0,0c0.086,0.588-0.322,1.143-0.902,1.23l0,0
	c-0.054,0.011-0.107,0.011-0.161,0.011l0,0C60.552,4.241,60.09,3.849,60.015,3.305z M78.025,3.914L78.025,3.914
	c-0.58-0.065-1.009-0.599-0.944-1.197l0,0c0.053-0.599,0.59-1.035,1.18-0.958l0,0c0.592,0.055,1.01,0.599,0.944,1.198l0,0
	c-0.053,0.556-0.524,0.969-1.062,0.969l0,0C78.1,3.926,78.068,3.926,78.025,3.914z M64.254,2.76
	c-0.043-0.61,0.397-1.132,0.988-1.176l0,0c0.59-0.055,1.105,0.392,1.159,0.99l0,0c0.043,0.599-0.396,1.133-0.987,1.176l0,0
	c-0.032,0-0.053,0-0.086,0l0,0C64.769,3.751,64.308,3.326,64.254,2.76z M73.828,3.598c-0.59-0.032-1.051-0.544-1.02-1.143l0,0
	c0.021-0.599,0.526-1.056,1.116-1.035l0,0c0.591,0.022,1.053,0.534,1.03,1.133l0,0c-0.031,0.588-0.504,1.045-1.073,1.045l0,0
	C73.86,3.598,73.85,3.598,73.828,3.598z M68.526,2.467c-0.011-0.599,0.461-1.089,1.052-1.1l0,0c0.601-0.011,1.084,0.468,1.095,1.067
	l0,0c0.011,0.6-0.461,1.101-1.052,1.111l0,0c-0.011,0-0.011,0-0.021,0l0,0C69.02,3.544,68.537,3.065,68.526,2.467z"/>
</svg>
