<?xml version="1.0" encoding="utf-8"?>
<!-- Generator: Adobe Illustrator 16.0.0, SVG Export Plug-In . SVG Version: 6.00 Build 0)  -->
<!DOCTYPE svg PUBLIC "-//W3C//DTD SVG 1.1//EN" "http://www.w3.org/Graphics/SVG/1.1/DTD/svg11.dtd">
<svg version="1.1" id="Capa_1" xmlns="http://www.w3.org/2000/svg" xmlns:xlink="http://www.w3.org/1999/xlink" x="0px" y="0px"
	 width="425.197px" height="425.197px" viewBox="93.401 93.401 425.197 425.197"
	 enable-background="new 93.401 93.401 425.197 425.197" xml:space="preserve">
<g>
	<g>
		<path fill="#FFFFFF" d="M518.599,306c0-117.413-95.187-212.599-212.599-212.599C188.587,93.401,93.401,188.587,93.401,306
			c0,117.412,95.186,212.599,212.599,212.599C423.412,518.599,518.599,423.412,518.599,306z M112.729,306
			c0-106.744,86.527-193.271,193.271-193.271c106.743,0,193.271,86.527,193.271,193.271c0,106.743-86.528,193.271-193.271,193.271
			C199.256,499.271,112.729,412.743,112.729,306z"/>
		<path fill="#FFFFFF" d="M314.156,428.708V306h40.489l6.397-40.664h-46.887v-20.39c0-10.611,3.479-20.738,18.708-20.738h30.44
			v-40.587H320.09c-36.335,0-46.25,23.926-46.25,57.093v24.604h-24.932V306h24.932v122.708H314.156L314.156,428.708z"/>
	</g>
</g>
</svg>
