<?xml version="1.0" encoding="utf-8"?>
<!-- Generator: Adobe Illustrator 16.0.0, SVG Export Plug-In . SVG Version: 6.00 Build 0)  -->
<!DOCTYPE svg PUBLIC "-//W3C//DTD SVG 1.1//EN" "http://www.w3.org/Graphics/SVG/1.1/DTD/svg11.dtd">
<svg version="1.1" id="Capa_1" xmlns="http://www.w3.org/2000/svg" xmlns:xlink="http://www.w3.org/1999/xlink" x="0px" y="0px"
	 width="425.197px" height="425.197px" viewBox="6.676 6.676 425.197 425.197" enable-background="new 6.676 6.676 425.197 425.197"
	 xml:space="preserve">
<g>
	<g>
		<path fill="#FFFFFF" d="M266.786,415.943c0,0,0.023-34.938,0.023-37.923v-52.563c0-16.108-4.317-27.902-12.95-35.373
			c9.467-0.998,17.977-2.496,25.534-4.492c7.556-1.994,15.365-5.231,23.422-9.716c8.053-4.482,14.78-10.003,20.183-16.566
			c5.396-6.565,9.796-15.277,13.198-26.159c3.397-10.882,5.107-23.375,5.107-37.492c0-20.096-6.565-37.205-19.686-51.323
			c6.147-15.112,5.483-32.053-1.989-50.821c-4.653-1.496-11.383-0.583-20.187,2.738c-8.797,3.322-16.441,6.976-22.917,10.964
			l-9.468,5.977c-15.45-4.318-31.396-6.476-47.836-6.476c-16.441,0-32.384,2.159-47.833,6.476c-2.659-1.825-6.186-4.073-10.59-6.727
			c-4.402-2.654-11.333-5.856-20.802-9.594c-9.466-3.735-16.608-4.859-21.425-3.362c-7.309,18.767-7.889,35.708-1.742,50.82
			c-13.121,14.119-19.683,31.224-19.683,51.324c0,14.117,1.703,26.571,5.106,37.369c3.403,10.794,7.764,19.517,13.079,26.159
			c5.312,6.641,11.998,12.207,20.057,16.689c8.054,4.489,15.861,7.726,23.416,9.722c7.56,1.991,16.069,3.489,25.536,4.484
			c-6.64,5.978-10.71,14.529-12.205,25.664c-3.49,1.659-7.228,2.907-11.211,3.738c-3.988,0.825-8.721,1.241-14.2,1.241
			c-5.481,0-10.921-1.783-16.317-5.354c-5.401-3.57-10.006-8.762-13.827-15.573c-3.156-5.312-7.183-9.63-12.083-12.951
			c-4.902-3.324-9.011-5.312-12.333-5.978l-4.981-0.745c-3.489,0-5.895,0.364-7.225,1.114c-1.331,0.748-1.744,1.705-1.245,2.868
			c0.497,1.163,1.244,2.326,2.242,3.489c0.997,1.161,2.075,2.162,3.238,2.992l1.743,1.248c3.654,1.661,7.266,4.814,10.838,9.468
			c3.572,4.646,6.185,8.887,7.847,12.704l2.491,5.732c2.161,6.308,5.813,11.416,10.96,15.319c5.149,3.902,10.713,6.395,16.694,7.469
			c5.978,1.083,11.751,1.666,17.313,1.744c5.564,0.081,10.173-0.203,13.827-0.871l5.73-0.991c0,6.306,0.041,13.696,0.126,22.169
			c0.084,8.471,0.126,12.953,0.126,13.452c0,2.985-0.212,37.916-0.212,37.916s0,0,47.551,0
			C266.786,415.943,266.786,415.943,266.786,415.943z"/>
	</g>
	<path fill="#FFFFFF" d="M431.599,220C431.599,102.587,336.412,7.402,219,7.402C101.587,7.402,6.402,102.587,6.402,220
		c0,117.413,95.186,212.599,212.598,212.599C336.412,432.599,431.599,337.413,431.599,220z M25.729,220
		c0-106.743,86.527-193.271,193.271-193.271c106.743,0,193.271,86.528,193.271,193.271S325.743,413.271,219,413.271
		C112.256,413.271,25.729,326.743,25.729,220z"/>
</g>
</svg>
