<?xml version="1.0" encoding="utf-8"?>
<!-- Generator: Adobe Illustrator 16.0.0, SVG Export Plug-In . SVG Version: 6.00 Build 0)  -->
<!DOCTYPE svg PUBLIC "-//W3C//DTD SVG 1.1//EN" "http://www.w3.org/Graphics/SVG/1.1/DTD/svg11.dtd">
<svg version="1.1" id="Capa_1" xmlns="http://www.w3.org/2000/svg" xmlns:xlink="http://www.w3.org/1999/xlink" x="0px" y="0px"
	 width="425.197px" height="425.197px" viewBox="-187.773 -187.773 425.197 425.197"
	 enable-background="new -187.773 -187.773 425.197 425.197" xml:space="preserve">
<g>
	<path fill="#FFFFFF" d="M0.498,16.747c0,0,23.876-1.782,23.876-29.773c0-28.016-19.536-41.682-44.291-41.682h-45.545H-66.8h-34.548
		V101.8H-66.8h1.338h45.545c0,0,49.719,1.556,49.719-46.214C29.802,55.594,31.969,16.739,0.498,16.747z M-65.487,8.025V-26.9h0.017
		h39.683h5.879c0,0,11.073,0,11.073,16.274c0,16.283-6.523,18.65-13.899,18.65H-65.487z M-22.217,73.984
		c-1.204,0.033-2.216,0-2.902,0h-40.344V32.143h45.545c0,0,16.509-0.209,16.509,21.511C-3.408,71.969-15.735,73.817-22.217,73.984z"
		/>
	<path fill="#FFFFFF" d="M96.138-14.899c-60.189,0-60.131,60.122-60.131,60.122s-4.115,59.821,60.131,59.821
		c0,0,53.557,3.061,53.557-41.614h-27.564c0,0,0.895,16.835-25.105,16.835c0,0-27.549,1.848-27.549-27.247h81.122
		C150.574,53.026,159.472-14.899,96.138-14.899z M69.183,32.11c0,0,3.388-24.085,27.549-24.085
		c24.169,0,23.852,24.119,23.852,24.085H69.183z"/>
	<rect x="62.443" y="-45.491" fill="#FFFFFF" width="64.555" height="19.277"/>
</g>
<path fill="#FFFFFF" d="M237.425,24.826c0-117.41-95.188-212.599-212.599-212.599c-117.41,0-212.599,95.189-212.599,212.599
	c0,117.41,95.189,212.599,212.599,212.599C142.236,237.425,237.425,142.236,237.425,24.826z M-168.446,24.826
	c0-106.738,86.533-193.271,193.271-193.271c106.747,0,193.271,86.533,193.271,193.271c0,106.747-86.533,193.271-193.271,193.271
	S-168.446,131.573-168.446,24.826z"/>
</svg>
