<?xml version="1.0" encoding="utf-8"?>
<!-- Generator: Adobe Illustrator 16.0.0, SVG Export Plug-In . SVG Version: 6.00 Build 0)  -->
<!DOCTYPE svg PUBLIC "-//W3C//DTD SVG 1.1//EN" "http://www.w3.org/Graphics/SVG/1.1/DTD/svg11.dtd">
<svg version="1.1" id="Capa_1" xmlns="http://www.w3.org/2000/svg" xmlns:xlink="http://www.w3.org/1999/xlink" x="0px" y="0px"
	 width="49.652px" height="49.652px" viewBox="0 0 49.652 49.652" enable-background="new 0 0 49.652 49.652" xml:space="preserve">
<g>
	<path fill="#ffffff" d="M21.985,23.883c0,0,2.788-0.208,2.788-3.477c0-3.271-2.281-4.867-5.172-4.867h-5.318h-0.156h-4.034v18.275
		h4.034h0.156h5.318c0,0,5.806,0.182,5.806-5.396C25.407,28.419,25.66,23.882,21.985,23.883z M14.28,22.864v-4.078h0.002h4.634
		h0.686c0,0,1.293,0,1.293,1.9c0,1.902-0.761,2.178-1.623,2.178H14.28z M19.333,30.566c-0.141,0.004-0.259,0-0.339,0h-4.711V25.68
		h5.318c0,0,1.928-0.024,1.928,2.512C21.529,30.331,20.09,30.547,19.333,30.566z"/>
	<path fill="#ffffff" d="M33.153,20.187c-7.028,0-7.021,7.021-7.021,7.021s-0.481,6.985,7.021,6.985c0,0,6.254,0.358,6.254-4.859
		h-3.219c0,0,0.105,1.966-2.931,1.966c0,0-3.217,0.215-3.217-3.182h9.472C39.51,28.119,40.549,20.187,33.153,20.187z M30.006,25.677
		c0,0,0.395-2.813,3.216-2.813c2.823,0,2.786,2.816,2.786,2.813H30.006z"/>
	<rect x="29.219" y="16.615" fill="#ffffff" width="7.538" height="2.251"/>
</g>
<path fill="#ffffff" d="M49.651,24.826c0-13.71-11.115-24.825-24.825-24.825c-13.71,0-24.825,11.115-24.825,24.825
	c0,13.71,11.115,24.825,24.825,24.825C38.536,49.651,49.651,38.536,49.651,24.826z M2.258,24.826
	c0-12.464,10.104-22.568,22.568-22.568c12.465,0,22.568,10.104,22.568,22.568c0,12.465-10.104,22.568-22.568,22.568
	C12.362,47.394,2.258,37.291,2.258,24.826z"/>
</svg>
