<?xml version="1.0" encoding="utf-8"?>
<!-- Generator: Adobe Illustrator 16.0.0, SVG Export Plug-In . SVG Version: 6.00 Build 0)  -->
<!DOCTYPE svg PUBLIC "-//W3C//DTD SVG 1.1//EN" "http://www.w3.org/Graphics/SVG/1.1/DTD/svg11.dtd">
<svg version="1.1" id="圖層_1" xmlns="http://www.w3.org/2000/svg" xmlns:xlink="http://www.w3.org/1999/xlink" x="0px" y="0px"
	 width="500px" height="268px" viewBox="0 0 500 268" enable-background="new 0 0 500 268" xml:space="preserve">
<g id="圖層_2" display="none">
	
		<rect x="-10" y="-33" display="inline" fill="#A63DD1" stroke="#BABABA" stroke-width="0.5" stroke-miterlimit="10" width="525.5" height="330.5"/>
</g>
<g id="圖層_1_1_">
	<linearGradient id="SVGID_1_" gradientUnits="userSpaceOnUse" x1="220.4744" y1="23.166" x2="220.4743" y2="226.5034">
		<stop  offset="0" style="stop-color:#F1F8FE"/>
		<stop  offset="0.6042" style="stop-color:#EFF7FE"/>
		<stop  offset="0.8216" style="stop-color:#E8F5FD"/>
		<stop  offset="0.9763" style="stop-color:#DDF1FB"/>
		<stop  offset="1" style="stop-color:#DAF0FB"/>
	</linearGradient>
	<path fill="url(#SVGID_1_)" d="M391.871,106.18c-8.235,0-15.912,2.342-22.471,6.337c-9.924-25.765-34.85-44.08-64.116-44.08
		c-12.557,0-24.29,3.42-34.424,9.299c-0.478-31.935-26.473-57.689-58.522-57.689c-28,0-51.374,19.659-57.163,45.916
		c-3.037-0.332-6.106-0.529-9.229-0.529c-30.084,0-56.401,15.861-71.248,39.623c-4.114-0.959-8.382-1.519-12.787-1.519
		c-30.991,0-56.118,25.127-56.118,56.118c0,30.99,25.127,56.117,56.118,56.117c9.166,0,17.79-2.244,25.429-6.14
		c15.142,14.748,35.796,23.873,58.605,23.873c19.339,0,37.132-6.551,51.321-17.539c12.374,8.146,27.164,12.923,43.085,12.923
		c21.967,0,41.797-9.052,56.047-23.6c2.909,0.389,5.863,0.654,8.886,0.654c22.358,0,42.167-10.721,54.725-27.244
		c7.915,8.624,19.239,14.056,31.862,14.056c23.904,0,43.286-19.383,43.286-43.284C435.157,125.562,415.777,106.18,391.871,106.18z"
		/>
</g>
<g id="圖層_3">
	<path fill="#DAF0FB" d="M299.044,186.266c-0.291,3-1.171,5.692-2.837,8.094c-0.527,0.762-0.499,1.035,0.416,1.57
		c3.252,1.896,6.939,1.963,10.454,2.697c4.619,0.965,9.331,1.23,14.041,0.977c3.394-0.184,6.671-1.139,9.921-2.035
		c6.768-1.872,13.136-4.674,19.075-8.452c3.81-2.427,7.295-5.259,10.829-8.054c1.695-1.344,3.806-2.262,5.693-3.424
		c0.565-0.349,1.131-0.697,1.881-1.158c-0.207,1.539-0.989,2.627-1.397,3.847c-0.251,0.756-0.567,1.489-0.866,2.229
		c-0.186,0.457-0.092,0.803,0.394,0.948c2.325,0.695,4.623,1.688,7.066,1.659c2.496-0.027,4.973-0.527,7.438-0.98
		c5.454-1.004,10.486-3.151,15.528-5.398c4.493-2.003,7.677-5.294,10.557-9.082c3.455-4.548,6.849-9.127,9.268-14.344
		c1.706-3.682,2.808-7.516,3.226-11.564c0.263-2.513,0.343-5.005-0.012-7.51c-0.047-0.35-0.015-0.725,0.054-1.07
		c0.056-0.279,0.275-0.529,0.562-0.562c0.344-0.041,0.238,0.332,0.357,0.505c1.052,1.541,2.253,2.978,3.019,4.716
		c1.308,2.977,2.188,6.052,2.483,9.296c0.616,6.792-0.824,13.277-2.84,19.696c-1.188,3.783-2.534,7.479-4.728,10.816
		c-1.978,3.01-4.188,5.807-6.932,8.176c-1.479,1.273-2.816,2.719-4.497,3.746c-6.036,3.692-12.229,6.979-19.337,8.217
		c-5.856,1.023-11.752,1.242-17.646,0.939c-4.452-0.228-8.807-1.283-13.071-2.627c-1.439-0.453-2.935-0.723-4.399-1.099
		c-1.354-0.351-2.188,0.687-3.09,1.284c-4.099,2.714-8.549,4.568-13.252,5.914c-3.604,1.031-7.264,1.77-10.959,2.338
		c-4.357,0.666-8.763,0.604-13.146,0.475c-5.745-0.169-11.314-1.271-16.521-3.825c-0.852-0.419-1.714-0.922-2.386-1.575
		c-0.728-0.707-1.17-0.498-1.594,0.18c-1.519,2.425-3.519,4.427-5.511,6.447c-3.604,3.658-8.03,6.021-12.619,8.125
		c-2.974,1.363-5.973,2.658-9.141,3.535c-3.618,1-7.28,1.736-11.038,1.779c-4.507,0.055-9.018,0.143-13.519-0.033
		c-3.327-0.13-6.644-0.621-9.957-1.019c-3.557-0.427-7.076-1.118-10.515-2.103c-3.794-1.086-7.542-2.315-11.184-3.891
		c-4.421-1.908-8.528-4.305-12.296-7.291c-0.497-0.395-0.76-0.288-1.173,0.174c-3.451,3.842-7.22,7.324-11.451,10.312
		c-6.351,4.484-13.375,7.352-20.896,9.207c-5.591,1.382-11.191,2.531-16.976,2.317c-3.334-0.12-6.647-0.526-9.938-1.155
		c-4.818-0.922-9.561-2.116-14.237-3.588c-4.241-1.332-8.296-3.058-12.144-5.312c-4.28-2.507-8.305-5.366-12.059-8.58
		c-2.026-1.734-3.946-3.629-5.628-5.727c-0.54-0.672-0.942-0.971-1.852-0.399c-4.708,2.951-9.951,4.315-15.396,5.118
		c-5.919,0.869-11.735,0.347-17.547-0.863c-6.021-1.255-11.847-3.105-17.587-5.295c-4-1.525-7.854-3.318-11.326-5.831
		c-4.01-2.901-6.929-6.785-9.441-10.992c-2.358-3.942-3.845-8.215-4.532-12.749c-0.16-1.058-0.271-2.128-0.355-3.201
		c-0.35-4.41,0.44-8.695,1.154-13.009c0.252-1.532,0.184-3.221,0.979-4.515c1.229-2.007,1.646-4.46,3.424-6.141
		c0.271-0.256,0.503-0.74,0.976-0.492c0.384,0.199,0.204,0.652,0.206,0.99c0.021,3.153-0.069,6.311,0.249,9.459
		c0.584,5.781,1.872,11.388,4.062,16.778c1.255,3.093,2.784,6.027,5.046,8.503c2.009,2.2,4.429,3.92,7.08,5.25
		c6.031,3.031,12.073,6.062,18.745,7.488c3.693,0.79,7.396,1.465,11.192,1.666c4.665,0.245,9.324,0.498,13.996,0.423
		c2.747-0.041,5.458-0.504,8.179-0.849c1.182-0.151,2.361-0.309,3.538-0.497c0.694-0.111,1.202,0.542,1.673,1.018
		c3.357,3.388,7.045,6.364,11.073,8.908c5.045,3.188,10.428,5.649,16.071,7.601c3.326,1.15,6.7,2.053,10.146,2.697
		c2.812,0.527,5.698,0.52,8.5,1.156c2.688,0.613,5.419,1.079,8.17,0.84c2.966-0.258,5.912-0.743,8.856-1.191
		c3.654-0.56,7.297-1.198,10.877-2.133c4.709-1.229,9.157-3.074,12.969-6.152c2.354-1.899,4.438-4.125,6.814-6.012
		c4.48-3.562,7.726-8.25,11.385-12.56c1.102-1.298,2.172-2.622,3.323-4.013c0.423,1.15-0.023,2.199-0.146,3.207
		c-0.365,2.996-0.764,5.996-1.515,8.93c-0.12,0.469-0.138,0.85,0.232,1.204c6.279,5.985,13.397,10.475,21.94,12.526
		c5.151,1.237,10.35,2.084,15.613,2.676c3.785,0.426,7.578,0.632,11.351,0.385c6.378-0.414,12.596-1.646,18.516-4.248
		c3.719-1.639,7.101-3.746,10.371-6.129c2.513-1.828,5.346-3.169,7.908-4.948c3.047-2.116,5.627-4.685,7.949-7.554
		c1.457-1.797,2.929-3.576,4.229-5.493C298.697,186.465,298.856,186.402,299.044,186.266z"/>
</g>
<g id="圖層_4">
	<g>
		<path fill="#DAF0FB" d="M83.354,150.59c0.615,1.441,0.415,2.65,0.559,3.791c0.377,2.996,0.765,5.99,1.74,8.846
			c0.608,1.777,1.94,3.205,2.996,4.754c1.886,2.763,4.075,5.275,6.546,7.539c4.569,4.181,9.685,7.426,15.657,9.232
			c6.932,2.096,13.896,4.059,21.001,5.473c2.333,0.465,4.705,0.746,7.088,0.877c0.658,0.035,1.311,0.176,2.082,0.283
			c-0.526,0.609-1.219,0.529-1.749,0.594c-5.419,0.658-10.865,0.949-16.317,0.726c-5.251-0.218-10.244-1.729-15.179-3.427
			c-3.275-1.129-6.376-2.651-9.257-4.547c-3.938-2.588-7.578-5.549-10.659-9.17c-1.36-1.6-2.554-3.264-3.375-5.188
			c-0.232-0.549-0.617-0.562-1.047-0.317c-1.054,0.596-2.206,0.555-3.333,0.465c-1.326-0.107-2.582,0.233-3.828,0.518
			c-1.816,0.416-3.616,0.223-5.37-0.082c-6.029-1.041-11.116-3.828-14.754-8.822c-2.184-3-3.405-6.445-3.327-10.229
			c0.025-1.289,0.275-2.574,0.905-3.732c0.281-0.518,0.619-1.088,1.329-0.967c0.702,0.117,0.705,0.816,0.772,1.314
			c0.42,3.11,1.299,6.045,3.084,8.666c3.34,4.903,7.76,8.055,13.81,8.682c1.704,0.176,3.386,0.59,5.067,0.943
			c1.671,0.354,2.983-0.736,4.489-1.045c0.34-0.07,0.261-0.427,0.229-0.703c-0.422-3.566-0.17-7.111,0.239-10.662
			C82.884,153.232,83.009,152.078,83.354,150.59z"/>
		<path fill="#DAF0FB" d="M316.254,162.188c0.255,0.656-0.187,1.107-0.387,1.586c-2.066,4.92-4.994,9.185-9.763,11.834
			c-3.274,1.818-6.868,2.281-10.589,1.882c-1.723-0.187-3.386-0.591-5.016-1.14c-0.657-0.219-0.979-0.176-1.146,0.607
			c-0.384,1.814-1.394,3.314-2.633,4.656c-1.082,1.168-1.434,2.768-2.495,3.975c-1.932,2.197-4.252,3.775-6.946,4.838
			c-2.532,0.998-5.169,1.42-7.888,1.633c-6.106,0.479-11.506-1.272-16.392-4.813c-0.787-0.57-1.445-1.328-2.114-2.047
			c-0.352-0.378-0.627-0.925-0.325-1.402c0.324-0.514,0.947-0.323,1.402-0.174c1.266,0.416,2.527,0.86,3.749,1.389
			c3.743,1.617,7.659,2.312,11.703,2.041c3.395-0.227,6.815-0.559,9.819-2.391c2.19-1.332,4.048-3.103,5.716-5.029
			c0.822-0.95,0.736-2.401,1.361-3.479c1.042-1.797,1.105-3.352-0.656-4.721c-0.17-0.133-0.238-0.399-0.342-0.613
			c-0.203-0.428-0.483-0.922-0.094-1.311c0.375-0.373,0.812,0.006,1.188,0.182c5.058,2.396,10.373,3.605,15.967,3.187
			c4.236-0.315,8.158-1.635,11.297-4.653c1.558-1.5,2.709-3.343,3.812-5.201C315.662,162.727,315.781,162.367,316.254,162.188z"/>
		<path fill="#DAF0FB" d="M245.767,97.593c0.036-1.263,0.657-2.252,1.512-3.067c2.817-2.688,6.028-4.573,10.05-4.761
			c6.552-0.306,12.489,1.28,17.415,5.787c2.796,2.559,4.166,5.896,4.758,9.589c0.406,2.528,0.247,5.068,0.235,7.606
			c-0.002,0.44-0.152,0.835-0.453,1.35c-0.654-1.058-0.598-2.223-0.913-3.261c-0.837-2.74-2.185-5.182-3.962-7.406
			c-0.929-1.161-1.802-2.371-2.788-3.479c-2.492-2.792-5.729-4.231-9.361-4.72c-2.59-0.348-5.174-0.761-7.813-0.779
			c-2.891-0.019-5.374,0.907-7.626,2.625C246.518,97.309,246.293,97.67,245.767,97.593z"/>
	</g>
</g>
<g id="圖層_5">
	<linearGradient id="SVGID_2_" gradientUnits="userSpaceOnUse" x1="384.8655" y1="146.499" x2="384.8655" y2="240.5085">
		<stop  offset="0" style="stop-color:#E6EDF3"/>
		<stop  offset="0.6096" style="stop-color:#E4ECF3"/>
		<stop  offset="0.829" style="stop-color:#DDEAF2"/>
		<stop  offset="0.985" style="stop-color:#D2E6F0"/>
		<stop  offset="1" style="stop-color:#D0E5F0"/>
	</linearGradient>
	<path fill="url(#SVGID_2_)" d="M275.675,220.4c1.425,12.123,12.414,20.793,24.537,19.367c6.4-0.752,11.816-4.186,15.323-9.033
		c7.35,7.632,18.04,11.892,29.372,10.557c4.187-0.5,8.096-1.746,11.646-3.537c3.895,6.827,11.594,11.035,19.891,10.059
		c7.899-0.934,14.122-6.342,16.601-13.361c8.899,8.316,21.255,12.831,34.311,11.288c11.579-1.358,21.503-7.216,28.291-15.603
		c4.104,1.516,8.624,2.144,13.266,1.59c15.712-1.851,26.947-16.092,25.099-31.805c-1.852-15.712-16.085-26.955-31.797-25.111
		c-2.238,0.27-4.372,0.806-6.401,1.537c-8.952-11.162-23.246-17.631-38.496-15.832c-1.581,0.188-3.118,0.471-4.641,0.82
		c-4.507-12.975-17.54-21.546-31.729-19.875c-16.257,1.918-27.909,16.533-26.238,32.76c-5.49-2.38-11.639-3.416-18.019-2.671
		c-14.83,1.753-26.38,12.526-29.871,26.187c-3.564-1.633-7.596-2.363-11.771-1.872C282.919,197.296,274.249,208.277,275.675,220.4z"
		/>
</g>
<g id="圖層_6">
	<g>
		<path fill="#D0E5F0" d="M426.215,226.997c3.859,0.021,7.398-1.101,10.946-2.281c3.198-1.063,5.153-3.171,6.015-6.37
			c0.133-0.496,0.106-1.189,0.779-1.188c0.643,0.002,0.821,0.703,0.827,1.179c0.021,1.556,0.695,1.203,1.673,0.771
			c2.418-1.068,4.773-2.184,6.324-4.467c1.271-1.867,1.628-4.002,1.851-6.18c0.027-0.261-0.104-0.575,0.36-0.838
			c0.693,1.619,0.595,3.257,0.499,4.921c-0.245,4.358-3.427,6.44-6.59,8.47c-1.583,1.016-3.277,1.9-5.161,2.317
			c-0.531,0.118-0.828,0.63-1.193,0.998c-2.161,2.18-4.899,2.965-7.839,3.336c-2.503,0.317-4.975,0.133-7.448-0.233
			C426.905,227.378,426.533,227.416,426.215,226.997z"/>
		<path fill="#D0E5F0" d="M349.273,216.744c-0.581,0.902-1.403,1.041-2.123,1.332c-4.69,1.896-8.846,0.627-11.648-3.633
			c-0.557-0.842-1.144-1.152-2.153-1.125c-2.001,0.054-3.993,0.154-5.965-0.604c-3.806-1.464-6.479-6.536-3.281-11.28
			c0.232-0.343,0.539-0.815,1.069-0.584c0.541,0.236,0.179,0.705,0.143,1.07c-0.149,1.52-0.562,3.062-0.155,4.561
			c0.912,3.356,2.641,4.259,6.14,4.484c0.645,0.042,1.293-0.007,1.938,0.012c0.547,0.018,0.938-0.027,1.239-0.656
			c0.398-0.825,0.928-0.764,1.346,0.123c0.768,1.627,1.838,3.016,3.096,4.285c1.565,1.58,3.641,1.731,5.654,2.072
			C346.08,217.059,347.593,217.166,349.273,216.744z"/>
		<path fill="#D0E5F0" d="M429.185,177.18c0.313,0.023,0.628,0.049,0.941,0.072c0.112,0.193,0.294,0.221,0.493,0.201
			c3.531,0.957,6.67,2.544,7.568,6.421c0.809,3.493-0.377,6.594-2.827,9.204c0.408-1.301,0.736-2.631,0.717-3.973
			c-0.04-2.735,0.294-5.623-2.264-7.629c-1.621-1.271-3.478-1.988-5.491-2.338c-1.685-0.295-3.354-0.395-4.991,0.258
			c-0.205,0.082-0.477,0.266-0.642-0.026c-0.156-0.277-0.025-0.558,0.178-0.772c0.838-0.893,1.853-1.398,3.099-1.393
			c0.24,0.002,0.482-0.023,0.725-0.038C427.522,177.172,428.354,177.176,429.185,177.18z"/>
		<path fill="#D0E5F0" d="M429.185,177.18c-0.831-0.004-1.662-0.008-2.494-0.013C427.525,176.52,428.356,176.499,429.185,177.18z"/>
		<path fill="#D0E5F0" d="M430.619,177.453c-0.199,0.02-0.381-0.008-0.493-0.201C430.48,176.852,430.545,177.165,430.619,177.453z"
			/>
	</g>
</g>
<g id="圖層_7">
	<path fill="#D0E5F0" d="M344.155,236.549c-0.622,0.014-1.248,0.026-1.875,0.04c-1.285-0.001-2.572-0.001-3.857-0.001
		c-0.626-0.013-1.253-0.027-1.878-0.039c-0.194-0.285-0.468-0.245-0.745-0.191c-0.387-0.019-0.771-0.035-1.157-0.056
		c-0.118-0.196-0.297-0.231-0.506-0.188c-1.168-0.271-2.335-0.541-3.503-0.812c-0.065-0.28-0.23-0.433-0.534-0.388
		c-0.694-0.268-1.394-0.529-2.088-0.792c-0.149-0.498-0.548-0.612-0.996-0.649c-3.463-1.853-6.744-3.975-9.692-6.58
		c-0.544-0.479-0.851-0.238-1.15,0.17c-1.593,2.146-3.666,3.75-5.986,4.955c-6.817,3.547-13.846,4.284-20.535,0.01
		c-7.162-4.575-9.411-11.875-6.136-19.953c0.841-2.072,1.401-2.774,2.52-3.245c-0.146,1.183-0.258,2.351-0.439,3.506
		c-0.515,3.247,0.285,6.286,1.49,9.233c0.646,1.576,2.062,2.506,3.494,3.271c3.46,1.85,6.975,3.674,10.915,4.176
		c6.247,0.795,10.799-0.248,14.583-6.209c0.394-0.615,0.649-0.82,1.356-0.289c2.188,1.637,4.598,2.935,6.965,4.293
		c0.2,0.689,0.87,0.789,1.382,0.984c6.726,2.531,13.578,4.279,20.847,3.018c1.959-0.34,3.98-0.377,5.854-1.153
		c1.905-0.5,3.845-0.88,5.679-1.621c0.594-0.24,0.925-0.151,1.374,0.399c1.524,1.869,3.394,3.293,5.771,3.975
		c2.312,0.663,4.509,1.686,6.866,2.248c4.016,0.96,7.701,0.041,11.407-1.479c3.929-1.611,6.906-4.229,9.218-7.712
		c0.167-0.254,0.334-0.538,0.799-0.632c-0.509,3.544,2.398,4.434,4.604,5.629c6.377,3.461,13.209,5.617,20.417,6.598
		c6.831,0.931,13.479,0.178,19.912-2.213c2.856-1.062,5.458-2.676,7.788-4.68c0.107-0.094,0.248-0.146,0.678-0.39
		c-1.371,2.214-2.532,4.19-4.356,5.579c-4.352,3.316-9.104,5.853-14.481,7.104c-5.6,1.303-11.068,0.793-16.377-1.311
		c-3.415-1.356-6.941-2.43-10.228-4.121c-3.289-1.694-6.454-3.54-8.919-6.379c-0.148-0.172-0.343-0.303-0.572-0.506
		c-0.905,1.75-1.385,3.651-2.682,5.08c-4.599,5.064-9.997,8.635-17.171,7.888c-5.021-0.524-9.412-2.628-12.621-6.748
		c-0.717-0.918-1.199-1.966-1.627-3.022c-0.343-0.845-0.692-1.049-1.439-0.482c-1.276,0.974-2.796,1.447-4.252,2.048
		c-0.678,0.125-1.342,0.292-1.926,0.687c-0.149,0.012-0.301,0.023-0.449,0.035c-0.278-0.041-0.559-0.081-0.738,0.215
		c-0.149,0.008-0.301,0.016-0.451,0.023c-0.274-0.042-0.552-0.083-0.737,0.201c-0.309,0.014-0.615,0.027-0.925,0.044
		c-0.276-0.048-0.553-0.089-0.741,0.194c-0.387,0.017-0.773,0.029-1.16,0.043C344.791,236.32,344.427,236.2,344.155,236.549z"/>
	<path fill="#D0E5F0" d="M480.104,211.523c0.483-1.209,1.008-2.402,1.441-3.629c1.648-4.646,3.162-9.322,2.523-14.408
		c1.375,1.324,1.934,2.971,2.354,4.724c1.031,4.289,1.26,8.565-0.079,12.824c-1.734,5.512-4.698,10.183-9.718,13.251
		c-2.023,1.236-4.328,1.949-6.646,2.527c-2.84,0.524-5.696,0.813-8.588,0.711c-0.222-0.008-0.447-0.015-0.67-0.02
		c-0.259-0.352-0.615-0.23-0.953-0.195c-1.328-0.101-2.652-0.222-3.896-0.752c0.013-0.141,0.021-0.279,0.032-0.416
		c0.451-0.01,0.9-0.019,1.354-0.026c0.317,0.288,0.628,0.308,0.923-0.032c0.386-0.061,0.771-0.12,1.157-0.182
		c0.17,0.209,0.322,0.186,0.461-0.037c0.223-0.014,0.444-0.027,0.667-0.04c0.271,0.04,0.543,0.084,0.719-0.206
		c0.145-0.01,0.29-0.02,0.436-0.028c0.204,0.043,0.381,0.003,0.489-0.194c0.146-0.011,0.291-0.022,0.438-0.033
		c5.841-1.411,10.965-4.024,14.633-8.959C478.31,214.882,479.591,213.426,480.104,211.523z"/>
	<path fill="#D0E5F0" d="M476.615,211.915c-0.513,1.901-1.794,3.358-2.925,4.879c-3.668,4.935-8.792,7.547-14.633,8.959
		c0.888-0.927,2.164-1.099,3.269-1.485c3.903-1.371,7.188-3.598,9.91-6.668c1.293-1.457,2.468-3.021,3.479-4.699
		C475.943,212.521,476.103,212.048,476.615,211.915z"/>
	<path fill="#D0E5F0" d="M457.904,227.915c2.893,0.104,5.748-0.187,8.588-0.711c-0.838,1.026-2.121,0.915-3.206,1.06
		c-1.569,0.209-3.188,0.059-4.788,0.064C458.195,228.33,457.984,228.223,457.904,227.915z"/>
	<path fill="#D0E5F0" d="M454.692,226.475c-0.295,0.34-0.604,0.32-0.923,0.031C454.066,226.172,454.375,226.177,454.692,226.475z"/>
	<path fill="#D0E5F0" d="M452.416,226.532c-0.012,0.138-0.021,0.276-0.031,0.417c-0.271-0.053-0.616,0.137-0.8-0.244
		C451.813,226.357,452.133,226.534,452.416,226.532z"/>
	<path fill="#D0E5F0" d="M456.281,227.7c0.338-0.035,0.694-0.155,0.953,0.196C456.841,228.205,456.504,228.227,456.281,227.7z"/>
	<path fill="#D0E5F0" d="M457.696,226.009c-0.176,0.29-0.448,0.246-0.719,0.206C457.116,225.791,457.342,225.672,457.696,226.009z"
		/>
	<path fill="#D0E5F0" d="M458.62,225.785c-0.108,0.197-0.284,0.238-0.488,0.195C458.219,225.727,458.297,225.449,458.62,225.785z"/>
	<path fill="#D0E5F0" d="M456.311,226.255c-0.138,0.224-0.291,0.247-0.461,0.037C455.984,226.042,456.138,226.02,456.311,226.255z"
		/>
</g>
</svg>
