<?xml version="1.0" encoding="utf-8"?>
<!-- Generator: Adobe Illustrator 16.0.0, SVG Export Plug-In . SVG Version: 6.00 Build 0)  -->
<!DOCTYPE svg PUBLIC "-//W3C//DTD SVG 1.1//EN" "http://www.w3.org/Graphics/SVG/1.1/DTD/svg11.dtd">
<svg version="1.1" id="圖層_1" xmlns="http://www.w3.org/2000/svg" xmlns:xlink="http://www.w3.org/1999/xlink" x="0px" y="0px"
	 width="181px" height="855.668px" viewBox="331.333 281.666 181 855.668" enable-background="new 331.333 281.666 181 855.668"
	 xml:space="preserve">
<g>
	<polygon opacity="0.6" fill="#B1DFDC" enable-background="new    " points="378.499,480.437 378.499,286.501 421.999,323.892 
		465.499,286.501 465.499,480.437 421.999,516.183 	"/>
	<polygon opacity="0.6" fill="#BFC23A" enable-background="new    " points="378.499,685.875 378.499,491.94 421.999,529.33 
		465.5,491.94 465.5,685.875 421.999,721.62 	"/>
	<polygon opacity="0.6" fill="#FAB11C" enable-background="new    " points="378.5,891.312 378.499,697.38 421.999,734.769 
		465.5,697.38 465.5,891.312 422,927.059 	"/>
	<polygon opacity="0.6" fill="#B8A880" enable-background="new    " points="378.5,1096.752 378.5,902.816 422,940.207 
		465.5,902.816 465.5,1096.752 422,1132.498 	"/>
	<circle fill="#B1DFDC" cx="421.999" cy="409.168" r="84.5"/>
	<circle fill="#BFC23A" cx="421.999" cy="612.168" r="84.5"/>
	<circle fill="#FAB11C" cx="421.999" cy="818.168" r="84.5"/>
	<circle fill="#B8A880" cx="422" cy="1024.168" r="84.5"/>
	<circle opacity="0.9" fill="#FFFFFF" enable-background="new    " cx="421.999" cy="409.168" r="76"/>
	<circle opacity="0.9" fill="#FFFFFF" enable-background="new    " cx="421.999" cy="612.168" r="76"/>
	<circle opacity="0.9" fill="#FFFFFF" enable-background="new    " cx="421.999" cy="818.168" r="76"/>
	<circle opacity="0.9" fill="#FFFFFF" enable-background="new    " cx="422" cy="1024.168" r="76"/>
</g>
<g enable-background="new    ">
	<path d="M400.543,405.465v1.2H383.42v-1.2H400.543z M399.103,391.401v1.12H384.84v-1.12H399.103z M397.703,397.923v1.12H386.24
		v-1.12H397.703z"/>
	<path d="M404.5,405.104l-1.28-1.86c2.601-1.22,4.581-2.681,6.542-4.281l0.48,0.541C408.801,401.384,406.5,403.645,404.5,405.104z
		 M407.121,396.843c-0.78-1.36-2.081-3.101-3.301-4.421l0.42-0.54c1.721,0.96,3.401,2.221,4.421,3.32L407.121,396.843z
		 M421.264,406.005l-1.4,2.061c-2.641-1.341-4.661-3.981-5.481-8.442c-0.72,3.621-2.881,6.922-8.242,8.643l-0.3-0.641
		c5.741-2.46,6.881-6.901,6.881-10.482v-1.66h1.96c0.02,0.801,0,1.62-0.06,2.44C415.902,402.924,418.203,404.664,421.264,406.005z
		 M408.661,398.023c1.62-2.141,2.3-4.481,2.72-8.582l2.261,0.3c-0.3,1.4-0.64,2.641-1.061,3.761h5.741l0.621-0.32l1.94,1.181
		c-0.76,1.28-2.24,3.181-3.761,4.341l-0.52-0.4c0.92-1.56,1.32-2.521,1.74-3.9h-6.141c-0.76,1.681-1.72,3.021-3,4.121
		L408.661,398.023z"/>
	<path d="M423.26,407.545l-0.36-0.64c1.88-1.141,4.061-3.001,5.501-5.081l1.72,1.12C428.8,404.364,426.721,406.085,423.26,407.545z
		 M433.282,400.724v5.481c0,2.021-1.66,2.98-5.201,0.86l0.24-0.7c2.741,0.64,3.081,0.42,3.081-0.78v-4.621
		c-2.521,0.28-5.021,0.479-6.482,0.54l-0.5-1.881c1.16,0.08,2.44,0.12,3.781,0.101c1.801-0.9,3.461-2.061,5.001-3.421
		c-2.601,0.54-5.261,0.84-6.961,0.98l-0.48-1.86c0.74,0.04,1.521,0.08,2.32,0.1c1.061-1,1.841-1.8,2.821-3.12
		c-2.301,0.22-4.521,0.34-6.202,0.38l-0.12-0.721c4.641-0.46,9.302-1.06,12.863-2.5l1.86,1.54c-1.64,0.42-3.641,0.74-5.701,1
		c-1.16,1.141-2.901,2.501-4.28,3.441c1.619,0.02,3.3-0.04,4.84-0.141c0.74-0.74,1.461-1.521,2.141-2.34l1.781,1.06
		c-2.461,2.421-5.222,4.261-8.043,5.581c2.661-0.06,5.342-0.26,7.362-0.46c-0.54-0.74-1.06-1.38-1.561-1.94l0.501-0.5
		c1.359,0.88,3.4,2.621,4.381,3.98l-1.561,1.201c-0.44-0.78-0.86-1.461-1.281-2.081
		C436.683,400.203,435.023,400.483,433.282,400.724z M440.963,405.585l-1.38,1.64c-1.041-1.2-3.461-3.34-5.521-4.881l0.36-0.64
		C436.722,402.664,439.343,404.164,440.963,405.585z"/>
	<path d="M460.103,402.864c-0.539-0.16-1.439-0.44-2.42-0.86v6.081h-1.721v-0.88h-7.922v0.94h-1.721v-6.262
		c-0.939,0.42-1.939,0.761-3,1.061l-0.24-0.66c2.461-0.9,5.081-2.44,6.502-4.281h-6.041v-0.9h4.84c-0.479-0.68-1.039-1.4-1.48-1.84
		l0.24-0.3c-0.32,0.02-0.64,0.02-0.96,0.02l-0.12-0.68c4.401-0.36,7.402-1.121,8.982-1.661H445.6v2.761h-1.761v-3.66h8.362
		c-0.96-0.501-2.3-1.061-3.341-1.48l0.16-0.7c1.1,0.06,3.021,0.28,4.381,0.8l-0.641,1.381h7.422v3.66h-1.76v-2.761h-2.521
		l1.421,1.221c-0.479,0.1-1.04,0.2-1.66,0.3l1.74,0.98c-0.82,0.88-1.581,1.46-2.38,1.96h5.36v0.9h-7.062
		c2.221,1.9,5.461,2.621,7.822,2.94L460.103,402.864z M456.482,401.424c-1.359-0.7-2.74-1.66-3.641-2.921v2.44h-1.76v-2.28
		c-0.92,1.061-2.201,1.98-3.761,2.761H456.482z M450.041,396.522l-0.68,0.58h1.721v-2.38c-1.08,0.1-2.201,0.18-3.32,0.22
		C448.641,395.383,449.401,395.923,450.041,396.522z M451.142,402.324h-3.102v1.5h3.102V402.324z M451.142,404.725h-3.102v1.58
		h3.102V404.725z M455.962,402.324h-3.141v1.5h3.141V402.324z M455.962,404.725h-3.141v1.58h3.141V404.725z M455.623,394.162
		c-0.84,0.141-1.78,0.26-2.781,0.38v2.561h1.201C454.722,396.203,455.242,395.162,455.623,394.162z"/>
</g>
<g enable-background="new    ">
	<path fill="#6D6E71" d="M373.513,426.61c0-3.777,1.729-5.826,4.066-5.826c2.417,0,3.874,2.081,3.874,5.666
		c0,3.826-1.505,5.955-4.034,5.938C375.162,432.373,373.513,430.324,373.513,426.61z M379.788,426.515
		c0-2.77-0.705-4.818-2.305-4.818c-1.36,0-2.305,1.857-2.305,4.931c0,2.929,0.88,4.85,2.289,4.85
		C379.051,431.477,379.788,429.396,379.788,426.515z"/>
	<path fill="#6D6E71" d="M385.129,426.595c-0.208,0-0.448,0.016-0.704,0.048v-1.104c1.777-0.128,2.913-1.185,3.025-2.289
		c0.096-1.008-0.656-1.568-1.873-1.568c-1.2,0-2,0.512-2.657,1.009v-1.312c0.368-0.177,1.376-0.625,2.929-0.625
		c2.513,0,3.345,1.601,3.233,2.577c-0.144,1.312-1.488,2.129-2.545,2.514v0.096c1.425,0.112,2.977,1.104,3.057,2.657
		c0.128,1.488-0.864,3.441-3.617,3.745c-1.024,0.112-2.225,0.032-3.233-0.256l-0.096-0.736c1.104,0.192,2.273,0.208,2.961,0.096
		c2.145-0.368,2.385-2.081,2.305-2.753C387.947,427.363,386.442,426.562,385.129,426.595z"/>
	<path fill="#6D6E71" d="M396.634,418.976l-4.482,14.614h-1.264l4.481-14.614H396.634z"/>
	<path fill="#6D6E71" d="M397.528,426.61c0-3.777,1.729-5.826,4.066-5.826c2.417,0,3.874,2.081,3.874,5.666
		c0,3.826-1.505,5.955-4.034,5.938C399.177,432.373,397.528,430.324,397.528,426.61z M403.803,426.515
		c0-2.77-0.705-4.818-2.305-4.818c-1.36,0-2.305,1.857-2.305,4.931c0,2.929,0.88,4.85,2.289,4.85
		C403.067,431.477,403.803,429.396,403.803,426.515z"/>
	<path fill="#6D6E71" d="M414.123,424.018c0,2.097-1.504,3.617-4.129,6.034l-1.057,0.977v0.096h5.442v1.057h-7.475v-0.848
		l1.265-1.104c2.689-2.354,4.29-4.338,4.29-6.035c0-1.072-0.624-2.513-2.337-2.513c-1.136,0-2.145,0.576-2.849,1.185v-1.312
		c0.72-0.353,1.873-0.801,3.121-0.801C412.859,420.752,414.123,422.48,414.123,424.018z"/>
	<path fill="#6D6E71" d="M424.441,427.379v1.217h-4.178v-1.217H424.441z"/>
	<path fill="#6D6E71" d="M429.976,426.61c0-3.777,1.729-5.826,4.065-5.826c2.417,0,3.874,2.081,3.874,5.666
		c0,3.826-1.506,5.955-4.034,5.938C431.625,432.373,429.976,430.324,429.976,426.61z M436.25,426.515
		c0-2.77-0.704-4.818-2.306-4.818c-1.359,0-2.305,1.857-2.305,4.931c0,2.929,0.881,4.85,2.289,4.85
		C435.514,431.477,436.25,429.396,436.25,426.515z"/>
	<path fill="#6D6E71" d="M441.592,426.595c-0.208,0-0.448,0.016-0.704,0.048v-1.104c1.777-0.128,2.913-1.185,3.025-2.289
		c0.096-1.008-0.656-1.568-1.873-1.568c-1.2,0-2,0.512-2.656,1.009v-1.312c0.367-0.177,1.376-0.625,2.929-0.625
		c2.513,0,3.345,1.601,3.233,2.577c-0.145,1.312-1.488,2.129-2.545,2.514v0.096c1.424,0.112,2.977,1.104,3.057,2.657
		c0.129,1.488-0.864,3.441-3.617,3.745c-1.024,0.112-2.225,0.032-3.233-0.256l-0.097-0.736c1.105,0.192,2.273,0.208,2.962,0.096
		c2.146-0.368,2.385-2.081,2.305-2.753C444.41,427.363,442.905,426.562,441.592,426.595z"/>
	<path fill="#6D6E71" d="M453.097,418.976l-4.482,14.614h-1.264l4.481-14.614H453.097z"/>
	<path fill="#6D6E71" d="M453.992,426.61c0-3.777,1.729-5.826,4.065-5.826c2.417,0,3.874,2.081,3.874,5.666
		c0,3.826-1.506,5.955-4.034,5.938C455.64,432.373,453.992,430.324,453.992,426.61z M460.266,426.515
		c0-2.77-0.704-4.818-2.306-4.818c-1.359,0-2.305,1.857-2.305,4.931c0,2.929,0.881,4.85,2.289,4.85
		C459.53,431.477,460.266,429.396,460.266,426.515z"/>
	<path fill="#6D6E71" d="M465.608,426.595c-0.208,0-0.448,0.016-0.704,0.048v-1.104c1.777-0.128,2.913-1.185,3.025-2.289
		c0.096-1.008-0.656-1.568-1.873-1.568c-1.2,0-2,0.512-2.656,1.009v-1.312c0.367-0.177,1.376-0.625,2.929-0.625
		c2.513,0,3.345,1.601,3.233,2.577c-0.145,1.312-1.488,2.129-2.545,2.514v0.096c1.424,0.112,2.977,1.104,3.057,2.657
		c0.129,1.488-0.864,3.441-3.617,3.745c-1.024,0.112-2.225,0.032-3.233-0.256l-0.097-0.736c1.105,0.192,2.273,0.208,2.962,0.096
		c2.146-0.368,2.385-2.081,2.305-2.753C468.425,427.363,466.92,426.562,465.608,426.595z"/>
</g>
<g enable-background="new    ">
	<path d="M398.161,600.903v10.342h-1.72v-9.182c-0.62,1.66-1.76,3.78-2.821,5.121l-0.56-0.46c1.081-1.961,2.521-5.262,3.061-8.542
		H393.4v-0.9h3.041v-4.561h1.72v4.561h2.521v0.9h-2.521v1.5c0.6,0.54,1.3,1.261,1.9,1.961c0.92-1.12,1.92-2.701,2.601-4.441
		l1.781,0.84c-0.9,1.461-2.581,3.142-3.941,4.161c0.28,0.36,0.52,0.681,0.7,0.98l-1.48,0.94
		C399.361,603.264,398.722,601.983,398.161,600.903z M406.183,606.604c1.28,1.22,2.86,2.061,5.081,2.761l-1.18,2
		c-1.94-0.7-3.561-1.84-4.901-3.521c-1.48,1.601-3.42,2.841-6.081,3.66l-0.28-0.66c2.581-1.18,4.241-2.521,5.481-4.28
		c-0.88-1.421-1.581-3.141-2.141-5.201l0.64-0.32c0.72,1.74,1.42,3.141,2.261,4.281c0.7-1.28,1.24-2.781,1.78-4.541l1.86,0.78
		C408.023,603.483,407.223,605.164,406.183,606.604z M410.784,596.822h-10.482v-0.9h4.921c-0.68-0.94-1.54-2.061-2.32-2.921
		l0.44-0.58c1.16,0.601,2.561,1.541,3.501,2.461l-1.021,1.04h4.961V596.822z M406.643,597.263c1.3,0.64,3.281,1.92,4.661,3.4
		l-1.44,1.34c-1.26-1.72-2.4-3.021-3.601-4.181L406.643,597.263z"/>
	<path d="M429.444,597.303v11.922c0,1.98-1.9,2.741-5.641,0.7l0.18-0.7c3.221,0.66,3.581,0.34,3.581-0.68v-10.242h-4.661
		c0.68,2.58,2.061,4.721,4.621,6.642l-1.661,1.82c-1.7-1.621-3.101-4.562-3.48-6.762c-0.6,1.94-2.48,5.181-5.321,6.922l-0.44-0.601
		c2.621-2.221,3.981-5.461,4.541-8.021h-4.661v12.982h-1.84v-13.982h6.801c-0.04-0.9-0.12-2.161-0.1-2.901h-4.721v-0.899h5.661
		c0.02,1.359,0.14,2.62,0.36,3.801H429.444z"/>
	<path d="M450.664,609.245l-1.02,2.04c-2.181-0.64-5.801-2.42-7.021-7.102h-2.061v4.161c1.28-0.12,2.48-0.28,3.34-0.42l0.16,0.72
		c-1.8,0.801-5.08,1.601-7.221,1.9l-0.58-1.94c0.74,0,1.641-0.04,2.58-0.1v-4.321h-2.44c-0.38,3.261-1.22,5.461-2.78,7.142
		l-0.58-0.46c1.88-3.301,1.76-7.382,1.76-13.283v-3.94h13.943v3.741h-12.103v1.5c0,1.641-0.04,3.101-0.16,4.4h3.301v-2.58h-2.741
		v-0.9h2.741v-1.96h1.72v1.96h2.781v-1.96h1.721v1.96h3.461v0.9h-3.461v2.58h4.181v0.9h-6.782c0.421,1.101,1.021,1.94,1.682,2.601
		c0.84-0.62,1.779-1.48,2.439-2.341l1.601,1.241c-1.3,0.739-2.521,1.26-3.48,1.6C447.223,608.524,449.124,608.944,450.664,609.245z
		 M436.641,596.482h10.302v-1.94h-10.302V596.482z M441.501,603.283h2.781v-2.58h-2.781V603.283z"/>
</g>
<g enable-background="new    ">
	<path fill="#6D6E71" d="M372.64,629.61c0-3.777,1.729-5.826,4.066-5.826c2.417,0,3.874,2.081,3.874,5.666
		c0,3.826-1.505,5.955-4.034,5.938C374.289,635.373,372.64,633.324,372.64,629.61z M378.915,629.515c0-2.77-0.705-4.818-2.305-4.818
		c-1.36,0-2.305,1.857-2.305,4.931c0,2.929,0.88,4.85,2.289,4.85C378.179,634.477,378.915,632.396,378.915,629.515z"/>
	<path fill="#6D6E71" d="M386.706,623.944h1.745v7.139h1.569v1.057h-1.569v3.058h-1.504v-3.058h-5.33v-1.009L386.706,623.944z
		 M386.946,627.178c0-0.593,0.016-1.169,0.064-1.761h-0.096c-0.32,0.672-0.608,1.168-0.96,1.681l-2.833,3.89v0.096h3.826V627.178z"
		/>
	<path fill="#6D6E71" d="M396.482,621.976L392,636.59h-1.264l4.481-14.614H396.482z"/>
	<path fill="#6D6E71" d="M397.375,629.61c0-3.777,1.729-5.826,4.066-5.826c2.417,0,3.874,2.081,3.874,5.666
		c0,3.826-1.505,5.955-4.034,5.938C399.024,635.373,397.375,633.324,397.375,629.61z M403.65,629.515
		c0-2.77-0.705-4.818-2.305-4.818c-1.36,0-2.305,1.857-2.305,4.931c0,2.929,0.88,4.85,2.289,4.85
		C402.914,634.477,403.65,632.396,403.65,629.515z"/>
	<path fill="#6D6E71" d="M409.296,629.307v-0.096c-1.28-0.593-2.113-1.473-2.113-2.609c0-1.761,1.601-2.897,3.634-2.897
		c2.225,0,3.393,1.425,3.393,2.817c0,1.328-0.768,2.001-2.177,2.673v0.096c1.424,0.528,2.577,1.361,2.577,2.834
		c0,2.225-1.457,3.393-3.906,3.377c-2.385-0.016-3.921-1.2-3.921-3.186C406.784,630.795,407.904,629.915,409.296,629.307z
		 M410.705,634.589c1.393,0,2.241-1.072,2.241-2.337c0-1.345-0.832-2.177-2.385-2.562c-1.345,0.353-2.113,1.393-2.113,2.465
		C408.384,633.324,409.249,634.589,410.705,634.589z M412.642,626.682c0-0.896-0.528-2.065-1.937-2.065
		c-1.265,0-1.937,1.057-1.953,2.033c-0.016,1.12,0.752,1.825,2.065,2.177C411.826,628.506,412.642,627.706,412.642,626.682z"/>
	<path fill="#6D6E71" d="M424.513,630.379v1.217h-4.178v-1.217H424.513z"/>
	<path fill="#6D6E71" d="M430.046,629.61c0-3.777,1.729-5.826,4.066-5.826c2.417,0,3.873,2.081,3.873,5.666
		c0,3.826-1.504,5.955-4.033,5.938C431.696,635.373,430.046,633.324,430.046,629.61z M436.322,629.515
		c0-2.77-0.705-4.818-2.305-4.818c-1.361,0-2.305,1.857-2.305,4.931c0,2.929,0.879,4.85,2.288,4.85
		C435.585,634.477,436.322,632.396,436.322,629.515z"/>
	<path fill="#6D6E71" d="M444.113,623.944h1.744v7.139h1.569v1.057h-1.569v3.058h-1.504v-3.058h-5.33v-1.009L444.113,623.944z
		 M444.353,627.178c0-0.593,0.016-1.169,0.064-1.761h-0.097c-0.319,0.672-0.608,1.168-0.96,1.681l-2.834,3.89v0.096h3.826V627.178z"
		/>
	<path fill="#6D6E71" d="M453.888,621.976l-4.481,14.614h-1.265l4.482-14.614H453.888z"/>
	<path fill="#6D6E71" d="M458.176,624.969l-2.433,1.072v-1.265l2.912-1.024h1.186v11.461h-1.568v-10.244H458.176z"/>
	<path fill="#6D6E71" d="M468.208,623.944h1.744v7.139h1.569v1.057h-1.569v3.058h-1.504v-3.058h-5.33v-1.009L468.208,623.944z
		 M468.449,627.178c0-0.593,0.016-1.169,0.064-1.761h-0.097c-0.319,0.672-0.608,1.168-0.96,1.681l-2.834,3.89v0.096h3.826V627.178z"
		/>
</g>
<g enable-background="new    ">
	<path d="M368.714,811.544v5.682h-1.76v-5.142c-0.74,1.141-1.9,2.521-3.741,3.761l-0.44-0.56c1.42-1.2,3.041-3.562,3.762-5.422
		h-3.201v-0.859h3.621v-1.961h1.76v1.961h3.361v0.859h-3.361v0.641c0.98,0.6,2.201,1.4,3.221,2.5l-1.28,1.241
		C370.015,813.225,369.334,812.364,368.714,811.544z M372.416,806.643h-9.362v-0.899h2.62c-0.34-0.98-0.84-2.261-1.26-3.121l0.6-0.4
		c0.781,0.74,1.74,1.98,2.262,2.921l-1.161,0.601h2.341c0.38-1.12,0.68-2.601,0.8-3.562l1.801,0.58
		c-0.46,0.961-1.161,2.141-1.821,2.981h3.182V806.643z M371.935,802.082h-8.582v-0.88h4.182c-0.701-0.761-1.441-1.48-2.221-2.161
		l0.359-0.6c1.041,0.36,2.261,0.92,3.342,1.681l-0.82,1.08h3.74V802.082z M380.716,806.143h-2.06v11.003h-1.761v-11.003h-2.28v0.801
		c0,5.161-1.04,8.382-3.521,10.502l-0.541-0.48c1.9-2.34,2.262-5.141,2.262-9.361v-7.402l1.66,0.44c1.54-0.44,2.78-1.061,4.08-2
		l1.721,1.46c-1.801,0.641-3.66,1.08-5.661,1.261v3.881h6.101V806.143z"/>
	<path d="M400.177,806.383v1.301h-16.664v-1.301H400.177z"/>
	<path d="M407.794,803.662v13.563h-1.801v-10.982c-0.8,0.979-1.7,1.92-2.7,2.78l-0.48-0.58c2.12-2.421,4.001-5.741,5.161-9.922
		l1.98,0.66C409.415,800.642,408.714,802.182,407.794,803.662z M419.796,811.024c1.681,4.78,0.621,7.121-2.54,5.541
		c-2.161-1.08-3.841-3.861-4.581-10.303c-1.32,0.2-2.66,0.4-3.98,0.58l-0.18-1.12c1.34-0.18,2.699-0.38,4.061-0.58
		c-0.18-1.88-0.26-3.94-0.34-6.121h1.84c0.08,2.221,0.18,4.201,0.32,5.841c2.04-0.3,4.101-0.64,6.161-1l0.159,1.101
		c-2.06,0.359-4.141,0.7-6.221,1.02c0.461,4.102,1.541,7.562,3.361,8.562c1.38,0.76,1.279-0.74,1.199-3.521H419.796z
		 M417.997,803.522c-0.841-1.32-1.82-2.581-2.761-3.781l0.46-0.56c1.341,0.78,2.581,1.7,3.841,2.92L417.997,803.522z"/>
	<path d="M430.935,803.122h-7.962v-0.9h3.642c-0.561-1.18-1.301-2.521-1.741-3.28l0.54-0.46c0.9,0.7,2.141,2.021,2.841,3.08l-1,0.66
		h3.7L430.935,803.122z M429.855,805.062v0.78h-6.062v-0.78H429.855z M429.855,808.604h-6.062v-0.78h6.062V808.604z
		 M429.974,815.725h-4.4v1.36h-1.721v-6.461h6.121V815.725z M428.294,811.504h-2.721v3.341h2.721V811.504z M439.876,817.186
		c-1.24-0.32-3.18-1.16-4.881-2.781c-1.42,1.261-3.181,2.301-5.4,3.001l-0.301-0.66c2.061-0.9,3.621-2.08,4.762-3.36
		c-1.021-1.24-1.881-2.821-2.341-4.802h-1.2v-0.899h6.081l0.5-0.341l1.841,0.761c-0.58,1.82-1.5,3.601-2.82,5.161
		c1.82,1.16,3.78,1.58,4.881,1.82L439.876,817.186z M431.794,801.642v-1.76h5.542v4.041c0,0.62,0.101,0.88,0.819,0.88
		c0.621,0,0.98-0.061,1.501-0.561l0.761,1.381c-0.5,0.52-1.341,0.78-2.561,0.78c-1.841,0-2.281-0.5-2.281-2.201v-3.42h-1.98v0.92
		c0,3.301-1.16,4.541-3.521,5.641l-0.36-0.62C431.416,805.402,431.794,804.883,431.794,801.642z M434.896,812.324
		c0.9-1.26,1.439-2.58,1.74-3.741h-4.161C433.015,810.204,433.875,811.424,434.896,812.324z"/>
	<path d="M451.595,803.303h-8.723v-0.9h4.262c-0.7-1.16-1.641-2.601-2.181-3.321l0.5-0.52c1.001,0.62,2.301,1.64,3.341,2.721
		l-1.28,1.12h4.081V803.303z M443.734,807.903h6.721v0.84h-6.721V807.903z M443.753,805.183h6.721v0.86h-6.721V805.183z
		 M443.753,810.784h6.701v6.141h-1.641v-1.14h-3.34v1.4h-1.721V810.784z M445.474,814.865h3.34v-3.181h-3.34V814.865z
		 M460.716,805.223v0.9h-3.801v11.103h-1.84v-11.103h-3.781v-0.9h3.781v-6.521h1.84v6.521H460.716z"/>
	<path d="M480.498,815.245l-1.021,2.04c-2.18-0.64-5.801-2.42-7.021-7.102h-2.06v4.161c1.28-0.12,2.48-0.28,3.341-0.42l0.16,0.72
		c-1.801,0.801-5.082,1.601-7.223,1.9l-0.58-1.94c0.74,0,1.641-0.04,2.581-0.1v-4.321h-2.44c-0.38,3.261-1.221,5.461-2.781,7.142
		l-0.58-0.46c1.881-3.301,1.762-7.382,1.762-13.283v-3.94h13.942v3.741h-12.103v1.5c0,1.641-0.04,3.101-0.16,4.4h3.301v-2.58h-2.74
		v-0.9h2.74v-1.96h1.721v1.96h2.78v-1.96h1.72v1.96h3.461v0.9h-3.461v2.58h4.182v0.9h-6.781c0.42,1.101,1.02,1.94,1.68,2.601
		c0.84-0.62,1.781-1.48,2.441-2.341l1.6,1.241c-1.301,0.739-2.521,1.26-3.48,1.6C477.056,814.524,478.957,814.944,480.498,815.245z
		 M466.474,802.482h10.303v-1.94h-10.303V802.482z M471.335,809.283h2.78v-2.58h-2.78V809.283z"/>
</g>
<g enable-background="new    ">
	<path fill="#6D6E71" d="M373.354,835.61c0-3.777,1.729-5.826,4.065-5.826c2.418,0,3.874,2.081,3.874,5.666
		c0,3.826-1.505,5.955-4.034,5.938C375.003,841.373,373.354,839.324,373.354,835.61z M379.628,835.515
		c0-2.77-0.704-4.818-2.305-4.818c-1.36,0-2.305,1.857-2.305,4.931c0,2.929,0.88,4.85,2.289,4.85
		C378.892,840.477,379.628,838.396,379.628,835.515z"/>
	<path fill="#6D6E71" d="M382.762,841.245l-0.112-0.736c3.537,0.192,5.09-0.576,5.186-2.978c0.08-1.921-0.863-2.465-1.84-2.465
		c-0.992,0-1.617,0.288-1.921,0.672l-1.073-0.176l0.209-5.603h5.762v1.057h-4.385l-0.129,3.569l0.064,0.064
		c0.304-0.176,0.992-0.561,1.809-0.544c1.664,0.016,3.17,1.136,3.17,3.201C389.501,840.685,386.892,841.661,382.762,841.245z"/>
	<path fill="#6D6E71" d="M396.365,827.976l-4.482,14.614h-1.264l4.48-14.614H396.365z"/>
	<path fill="#6D6E71" d="M400.652,830.969l-2.434,1.072v-1.265l2.913-1.024h1.185v11.461h-1.568v-10.244H400.652z"/>
	<path fill="#6D6E71" d="M411.835,835.835l-0.08-0.032c-0.304,0.576-1.152,1.408-2.368,1.408c-2.065,0-3.474-1.536-3.474-3.457
		c0-2.129,1.601-4.002,3.938-4.002s3.666,1.729,3.666,4.594c0,4.45-2.434,6.627-6.596,7.027l-0.144-0.736
		C410.156,840.044,411.548,838.204,411.835,835.835z M411.772,834.618c0.063-0.16,0.128-0.561,0.128-0.8
		c0-1.585-0.544-3.153-2.16-3.153c-1.377,0-2.162,1.408-2.162,2.993c0,1.393,0.85,2.4,2.178,2.4
		C410.716,836.059,411.356,835.578,411.772,834.618z"/>
	<path fill="#6D6E71" d="M423.627,836.379v1.217h-4.178v-1.217H423.627z"/>
	<path fill="#6D6E71" d="M429.162,835.61c0-3.777,1.729-5.826,4.065-5.826c2.417,0,3.874,2.081,3.874,5.666
		c0,3.826-1.506,5.955-4.034,5.938C430.81,841.373,429.162,839.324,429.162,835.61z M435.435,835.515
		c0-2.77-0.703-4.818-2.305-4.818c-1.359,0-2.305,1.857-2.305,4.931c0,2.929,0.881,4.85,2.289,4.85
		C434.7,840.477,435.435,838.396,435.435,835.515z"/>
	<path fill="#6D6E71" d="M438.57,841.245l-0.113-0.736c3.538,0.192,5.091-0.576,5.187-2.978c0.08-1.921-0.864-2.465-1.841-2.465
		c-0.992,0-1.616,0.288-1.92,0.672l-1.073-0.176l0.208-5.603h5.763v1.057h-4.386l-0.129,3.569l0.064,0.064
		c0.305-0.176,0.992-0.561,1.809-0.544c1.665,0.016,3.17,1.136,3.17,3.201C445.308,840.685,442.699,841.661,438.57,841.245z"/>
	<path fill="#6D6E71" d="M452.171,827.976l-4.482,14.614h-1.264l4.48-14.614H452.171z"/>
	<path fill="#6D6E71" d="M460.444,833.018c0,2.097-1.505,3.617-4.13,6.034l-1.057,0.977v0.096h5.443v1.057h-7.476v-0.848
		l1.265-1.104c2.689-2.354,4.289-4.338,4.289-6.035c0-1.072-0.623-2.513-2.336-2.513c-1.137,0-2.146,0.576-2.85,1.185v-1.312
		c0.721-0.353,1.873-0.801,3.121-0.801C459.179,829.752,460.444,831.48,460.444,833.018z"/>
	<path fill="#6D6E71" d="M469.708,833.018c0,2.097-1.505,3.617-4.13,6.034l-1.057,0.977v0.096h5.443v1.057h-7.476v-0.848
		l1.265-1.104c2.689-2.354,4.289-4.338,4.289-6.035c0-1.072-0.623-2.513-2.336-2.513c-1.137,0-2.146,0.576-2.85,1.185v-1.312
		c0.721-0.353,1.873-0.801,3.121-0.801C468.443,829.752,469.708,831.48,469.708,833.018z"/>
</g>
<g enable-background="new    ">
	<path d="M381.154,1021.645v0.9H363.47v-0.9h7.922v-1.24h-5.661v-0.84h5.661v-1.24h1.721v1.24h5.841v0.84h-5.841v1.24H381.154z
		 M365.81,1015.943h-1.68v-3.24h16.304v3.24h-1.681v-2.34H365.81V1015.943z M371.412,1006.901h-7.221v-0.899h7.221v-1.381h1.721
		v1.381h7.281v0.899h-7.281v0.98h5.701v0.841h-13.082v-0.841h5.66V1006.901z M368.652,1017.004c0.479-0.58,0.84-1.101,1.16-1.761
		h-3.161v-0.8h11.223v0.8h-6.202c-0.6,0.66-1.399,1.28-2.119,1.761c2.1-0.02,4.561-0.1,6.4-0.24c-0.24-0.28-0.48-0.54-0.74-0.8
		l0.381-0.48c1.1,0.54,2.18,1.261,3.221,2.24l-1.221,1.161c-0.34-0.48-0.74-1.021-1.141-1.541c-3.221,0.66-8.481,1.101-10.082,1.141
		l-0.32-1.54C366.691,1016.984,367.591,1017.004,368.652,1017.004z M366.491,1011.943v-2.441h11.683v2.441H366.491z
		 M368.131,1011.183h8.302v-0.92h-8.302V1011.183z"/>
	<path d="M386.531,1015.744v1.479h-1.84v-8.802h6.602v-3.801h1.92v3.801h6.662v8.682h-1.842v-1.359h-4.82v7.581h-1.92v-7.581
		H386.531z M391.292,1009.422h-4.762v5.361h4.762V1009.422z M398.033,1009.422h-4.82v5.361h4.82V1009.422z"/>
	<path d="M411.432,1017.044h-5.462l-1.479,4.501h-1.96l5.181-14.684h2.341l5.24,14.684h-2.4L411.432,1017.044z M408.711,1008.702
		h-0.12c-0.24,0.82-0.52,1.66-0.82,2.48l-1.4,4.661h4.661l-1.64-4.921C409.131,1010.183,408.892,1009.442,408.711,1008.702z"/>
</g>
<g enable-background="new    ">
	<path d="M420.263,1010.921h-1.679v1.726h-0.805v-1.726h-1.726v-0.804h1.726v-1.68h0.805v1.68h1.679V1010.921z"/>
</g>
<g enable-background="new    ">
	<path d="M428.169,1006.602c-0.34,0.54-0.74,1.061-1.16,1.561c0.8,0.54,1.58,1.221,2.301,2.021l-1.061,0.9h3.381v5.381h-6.161
		c-0.06,0.54-0.14,1.04-0.24,1.521h6.722v5.161h-1.721v-1.021h-3.881v1.12h-1.6v-3.581c-0.58,1.601-1.44,2.781-2.48,3.642
		l-0.521-0.5c1.701-2.181,2.101-4.441,2.101-9.543v-2.24c-0.54,0.4-1.1,0.74-1.66,1.061l-0.42-0.561
		c2.201-1.84,4.381-4.421,5.241-7.041l1.98,0.62c-0.12,0.26-0.24,0.5-0.38,0.76c1.62,0.94,3.221,2.121,3.981,2.94l-1.32,1.341
		C430.51,1009.082,429.35,1007.762,428.169,1006.602z M426.409,1008.842c-0.68,0.7-1.44,1.36-2.24,1.961l1.3,0.28h2.34
		C427.37,1010.322,426.869,1009.522,426.409,1008.842z M429.951,1015.584v-1.36h-4.342c0,0.479-0.02,0.92-0.06,1.36H429.951z
		 M429.951,1011.982h-4.362l0.02,1.341h4.342V1011.982z M426.349,1018.885v2.42h3.881v-2.42H426.349z M438.612,1004.741v16.304
		c0,2.521-2.001,2.98-5.36,0.82l0.239-0.681c2.681,0.641,3.341,0.761,3.341-0.52v-15.924H438.612z M435.131,1018.604h-1.641v-11.782
		h1.641V1018.604z"/>
	<path d="M444.649,1017.884l0.72,0.181c-0.22,1.96-1.02,3.74-2.08,4.761l-1.521-1.48
		C443.189,1020.484,444.069,1019.645,444.649,1017.884z M459.312,1011.003h-17.004v-0.9h5.021c-0.58-0.94-1.141-1.681-1.58-2.32
		l0.119-0.141h-2.52v-0.899h7.301c-0.96-0.58-1.9-1.121-2.9-1.661l0.2-0.68c1.14,0.18,2.741,0.54,4.301,1.2l-0.64,1.141h6.4v0.899
		h-3.641l1,0.44c-0.58,0.76-1.16,1.44-1.8,2.021h5.741V1011.003z M456.372,1016.924h-11.522v-4.861h11.522V1016.924z
		 M455.171,1018.544c0.9,2.661,0.779,3.981-1.36,4.142c-1.261,0.1-2.921,0.14-4.361,0.06c-2-0.12-3.101-0.38-3.101-2v-3.181h1.801
		v2.32c0,0.94,0.26,1.26,1.439,1.3c1.541,0.061,2.922,0.04,3.861-0.06c0.9-0.101,1.08-0.32,1-2.561L455.171,1018.544z
		 M454.611,1012.903h-8.002v1.16h8.002V1012.903z M454.611,1014.863h-8.002v1.221h8.002V1014.863z M449.169,1009.603l-0.66,0.5
		h3.881c0.44-0.78,0.761-1.54,1.041-2.461h-6.562C447.709,1008.182,448.61,1008.902,449.169,1009.603z M449.429,1017.784
		l0.341-0.601c1.06,0.4,2.38,1.041,3.421,1.801l-1.08,1.4C451.23,1019.444,450.169,1018.464,449.429,1017.784z M459.732,1020.944
		l-1.561,1.161c-0.699-1.461-1.32-2.641-2.2-3.941l0.54-0.46C457.591,1018.484,458.852,1019.664,459.732,1020.944z"/>
	<path d="M461.968,1014.884l-0.26-0.641c2.9-1.16,4.861-2.721,6.342-4.701h-5.482v-0.899h7.322v-1.501
		c-2.341,0.141-4.641,0.181-6.262,0.141l-0.119-0.7c5.94-0.221,9.722-0.921,12.502-2.021l1.58,1.48
		c-1.359,0.439-3.58,0.76-5.941,0.96v1.641h7.362v0.899h-6.501c2.42,2.121,4.94,2.741,7.341,3.161l-1,1.801
		c-1.96-0.421-5.101-1.98-7.202-4.802v3.521h-1.76v-3.46C468.37,1012.043,465.509,1013.823,461.968,1014.884z M471.99,1017.504
		h7.522v0.9h-7.522v2.78c0,2.061-1.64,3.421-5.34,0.54l0.279-0.68c2.801,0.9,3.301,0.7,3.301-0.38v-2.261h-8.002v-0.9h8.002v-1.521
		l1.5,0.341c0.66-0.48,1.301-1.081,1.801-1.701h-8.242v-0.899h8.543l0.479-0.261l1.86,1.32c-1,0.881-3,1.78-4.182,2.221V1017.504z"
		/>
</g>
<g enable-background="new    ">
	<path fill="#6D6E71" d="M373.268,1041.61c0-3.777,1.729-5.826,4.065-5.826c2.418,0,3.874,2.081,3.874,5.666
		c0,3.826-1.505,5.955-4.034,5.938C374.917,1047.373,373.268,1045.324,373.268,1041.61z M379.542,1041.515
		c0-2.77-0.704-4.818-2.305-4.818c-1.36,0-2.305,1.857-2.305,4.931c0,2.929,0.88,4.85,2.289,4.85
		C378.806,1046.477,379.542,1044.396,379.542,1041.515z"/>
	<path fill="#6D6E71" d="M382.676,1047.245l-0.112-0.736c3.537,0.192,5.09-0.576,5.186-2.978c0.08-1.921-0.863-2.465-1.84-2.465
		c-0.992,0-1.617,0.288-1.921,0.672l-1.073-0.176l0.209-5.603h5.762v1.057h-4.385l-0.129,3.569l0.064,0.064
		c0.304-0.176,0.992-0.561,1.809-0.544c1.664,0.016,3.17,1.136,3.17,3.201C389.416,1046.685,386.806,1047.661,382.676,1047.245z"/>
	<path fill="#6D6E71" d="M396.279,1033.976l-4.482,14.614h-1.264l4.48-14.614H396.279z"/>
	<path fill="#6D6E71" d="M404.55,1039.018c0,2.097-1.504,3.617-4.129,6.034l-1.057,0.977v0.096h5.442v1.057h-7.476v-0.848
		l1.266-1.104c2.688-2.354,4.289-4.338,4.289-6.035c0-1.072-0.624-2.513-2.337-2.513c-1.136,0-2.146,0.576-2.849,1.185v-1.312
		c0.72-0.353,1.872-0.801,3.121-0.801C403.287,1035.752,404.55,1037.48,404.55,1039.018z"/>
	<path fill="#6D6E71" d="M410.677,1047.485c-2.816,0-3.921-2.321-3.921-5.171c0-4.001,2.385-6.21,6.626-6.61l0.113,0.753
		c-3.314,0.416-5.283,2.32-5.267,5.201l0.08,0.017c0.384-0.864,1.329-1.841,2.785-1.825c2.128,0.017,3.394,1.745,3.394,3.649
		C414.488,1045.58,413.447,1047.485,410.677,1047.485z M410.742,1040.843c-1.184,0-2.257,1.104-2.257,2.753
		c0,1.872,0.913,2.977,2.257,2.977c1.232,0,2.081-1.024,2.081-2.929C412.823,1041.643,411.926,1040.843,410.742,1040.843z"/>
	<path fill="#6D6E71" d="M424.517,1042.379v1.217h-4.178v-1.217H424.517z"/>
	<path fill="#6D6E71" d="M430.051,1041.61c0-3.777,1.729-5.826,4.065-5.826c2.418,0,3.874,2.081,3.874,5.666
		c0,3.826-1.505,5.955-4.034,5.938C431.701,1047.373,430.051,1045.324,430.051,1041.61z M436.326,1041.515
		c0-2.77-0.704-4.818-2.305-4.818c-1.36,0-2.305,1.857-2.305,4.931c0,2.929,0.88,4.85,2.289,4.85
		C435.589,1046.477,436.326,1044.396,436.326,1041.515z"/>
	<path fill="#6D6E71" d="M439.459,1047.245l-0.112-0.736c3.537,0.192,5.09-0.576,5.186-2.978c0.08-1.921-0.863-2.465-1.84-2.465
		c-0.992,0-1.617,0.288-1.921,0.672l-1.073-0.176l0.209-5.603h5.762v1.057h-4.385l-0.129,3.569l0.064,0.064
		c0.304-0.176,0.992-0.561,1.809-0.544c1.664,0.016,3.17,1.136,3.17,3.201C446.199,1046.685,443.589,1047.661,439.459,1047.245z"/>
	<path fill="#6D6E71" d="M453.062,1033.976l-4.482,14.614h-1.264l4.48-14.614H453.062z"/>
	<path fill="#6D6E71" d="M456.356,1041.595c-0.208,0-0.448,0.016-0.704,0.048v-1.104c1.777-0.128,2.913-1.185,3.025-2.289
		c0.096-1.008-0.656-1.568-1.873-1.568c-1.2,0-2,0.512-2.656,1.009v-1.312c0.367-0.177,1.376-0.625,2.929-0.625
		c2.513,0,3.345,1.601,3.233,2.577c-0.145,1.312-1.488,2.129-2.545,2.514v0.096c1.424,0.112,2.977,1.104,3.057,2.657
		c0.129,1.488-0.864,3.441-3.617,3.745c-1.024,0.112-2.225,0.032-3.233-0.256l-0.097-0.736c1.105,0.192,2.273,0.208,2.962,0.096
		c2.146-0.368,2.385-2.081,2.305-2.753C459.173,1042.363,457.669,1041.562,456.356,1041.595z"/>
	<path fill="#6D6E71" d="M465.909,1036.969l-2.433,1.072v-1.265l2.912-1.024h1.186v11.461h-1.568v-10.244H465.909z"/>
</g>
</svg>
