<?xml version="1.0" encoding="utf-8"?>
<!-- Generator: Adobe Illustrator 16.0.0, SVG Export Plug-In . SVG Version: 6.00 Build 0)  -->
<!DOCTYPE svg PUBLIC "-//W3C//DTD SVG 1.1//EN" "http://www.w3.org/Graphics/SVG/1.1/DTD/svg11.dtd">
<svg version="1.1" id="圖層_1" xmlns="http://www.w3.org/2000/svg" xmlns:xlink="http://www.w3.org/1999/xlink" x="0px" y="0px"
	 width="855.667px" height="181px" viewBox="0 0 855.667 181" enable-background="new 0 0 855.667 181" xml:space="preserve">
<polygon opacity="0.6" fill="#B1DFDC" enable-background="new    " points="198.935,134 5,134 42.39,90.5 5,47 198.935,47 
	234.681,90.5 "/>
<polygon opacity="0.6" fill="#BFC23A" enable-background="new    " points="404.374,134 210.439,134 247.829,90.5 210.439,47 
	404.374,47 440.119,90.5 "/>
<polygon opacity="0.6" fill="#FAB11C" enable-background="new    " points="609.812,134 415.879,134 453.267,90.5 415.879,47 
	609.812,47 645.558,90.5 "/>
<polygon opacity="0.6" fill="#B8A880" enable-background="new    " points="815.251,134 621.316,134 658.707,90.5 621.316,47 
	815.251,47 850.998,90.5 "/>
<circle fill="#B1DFDC" cx="127.667" cy="90.5" r="84.5"/>
<circle fill="#BFC23A" cx="330.667" cy="90.5" r="84.5"/>
<circle fill="#FAB11C" cx="536.667" cy="90.5" r="84.5"/>
<circle fill="#B8A880" cx="742.667" cy="90.5" r="84.5"/>
<circle opacity="0.9" fill="#FFFFFF" enable-background="new    " cx="127.667" cy="90.5" r="76"/>
<circle opacity="0.9" fill="#FFFFFF" enable-background="new    " cx="330.667" cy="90.5" r="76"/>
<circle opacity="0.9" fill="#FFFFFF" enable-background="new    " cx="536.667" cy="90.5" r="76"/>
<circle opacity="0.9" fill="#FFFFFF" enable-background="new    " cx="742.667" cy="90.5" r="76"/>
<g enable-background="new    ">
	<path d="M106.211,86.797v1.2H89.087v-1.2H106.211z M104.771,72.733v1.12H90.508v-1.12H104.771z M103.37,79.255v1.12H91.908v-1.12
		H103.37z"/>
	<path d="M110.167,86.437l-1.28-1.86c2.601-1.22,4.581-2.681,6.542-4.281l0.48,0.541C114.468,82.716,112.168,84.977,110.167,86.437z
		 M112.788,78.175c-0.78-1.36-2.081-3.101-3.301-4.421l0.42-0.54c1.721,0.96,3.401,2.221,4.421,3.32L112.788,78.175z
		 M126.931,87.337l-1.4,2.061c-2.641-1.341-4.661-3.981-5.481-8.442c-0.72,3.621-2.881,6.922-8.242,8.643l-0.3-0.641
		c5.741-2.46,6.881-6.901,6.881-10.482v-1.66h1.96c0.02,0.801,0,1.62-0.06,2.44C121.57,84.256,123.871,85.996,126.931,87.337z
		 M114.329,79.355c1.62-2.141,2.3-4.481,2.72-8.582l2.261,0.3c-0.3,1.4-0.64,2.641-1.061,3.761h5.741l0.621-0.32l1.94,1.181
		c-0.76,1.28-2.24,3.181-3.761,4.341l-0.52-0.4c0.92-1.56,1.32-2.521,1.74-3.9h-6.141c-0.76,1.681-1.72,3.021-3,4.121
		L114.329,79.355z"/>
	<path d="M128.927,88.877l-0.36-0.64c1.88-1.142,4.061-3.001,5.501-5.081l1.72,1.12C134.468,85.696,132.388,87.417,128.927,88.877z
		 M138.949,82.056v5.481c0,2.021-1.66,2.98-5.201,0.86l0.24-0.7c2.741,0.64,3.081,0.42,3.081-0.78v-4.621
		c-2.521,0.28-5.021,0.479-6.481,0.54l-0.5-1.881c1.16,0.08,2.44,0.12,3.781,0.101c1.801-0.9,3.461-2.061,5.001-3.421
		c-2.6,0.54-5.261,0.84-6.961,0.98l-0.48-1.86c0.74,0.04,1.521,0.08,2.32,0.1c1.061-1,1.841-1.8,2.821-3.12
		c-2.3,0.22-4.521,0.34-6.201,0.38l-0.12-0.721c4.641-0.46,9.302-1.06,12.863-2.5l1.86,1.54c-1.64,0.42-3.641,0.74-5.701,1
		c-1.16,1.141-2.901,2.501-4.281,3.441c1.62,0.02,3.3-0.04,4.841-0.141c0.74-0.74,1.46-1.521,2.141-2.34l1.78,1.06
		c-2.46,2.421-5.221,4.261-8.042,5.581c2.661-0.06,5.341-0.26,7.362-0.46c-0.54-0.74-1.06-1.38-1.562-1.94l0.5-0.5
		c1.36,0.88,3.4,2.621,4.381,3.98l-1.561,1.201c-0.44-0.78-0.86-1.461-1.28-2.081C142.35,81.535,140.69,81.815,138.949,82.056z
		 M146.631,86.917l-1.38,1.64c-1.041-1.2-3.461-3.34-5.521-4.881l0.36-0.64C142.39,83.996,145.011,85.496,146.631,86.917z"/>
	<path d="M165.771,84.196c-0.54-0.16-1.44-0.44-2.42-0.86v6.081h-1.721v-0.88h-7.921v0.94h-1.721v-6.262
		c-0.94,0.42-1.94,0.761-3,1.061l-0.24-0.66c2.46-0.9,5.081-2.44,6.501-4.281h-6.041v-0.9h4.841c-0.48-0.68-1.04-1.4-1.48-1.84
		l0.24-0.3c-0.32,0.02-0.64,0.02-0.96,0.02l-0.12-0.68c4.401-0.36,7.401-1.121,8.982-1.661h-9.442v2.761h-1.76v-3.66h8.362
		c-0.96-0.501-2.3-1.061-3.341-1.48l0.16-0.7c1.1,0.06,3.021,0.28,4.381,0.8l-0.64,1.381h7.422v3.66h-1.761v-2.761h-2.521
		l1.42,1.221c-0.48,0.1-1.04,0.2-1.66,0.3l1.74,0.98c-0.82,0.88-1.581,1.46-2.38,1.96h5.361v0.9h-7.062
		c2.221,1.9,5.461,2.621,7.822,2.94L165.771,84.196z M162.15,82.756c-1.36-0.7-2.74-1.66-3.641-2.921v2.44h-1.76v-2.28
		c-0.92,1.061-2.201,1.98-3.761,2.761H162.15z M155.708,77.854l-0.68,0.58h1.721v-2.38c-1.08,0.101-2.201,0.18-3.321,0.22
		C154.309,76.715,155.068,77.255,155.708,77.854z M156.809,83.656h-3.101v1.5h3.101V83.656z M156.809,86.057h-3.101v1.58h3.101
		V86.057z M161.63,83.656h-3.141v1.5h3.141V83.656z M161.63,86.057h-3.141v1.58h3.141V86.057z M161.29,75.494
		c-0.84,0.141-1.78,0.26-2.781,0.38v2.561h1.2C160.39,77.535,160.91,76.494,161.29,75.494z"/>
</g>
<g enable-background="new    ">
	<path fill="#6D6E71" d="M79.18,107.941c0-3.776,1.729-5.825,4.066-5.825c2.417,0,3.874,2.081,3.874,5.666
		c0,3.825-1.505,5.955-4.034,5.938C80.829,113.705,79.18,111.656,79.18,107.941z M85.455,107.848c0-2.771-0.705-4.818-2.305-4.818
		c-1.36,0-2.305,1.856-2.305,4.931c0,2.929,0.88,4.851,2.289,4.851C84.719,112.809,85.455,110.729,85.455,107.848z"/>
	<path fill="#6D6E71" d="M90.797,107.927c-0.208,0-0.448,0.017-0.704,0.048v-1.104c1.777-0.128,2.913-1.186,3.025-2.289
		c0.096-1.008-0.656-1.568-1.873-1.568c-1.2,0-2,0.512-2.657,1.01v-1.312c0.368-0.177,1.376-0.625,2.929-0.625
		c2.513,0,3.345,1.602,3.233,2.577c-0.144,1.312-1.488,2.129-2.545,2.514v0.097c1.425,0.111,2.977,1.104,3.057,2.656
		c0.128,1.488-0.864,3.441-3.617,3.745c-1.024,0.112-2.225,0.032-3.233-0.256l-0.096-0.735c1.104,0.191,2.273,0.207,2.961,0.096
		c2.145-0.368,2.385-2.081,2.305-2.754C93.614,108.695,92.109,107.895,90.797,107.927z"/>
	<path fill="#6D6E71" d="M102.302,100.309l-4.482,14.613h-1.264l4.481-14.613H102.302z"/>
	<path fill="#6D6E71" d="M103.196,107.941c0-3.776,1.729-5.825,4.066-5.825c2.417,0,3.874,2.081,3.874,5.666
		c0,3.825-1.505,5.955-4.034,5.938C104.845,113.705,103.196,111.656,103.196,107.941z M109.471,107.848
		c0-2.771-0.705-4.818-2.305-4.818c-1.36,0-2.305,1.856-2.305,4.931c0,2.929,0.88,4.851,2.289,4.851
		C108.734,112.809,109.471,110.729,109.471,107.848z"/>
	<path fill="#6D6E71" d="M119.791,105.35c0,2.098-1.504,3.617-4.129,6.034l-1.057,0.978v0.096h5.442v1.057h-7.475v-0.848
		l1.265-1.104c2.689-2.354,4.29-4.338,4.29-6.035c0-1.072-0.624-2.514-2.337-2.514c-1.136,0-2.145,0.576-2.849,1.186v-1.312
		c0.72-0.353,1.873-0.801,3.121-0.801C118.526,102.084,119.791,103.812,119.791,105.35z"/>
	<path fill="#6D6E71" d="M130.109,108.711v1.217h-4.178v-1.217H130.109z"/>
	<path fill="#6D6E71" d="M135.643,107.941c0-3.776,1.729-5.825,4.066-5.825c2.417,0,3.874,2.081,3.874,5.666
		c0,3.825-1.505,5.955-4.034,5.938C137.292,113.705,135.643,111.656,135.643,107.941z M141.918,107.848
		c0-2.771-0.705-4.818-2.305-4.818c-1.36,0-2.305,1.856-2.305,4.931c0,2.929,0.88,4.851,2.289,4.851
		C141.182,112.809,141.918,110.729,141.918,107.848z"/>
	<path fill="#6D6E71" d="M147.26,107.927c-0.208,0-0.448,0.017-0.704,0.048v-1.104c1.777-0.128,2.913-1.186,3.025-2.289
		c0.096-1.008-0.656-1.568-1.873-1.568c-1.2,0-2,0.512-2.657,1.01v-1.312c0.368-0.177,1.376-0.625,2.929-0.625
		c2.513,0,3.345,1.602,3.233,2.577c-0.144,1.312-1.488,2.129-2.545,2.514v0.097c1.425,0.111,2.977,1.104,3.057,2.656
		c0.128,1.488-0.864,3.441-3.617,3.745c-1.024,0.112-2.225,0.032-3.233-0.256l-0.096-0.735c1.104,0.191,2.273,0.207,2.961,0.096
		c2.145-0.368,2.385-2.081,2.305-2.754C150.077,108.695,148.572,107.895,147.26,107.927z"/>
	<path fill="#6D6E71" d="M158.765,100.309l-4.482,14.613h-1.264l4.481-14.613H158.765z"/>
	<path fill="#6D6E71" d="M159.659,107.941c0-3.776,1.729-5.825,4.066-5.825c2.417,0,3.874,2.081,3.874,5.666
		c0,3.825-1.505,5.955-4.034,5.938C161.308,113.705,159.659,111.656,159.659,107.941z M165.934,107.848
		c0-2.771-0.705-4.818-2.305-4.818c-1.36,0-2.305,1.856-2.305,4.931c0,2.929,0.88,4.851,2.289,4.851
		C165.197,112.809,165.934,110.729,165.934,107.848z"/>
	<path fill="#6D6E71" d="M171.275,107.927c-0.208,0-0.448,0.017-0.704,0.048v-1.104c1.777-0.128,2.913-1.186,3.025-2.289
		c0.096-1.008-0.656-1.568-1.873-1.568c-1.2,0-2,0.512-2.657,1.01v-1.312c0.368-0.177,1.376-0.625,2.929-0.625
		c2.513,0,3.345,1.602,3.233,2.577c-0.144,1.312-1.488,2.129-2.545,2.514v0.097c1.425,0.111,2.977,1.104,3.057,2.656
		c0.128,1.488-0.864,3.441-3.617,3.745c-1.024,0.112-2.225,0.032-3.233-0.256l-0.096-0.735c1.104,0.191,2.273,0.207,2.961,0.096
		c2.145-0.368,2.385-2.081,2.305-2.754C174.093,108.695,172.588,107.895,171.275,107.927z"/>
</g>
<g enable-background="new    ">
	<path d="M306.828,79.235v10.342h-1.72v-9.182c-0.62,1.66-1.761,3.78-2.821,5.121l-0.561-0.46c1.081-1.961,2.521-5.262,3.062-8.542
		h-2.721v-0.9h3.041v-4.562h1.72v4.562h2.521v0.9h-2.521v1.5c0.6,0.54,1.3,1.261,1.899,1.961c0.921-1.12,1.921-2.701,2.602-4.441
		l1.781,0.84c-0.9,1.461-2.581,3.142-3.941,4.161c0.28,0.36,0.521,0.681,0.7,0.98l-1.48,0.94
		C308.028,81.596,307.389,80.315,306.828,79.235z M314.85,84.937c1.28,1.22,2.86,2.061,5.081,2.761l-1.18,2
		c-1.94-0.7-3.561-1.84-4.901-3.521c-1.479,1.601-3.42,2.841-6.08,3.66l-0.28-0.66c2.581-1.18,4.241-2.521,5.48-4.28
		c-0.88-1.421-1.581-3.141-2.141-5.201l0.64-0.32c0.721,1.74,1.42,3.141,2.262,4.281c0.699-1.28,1.239-2.781,1.779-4.541l1.86,0.78
		C316.69,81.815,315.89,83.496,314.85,84.937z M319.451,75.154h-10.482v-0.9h4.921c-0.68-0.94-1.54-2.061-2.319-2.921l0.439-0.58
		c1.16,0.601,2.562,1.541,3.501,2.461l-1.021,1.04h4.961V75.154z M315.31,75.595c1.301,0.64,3.281,1.92,4.661,3.4l-1.439,1.34
		c-1.26-1.72-2.4-3.021-3.602-4.181L315.31,75.595z"/>
	<path d="M338.111,75.635v11.922c0,1.98-1.9,2.741-5.642,0.7l0.181-0.7c3.221,0.66,3.58,0.34,3.58-0.68V76.635h-4.66
		c0.68,2.58,2.061,4.721,4.621,6.642l-1.661,1.82c-1.7-1.621-3.102-4.562-3.48-6.762c-0.6,1.94-2.479,5.181-5.321,6.922
		l-0.439-0.601c2.621-2.221,3.98-5.461,4.541-8.021h-4.661v12.982h-1.84V75.635h6.801c-0.04-0.9-0.12-2.161-0.1-2.901h-4.722v-0.899
		h5.661c0.021,1.359,0.14,2.62,0.36,3.801L338.111,75.635L338.111,75.635z"/>
	<path d="M359.331,87.577l-1.021,2.04c-2.181-0.64-5.802-2.42-7.021-7.102h-2.061v4.161c1.28-0.12,2.48-0.28,3.341-0.42l0.159,0.72
		c-1.8,0.801-5.08,1.601-7.222,1.9l-0.58-1.94c0.74,0,1.642-0.04,2.581-0.1v-4.321h-2.439c-0.381,3.261-1.221,5.461-2.781,7.142
		l-0.58-0.46c1.88-3.301,1.761-7.382,1.761-13.283v-3.94h13.943v3.741h-12.104v1.5c0,1.641-0.04,3.101-0.159,4.4h3.301v-2.58h-2.741
		v-0.9h2.741v-1.96h1.72v1.96h2.781v-1.96h1.72v1.96h3.461v0.9h-3.461v2.58h4.182v0.9h-6.782c0.42,1.101,1.021,1.94,1.681,2.601
		c0.84-0.62,1.78-1.48,2.439-2.341l1.601,1.241c-1.3,0.739-2.521,1.26-3.479,1.6C355.89,86.856,357.791,87.276,359.331,87.577z
		 M345.308,74.814h10.303v-1.94h-10.303V74.814z M350.169,81.615h2.781v-2.58h-2.781V81.615z"/>
</g>
<g enable-background="new    ">
	<path fill="#6D6E71" d="M281.307,107.941c0-3.776,1.729-5.825,4.066-5.825c2.417,0,3.874,2.081,3.874,5.666
		c0,3.825-1.505,5.955-4.034,5.938C282.956,113.705,281.307,111.656,281.307,107.941z M287.582,107.848
		c0-2.771-0.705-4.818-2.305-4.818c-1.36,0-2.305,1.856-2.305,4.931c0,2.929,0.88,4.851,2.289,4.851
		C286.846,112.809,287.582,110.729,287.582,107.848z"/>
	<path fill="#6D6E71" d="M295.373,102.275h1.745v7.14h1.569v1.058h-1.569v3.058h-1.504v-3.058h-5.33v-1.01L295.373,102.275z
		 M295.613,105.51c0-0.593,0.016-1.169,0.063-1.761h-0.096c-0.32,0.672-0.608,1.168-0.96,1.681l-2.833,3.891v0.096h3.826
		L295.613,105.51L295.613,105.51z"/>
	<path fill="#6D6E71" d="M305.149,100.309l-4.482,14.613h-1.264l4.48-14.613H305.149z"/>
	<path fill="#6D6E71" d="M306.042,107.941c0-3.776,1.729-5.825,4.066-5.825c2.417,0,3.874,2.081,3.874,5.666
		c0,3.825-1.506,5.955-4.034,5.938C307.691,113.705,306.042,111.656,306.042,107.941z M312.317,107.848
		c0-2.771-0.705-4.818-2.306-4.818c-1.359,0-2.305,1.856-2.305,4.931c0,2.929,0.88,4.851,2.289,4.851
		C311.581,112.809,312.317,110.729,312.317,107.848z"/>
	<path fill="#6D6E71" d="M317.963,107.639v-0.096c-1.28-0.593-2.113-1.473-2.113-2.609c0-1.761,1.602-2.896,3.635-2.896
		c2.225,0,3.393,1.425,3.393,2.816c0,1.328-0.768,2.002-2.177,2.674v0.096c1.424,0.527,2.577,1.361,2.577,2.834
		c0,2.225-1.457,3.393-3.906,3.377c-2.385-0.016-3.921-1.2-3.921-3.186C315.451,109.127,316.571,108.247,317.963,107.639z
		 M319.372,112.921c1.393,0,2.241-1.071,2.241-2.337c0-1.345-0.832-2.177-2.385-2.562c-1.346,0.354-2.113,1.394-2.113,2.466
		C317.051,111.656,317.916,112.921,319.372,112.921z M321.309,105.014c0-0.896-0.527-2.064-1.937-2.064
		c-1.265,0-1.938,1.057-1.953,2.033c-0.016,1.119,0.752,1.824,2.065,2.177C320.493,106.838,321.309,106.038,321.309,105.014z"/>
	<path fill="#6D6E71" d="M333.18,108.711v1.217h-4.178v-1.217H333.18z"/>
	<path fill="#6D6E71" d="M338.714,107.941c0-3.776,1.729-5.825,4.066-5.825c2.417,0,3.874,2.081,3.874,5.666
		c0,3.825-1.506,5.955-4.034,5.938C340.363,113.705,338.714,111.656,338.714,107.941z M344.988,107.848
		c0-2.771-0.704-4.818-2.306-4.818c-1.359,0-2.305,1.856-2.305,4.931c0,2.929,0.88,4.851,2.289,4.851
		C344.252,112.809,344.988,110.729,344.988,107.848z"/>
	<path fill="#6D6E71" d="M352.78,102.275h1.745v7.14h1.568v1.058h-1.568v3.058h-1.504v-3.058h-5.33v-1.01L352.78,102.275z
		 M353.02,105.51c0-0.593,0.017-1.169,0.064-1.761h-0.096c-0.32,0.672-0.608,1.168-0.96,1.681l-2.833,3.891v0.096h3.826v-3.906
		H353.02z"/>
	<path fill="#6D6E71" d="M362.556,100.309l-4.481,14.613h-1.264l4.48-14.613H362.556z"/>
	<path fill="#6D6E71" d="M366.843,103.301l-2.433,1.072v-1.266l2.913-1.023h1.185v11.461h-1.568v-10.244H366.843z"/>
	<path fill="#6D6E71" d="M376.875,102.275h1.745v7.14h1.569v1.058h-1.569v3.058h-1.504v-3.058h-5.33v-1.01L376.875,102.275z
		 M377.116,105.51c0-0.593,0.016-1.169,0.063-1.761h-0.096c-0.32,0.672-0.608,1.168-0.96,1.681l-2.833,3.891v0.096h3.826
		L377.116,105.51L377.116,105.51z"/>
</g>
<g enable-background="new    ">
	<path d="M483.548,83.876v5.682h-1.76v-5.142c-0.74,1.141-1.9,2.521-3.742,3.761l-0.439-0.56c1.42-1.2,3.041-3.562,3.762-5.422
		h-3.201v-0.859h3.621v-1.961h1.76v1.961h3.361v0.859h-3.361v0.641c0.98,0.6,2.201,1.4,3.221,2.5l-1.279,1.241
		C484.849,85.557,484.167,84.696,483.548,83.876z M487.25,78.975h-9.361v-0.899h2.619c-0.34-0.98-0.84-2.261-1.26-3.121l0.6-0.4
		c0.781,0.74,1.74,1.98,2.264,2.921l-1.162,0.601h2.342c0.379-1.12,0.68-2.601,0.799-3.562l1.801,0.58
		c-0.459,0.961-1.16,2.141-1.82,2.981h3.182v0.899H487.25z M486.769,74.414h-8.582v-0.88h4.182c-0.701-0.761-1.441-1.48-2.221-2.161
		l0.359-0.6c1.041,0.36,2.26,0.92,3.342,1.681l-0.82,1.08h3.74V74.414z M495.55,78.475h-2.061v11.003h-1.762V78.475h-2.279v0.801
		c0,5.161-1.039,8.382-3.521,10.502l-0.541-0.48c1.9-2.34,2.264-5.141,2.264-9.361v-7.402l1.658,0.44c1.541-0.44,2.781-1.061,4.08-2
		l1.723,1.46c-1.803,0.641-3.66,1.08-5.662,1.261v3.881h6.102V78.475z"/>
	<path d="M515.011,78.715v1.301h-16.664v-1.301H515.011z"/>
	<path d="M522.628,75.994v13.563h-1.801V78.575c-0.801,0.979-1.701,1.92-2.701,2.78l-0.48-0.58c2.121-2.421,4.002-5.741,5.162-9.922
		l1.98,0.66C524.25,72.974,523.548,74.514,522.628,75.994z M534.63,83.356c1.68,4.78,0.621,7.121-2.541,5.541
		c-2.16-1.08-3.84-3.861-4.58-10.303c-1.32,0.2-2.66,0.4-3.98,0.58l-0.18-1.12c1.34-0.18,2.699-0.38,4.061-0.58
		c-0.18-1.88-0.26-3.94-0.34-6.121h1.84c0.08,2.221,0.18,4.201,0.32,5.841c2.039-0.3,4.102-0.64,6.16-1l0.16,1.101
		c-2.061,0.359-4.141,0.7-6.221,1.02c0.461,4.102,1.541,7.562,3.361,8.562c1.379,0.76,1.277-0.74,1.197-3.521H534.63z
		 M532.832,75.854c-0.842-1.32-1.82-2.581-2.762-3.781l0.461-0.561c1.34,0.78,2.58,1.7,3.84,2.92L532.832,75.854z"/>
	<path d="M545.769,75.454h-7.963v-0.9h3.643c-0.561-1.18-1.301-2.521-1.74-3.28l0.539-0.46c0.9,0.7,2.141,2.021,2.842,3.08l-1,0.66
		h3.699L545.769,75.454z M544.689,77.395v0.78h-6.062v-0.78H544.689z M544.689,80.936h-6.062v-0.78h6.062V80.936z M544.808,88.057
		h-4.4v1.36h-1.721v-6.461h6.121V88.057L544.808,88.057z M543.128,83.836h-2.721v3.341h2.721V83.836z M554.71,89.518
		c-1.24-0.32-3.18-1.16-4.881-2.781c-1.42,1.261-3.182,2.301-5.4,3.001l-0.301-0.66c2.061-0.9,3.621-2.08,4.762-3.36
		c-1.021-1.24-1.881-2.821-2.342-4.802h-1.199v-0.899h6.08l0.5-0.341l1.842,0.761c-0.58,1.82-1.5,3.601-2.82,5.161
		c1.82,1.16,3.779,1.58,4.881,1.82L554.71,89.518z M546.628,73.974v-1.76h5.541v4.041c0,0.62,0.102,0.88,0.82,0.88
		c0.619,0,0.979-0.061,1.5-0.561l0.762,1.381c-0.5,0.52-1.342,0.78-2.562,0.78c-1.84,0-2.279-0.5-2.279-2.201v-3.42h-1.98v0.92
		c0,3.301-1.16,4.541-3.521,5.641l-0.359-0.62C546.25,77.734,546.628,77.215,546.628,73.974z M549.73,84.656
		c0.9-1.26,1.439-2.58,1.74-3.741h-4.162C547.849,82.536,548.708,83.756,549.73,84.656z"/>
	<path d="M566.429,75.635h-8.723v-0.9h4.262c-0.701-1.16-1.641-2.601-2.182-3.321l0.5-0.52c1.002,0.62,2.301,1.64,3.342,2.721
		l-1.281,1.12h4.082V75.635z M558.568,80.235h6.721v0.84h-6.721V80.235z M558.587,77.515h6.721v0.86h-6.721V77.515z M558.587,83.116
		h6.701v6.141h-1.643v-1.14h-3.34v1.4h-1.721v-6.401H558.587z M560.308,87.197h3.34v-3.181h-3.34V87.197z M575.55,77.555v0.9h-3.801
		v11.103h-1.84V78.455h-3.781v-0.9h3.781v-6.521h1.84v6.521L575.55,77.555L575.55,77.555z"/>
	<path d="M595.332,87.577l-1.021,2.04c-2.18-0.64-5.801-2.42-7.02-7.102h-2.061v4.161c1.279-0.12,2.48-0.28,3.342-0.42l0.158,0.72
		c-1.801,0.801-5.082,1.601-7.223,1.9l-0.58-1.94c0.74,0,1.641-0.04,2.582-0.1v-4.321h-2.441c-0.379,3.261-1.221,5.461-2.779,7.142
		l-0.58-0.46c1.881-3.301,1.762-7.382,1.762-13.283v-3.94h13.941v3.741h-12.104v1.5c0,1.641-0.039,3.101-0.16,4.4h3.303v-2.58h-2.74
		v-0.9h2.74v-1.96h1.721v1.96h2.779v-1.96h1.721v1.96h3.461v0.9h-3.461v2.58h4.182v0.9h-6.781c0.42,1.101,1.02,1.94,1.68,2.601
		c0.84-0.62,1.781-1.48,2.441-2.341l1.6,1.241c-1.301,0.739-2.521,1.26-3.48,1.6C591.89,86.856,593.791,87.276,595.332,87.577z
		 M581.308,74.814h10.303v-1.94h-10.303V74.814z M586.169,81.615h2.779v-2.58h-2.779V81.615z"/>
</g>
<g enable-background="new    ">
	<path fill="#6D6E71" d="M488.187,107.941c0-3.776,1.73-5.825,4.066-5.825c2.418,0,3.873,2.081,3.873,5.666
		c0,3.825-1.504,5.955-4.033,5.938C489.837,113.705,488.187,111.656,488.187,107.941z M494.462,107.848
		c0-2.771-0.705-4.818-2.305-4.818c-1.361,0-2.307,1.856-2.307,4.931c0,2.929,0.881,4.851,2.289,4.851
		C493.726,112.809,494.462,110.729,494.462,107.848z"/>
	<path fill="#6D6E71" d="M497.595,113.577l-0.111-0.736c3.537,0.192,5.09-0.575,5.186-2.978c0.08-1.922-0.863-2.465-1.84-2.465
		c-0.992,0-1.617,0.287-1.92,0.672l-1.074-0.176l0.209-5.604h5.762v1.057h-4.385l-0.129,3.569l0.064,0.063
		c0.305-0.176,0.992-0.561,1.809-0.543c1.664,0.016,3.17,1.136,3.17,3.201C504.335,113.018,501.726,113.993,497.595,113.577z"/>
	<path fill="#6D6E71" d="M511.199,100.309l-4.482,14.613h-1.264l4.48-14.613H511.199z"/>
	<path fill="#6D6E71" d="M515.486,103.301l-2.434,1.072v-1.266l2.912-1.023h1.186v11.461h-1.568v-10.244H515.486z"/>
	<path fill="#6D6E71" d="M526.669,108.167l-0.08-0.032c-0.305,0.576-1.152,1.408-2.369,1.408c-2.064,0-3.473-1.536-3.473-3.457
		c0-2.129,1.6-4.002,3.938-4.002c2.336,0,3.666,1.729,3.666,4.594c0,4.45-2.434,6.627-6.596,7.027l-0.145-0.736
		C524.99,112.376,526.382,110.536,526.669,108.167z M526.605,106.95c0.064-0.16,0.129-0.562,0.129-0.8
		c0-1.586-0.545-3.153-2.16-3.153c-1.377,0-2.162,1.408-2.162,2.993c0,1.393,0.85,2.4,2.178,2.4
		C525.55,108.391,526.189,107.91,526.605,106.95z"/>
	<path fill="#6D6E71" d="M538.46,108.711v1.217h-4.178v-1.217H538.46z"/>
	<path fill="#6D6E71" d="M543.996,107.941c0-3.776,1.729-5.825,4.064-5.825c2.418,0,3.875,2.081,3.875,5.666
		c0,3.825-1.506,5.955-4.033,5.938C545.644,113.705,543.996,111.656,543.996,107.941z M550.269,107.848
		c0-2.771-0.703-4.818-2.305-4.818c-1.359,0-2.305,1.856-2.305,4.931c0,2.929,0.881,4.851,2.289,4.851
		C549.535,112.809,550.269,110.729,550.269,107.848z"/>
	<path fill="#6D6E71" d="M553.404,113.577l-0.113-0.736c3.539,0.192,5.092-0.575,5.188-2.978c0.08-1.922-0.863-2.465-1.842-2.465
		c-0.992,0-1.615,0.287-1.92,0.672l-1.072-0.176l0.207-5.604h5.764v1.057h-4.387l-0.129,3.569l0.064,0.063
		c0.305-0.176,0.992-0.561,1.809-0.543c1.666,0.016,3.17,1.136,3.17,3.201C560.142,113.018,557.533,113.993,553.404,113.577z"/>
	<path fill="#6D6E71" d="M567.005,100.309l-4.482,14.613h-1.264l4.48-14.613H567.005z"/>
	<path fill="#6D6E71" d="M575.279,105.35c0,2.098-1.506,3.617-4.131,6.034l-1.057,0.978v0.096h5.443v1.057h-7.477v-0.848
		l1.266-1.104c2.688-2.354,4.289-4.338,4.289-6.035c0-1.072-0.623-2.514-2.336-2.514c-1.139,0-2.146,0.576-2.852,1.186v-1.312
		c0.721-0.353,1.873-0.801,3.121-0.801C574.013,102.084,575.279,103.812,575.279,105.35z"/>
	<path fill="#6D6E71" d="M584.542,105.35c0,2.098-1.506,3.617-4.131,6.034l-1.057,0.978v0.096h5.443v1.057h-7.477v-0.848
		l1.266-1.104c2.689-2.354,4.289-4.338,4.289-6.035c0-1.072-0.623-2.514-2.336-2.514c-1.137,0-2.146,0.576-2.852,1.186v-1.312
		c0.723-0.353,1.873-0.801,3.121-0.801C583.277,102.084,584.542,103.812,584.542,105.35z"/>
</g>
<g enable-background="new    ">
	<path d="M702.283,87.977v0.9h-17.684v-0.9h7.922v-1.24h-5.66v-0.84h5.66v-1.24h1.721v1.24h5.842v0.84h-5.842v1.24H702.283z
		 M686.939,82.275h-1.68v-3.24h16.303v3.24h-1.68v-2.34h-12.943V82.275z M692.541,73.233h-7.221v-0.899h7.221v-1.381h1.721v1.381
		h7.281v0.899h-7.281v0.98h5.701v0.841H686.88v-0.841h5.66V73.233L692.541,73.233z M689.781,83.336
		c0.479-0.58,0.84-1.101,1.16-1.761h-3.16v-0.8h11.223v0.8H692.8c-0.6,0.66-1.398,1.28-2.119,1.761c2.1-0.02,4.561-0.1,6.4-0.24
		c-0.24-0.28-0.48-0.54-0.74-0.8l0.381-0.48c1.1,0.54,2.18,1.261,3.221,2.24l-1.221,1.161c-0.34-0.48-0.74-1.021-1.141-1.541
		c-3.221,0.66-8.482,1.101-10.082,1.141l-0.32-1.54C687.82,83.316,688.72,83.336,689.781,83.336z M687.621,78.275v-2.441h11.682
		v2.441H687.621z M689.259,77.515h8.303v-0.92h-8.303V77.515z"/>
	<path d="M707.66,82.076v1.479h-1.84v-8.802h6.602v-3.801h1.92v3.801h6.662v8.682h-1.842v-1.359h-4.82v7.581h-1.92v-7.581H707.66
		L707.66,82.076z M712.421,75.754h-4.762v5.361h4.762V75.754z M719.162,75.754h-4.82v5.361h4.82V75.754z"/>
	<path d="M732.56,83.376h-5.461l-1.479,4.501h-1.961l5.182-14.684h2.34l5.24,14.684h-2.4L732.56,83.376z M729.839,75.034h-0.119
		c-0.24,0.82-0.52,1.66-0.82,2.48l-1.4,4.661h4.662l-1.641-4.921C730.259,76.515,730.021,75.774,729.839,75.034z"/>
</g>
<g enable-background="new    ">
	<path d="M741.39,77.253h-1.678v1.726h-0.805v-1.726h-1.726v-0.804h1.726v-1.679h0.805v1.679h1.678V77.253z"/>
</g>
<g enable-background="new    ">
	<path d="M749.298,72.934c-0.34,0.54-0.739,1.061-1.16,1.561c0.801,0.54,1.581,1.221,2.301,2.021l-1.061,0.9h3.381v5.381h-6.16
		c-0.061,0.54-0.141,1.04-0.24,1.521h6.721v5.161h-1.721v-1.021h-3.881v1.12h-1.6v-3.581c-0.58,1.601-1.44,2.781-2.48,3.642
		l-0.521-0.5c1.7-2.181,2.101-4.441,2.101-9.543v-2.24c-0.54,0.4-1.1,0.74-1.66,1.061l-0.42-0.561c2.2-1.84,4.381-4.421,5.24-7.041
		l1.98,0.62c-0.119,0.26-0.239,0.5-0.379,0.76c1.619,0.94,3.221,2.121,3.98,2.94l-1.32,1.341
		C751.64,75.414,750.48,74.094,749.298,72.934z M747.539,75.174c-0.68,0.7-1.44,1.36-2.24,1.961l1.301,0.28h2.34
		C748.5,76.654,747.999,75.854,747.539,75.174z M751.08,81.916v-1.36h-4.342c0,0.479-0.02,0.92-0.059,1.36H751.08z M751.08,78.314
		h-4.361l0.02,1.341h4.342V78.314z M747.478,85.217v2.42h3.881v-2.42H747.478z M759.742,71.073v16.304
		c0,2.521-2.001,2.98-5.361,0.82l0.24-0.681c2.68,0.641,3.34,0.761,3.34-0.52V71.073H759.742z M756.261,84.937h-1.641V73.154h1.641
		V84.937z"/>
	<path d="M765.779,84.216l0.72,0.181c-0.22,1.96-1.021,3.74-2.081,4.761l-1.52-1.48C764.318,86.816,765.199,85.977,765.779,84.216z
		 M780.441,77.335h-17.003v-0.9h5.021c-0.58-0.94-1.14-1.681-1.58-2.32l0.12-0.141h-2.521v-0.899h7.302
		c-0.96-0.58-1.9-1.121-2.901-1.661l0.201-0.68c1.14,0.18,2.74,0.54,4.301,1.2l-0.641,1.141h6.401v0.899H775.5l1,0.44
		c-0.58,0.76-1.16,1.44-1.8,2.021h5.74V77.335z M777.501,83.256h-11.523v-4.861h11.523V83.256z M776.3,84.876
		c0.9,2.661,0.78,3.981-1.359,4.142c-1.261,0.1-2.922,0.14-4.361,0.06c-2-0.12-3.102-0.38-3.102-2v-3.181h1.801v2.32
		c0,0.94,0.26,1.26,1.44,1.3c1.54,0.061,2.921,0.04,3.86-0.06c0.9-0.101,1.081-0.32,1.001-2.561L776.3,84.876z M775.74,79.235
		h-8.001v1.16h8.001V79.235z M775.74,81.195h-8.001v1.221h8.001V81.195z M770.299,75.935l-0.66,0.5h3.881
		c0.44-0.78,0.761-1.54,1.04-2.461h-6.562C768.839,74.514,769.74,75.234,770.299,75.935z M770.559,84.116l0.341-0.601
		c1.06,0.4,2.38,1.041,3.42,1.801l-1.08,1.4C772.36,85.776,771.299,84.796,770.559,84.116z M780.861,87.276l-1.56,1.161
		c-0.7-1.461-1.32-2.641-2.2-3.941l0.539-0.46C778.721,84.816,779.982,85.996,780.861,87.276z"/>
	<path d="M783.097,81.216l-0.26-0.641c2.9-1.16,4.861-2.721,6.342-4.701h-5.481v-0.899h7.321v-1.501
		c-2.34,0.141-4.641,0.181-6.261,0.141l-0.12-0.7c5.941-0.221,9.723-0.921,12.502-2.021l1.581,1.48
		c-1.36,0.439-3.581,0.76-5.941,0.96v1.641h7.362v0.899h-6.502c2.42,2.121,4.941,2.741,7.342,3.161l-1,1.801
		c-1.961-0.421-5.102-1.98-7.202-4.802v3.521h-1.761v-3.46C789.5,78.375,786.638,80.155,783.097,81.216z M793.12,83.836h7.522v0.9
		h-7.522v2.78c0,2.061-1.64,3.421-5.341,0.54l0.279-0.68c2.801,0.9,3.301,0.7,3.301-0.38v-2.261h-8.001v-0.9h8.001v-1.521
		l1.501,0.341c0.66-0.48,1.3-1.081,1.8-1.701h-8.241v-0.899h8.542l0.48-0.261l1.859,1.32c-1,0.881-3,1.78-4.181,2.221V83.836z"/>
</g>
<g enable-background="new    ">
	<path fill="#6D6E71" d="M694.396,107.941c0-3.776,1.73-5.825,4.066-5.825c2.418,0,3.873,2.081,3.873,5.666
		c0,3.825-1.504,5.955-4.033,5.938C696.046,113.705,694.396,111.656,694.396,107.941z M700.671,107.848
		c0-2.771-0.705-4.818-2.305-4.818c-1.361,0-2.307,1.856-2.307,4.931c0,2.929,0.881,4.851,2.289,4.851
		C699.935,112.809,700.671,110.729,700.671,107.848z"/>
	<path fill="#6D6E71" d="M703.804,113.577l-0.111-0.736c3.537,0.192,5.09-0.575,5.186-2.978c0.08-1.922-0.863-2.465-1.84-2.465
		c-0.992,0-1.617,0.287-1.92,0.672l-1.074-0.176l0.209-5.604h5.762v1.057h-4.385l-0.129,3.569l0.064,0.063
		c0.305-0.176,0.992-0.561,1.809-0.543c1.664,0.016,3.17,1.136,3.17,3.201C710.544,113.018,707.935,113.993,703.804,113.577z"/>
	<path fill="#6D6E71" d="M717.408,100.309l-4.482,14.613h-1.264l4.48-14.613H717.408z"/>
	<path fill="#6D6E71" d="M725.679,105.35c0,2.098-1.504,3.617-4.129,6.034l-1.057,0.978v0.096h5.441v1.057h-7.477v-0.848
		l1.266-1.104c2.689-2.354,4.289-4.338,4.289-6.035c0-1.072-0.623-2.514-2.336-2.514c-1.137,0-2.146,0.576-2.85,1.186v-1.312
		c0.721-0.353,1.873-0.801,3.121-0.801C724.416,102.084,725.679,103.812,725.679,105.35z"/>
	<path fill="#6D6E71" d="M731.806,113.816c-2.816,0-3.922-2.32-3.922-5.17c0-4.002,2.385-6.211,6.627-6.61l0.113,0.753
		c-3.314,0.416-5.283,2.32-5.268,5.201l0.08,0.017c0.385-0.864,1.328-1.841,2.785-1.825c2.127,0.018,3.395,1.745,3.395,3.649
		C735.617,111.912,734.576,113.816,731.806,113.816z M731.871,107.175c-1.184,0-2.256,1.104-2.256,2.753
		c0,1.872,0.912,2.978,2.256,2.978c1.232,0,2.082-1.024,2.082-2.929C733.953,107.975,733.054,107.175,731.871,107.175z"/>
	<path fill="#6D6E71" d="M745.646,108.711v1.217h-4.178v-1.217H745.646z"/>
	<path fill="#6D6E71" d="M751.179,107.941c0-3.776,1.73-5.825,4.066-5.825c2.418,0,3.873,2.081,3.873,5.666
		c0,3.825-1.504,5.955-4.033,5.938C752.83,113.705,751.179,111.656,751.179,107.941z M757.455,107.848
		c0-2.771-0.703-4.818-2.305-4.818c-1.359,0-2.305,1.856-2.305,4.931c0,2.929,0.879,4.851,2.289,4.851
		C756.718,112.809,757.455,110.729,757.455,107.848z"/>
	<path fill="#6D6E71" d="M760.587,113.577l-0.111-0.736c3.537,0.192,5.09-0.575,5.186-2.978c0.08-1.922-0.863-2.465-1.84-2.465
		c-0.992,0-1.617,0.287-1.922,0.672l-1.072-0.176l0.209-5.604h5.762v1.057h-4.385l-0.129,3.569l0.064,0.063
		c0.305-0.176,0.992-0.561,1.809-0.543c1.664,0.016,3.17,1.136,3.17,3.201C767.328,113.018,764.718,113.993,760.587,113.577z"/>
	<path fill="#6D6E71" d="M774.191,100.309l-4.482,14.613h-1.264l4.48-14.613H774.191z"/>
	<path fill="#6D6E71" d="M777.486,107.927c-0.209,0-0.449,0.017-0.705,0.048v-1.104c1.777-0.128,2.914-1.186,3.025-2.289
		c0.096-1.008-0.656-1.568-1.873-1.568c-1.199,0-2,0.512-2.656,1.01v-1.312c0.367-0.177,1.377-0.625,2.93-0.625
		c2.512,0,3.344,1.602,3.232,2.577c-0.145,1.312-1.488,2.129-2.545,2.514v0.097c1.424,0.111,2.977,1.104,3.057,2.656
		c0.129,1.488-0.863,3.441-3.617,3.745c-1.023,0.112-2.225,0.032-3.232-0.256l-0.098-0.735c1.105,0.191,2.273,0.207,2.963,0.096
		c2.146-0.368,2.385-2.081,2.305-2.754C780.302,108.695,778.798,107.895,777.486,107.927z"/>
	<path fill="#6D6E71" d="M787.039,103.301l-2.434,1.072v-1.266l2.912-1.023h1.186v11.461h-1.568v-10.244H787.039z"/>
</g>
</svg>
