<?xml version="1.0" encoding="utf-8"?>
<!-- Generator: Adobe Illustrator 16.0.0, SVG Export Plug-In . SVG Version: 6.00 Build 0)  -->
<!DOCTYPE svg PUBLIC "-//W3C//DTD SVG 1.1//EN" "http://www.w3.org/Graphics/SVG/1.1/DTD/svg11.dtd">
<svg version="1.1" id="圖層_1" xmlns="http://www.w3.org/2000/svg" xmlns:xlink="http://www.w3.org/1999/xlink" x="0px" y="0px"
	 width="140.296px" height="197.88px" viewBox="99.93 70.719 140.296 197.88" enable-background="new 99.93 70.719 140.296 197.88"
	 xml:space="preserve">
<g>
	<g>
		<path fill="#FBAE24" d="M172.254,120.39l14.605,4.204l6.936,8.392l0.004,9.247l-5.999,8.402l-8.685,1.474l-11.8-0.001
			l-12.385,5.781l-6.721,6.403l-4.408,15.81l2.938,13.244l5.673,7.703l7.265,4.412l11.124-0.388l7.469-4.728l5.566-9.01l3.963-2.649
			l7.04-0.027l2.808,8.306l-2.174,12.278l-7.676,7.771l-8.677,6.307l-15.864,3.563l-12.315-1.678l-10.5-6.723l-8.405-10.289
			l-4.62-9.445l-3.146-8.623l1.258-18.271l2.73-11.976l3.993-11.132l6.93-9.658l7.56-7.565l8.406-5.672
			C155.144,125.851,168.594,119.338,172.254,120.39z"/>
		<path fill="#BDBD39" d="M159.682,194.15c0,0,0.153,7.142,2.526,9.346c2.356,2.209,8.592,1.578,8.592,1.578l7.468-4.73l4.885-6.992
			l2.992-4.663l4.252,0.001l3.78-0.005l1.262,2.655l2.207,4.71l0.001,5.871l-2.517,6.145l-3.313,6.455l-0.161,4.1l2.995,6.775
			l6.615,5.513l10.399-0.005l4.252-4.723l0.001-4.887l-3.468-5.826l-3.466-3.934l-1.889-6.463l-0.475-13.733l-2.36-11.312
			l-6.933-9.456l-8.67-1.414h-7.084l-8.354,3.621l-7.244,6.616l-5.038,7.246L159.682,194.15z"/>
		<path d="M159.023,203.285c-0.216-1.096-0.429-1.914-0.536-2.753c-0.132-0.932-0.204-1.874-0.261-2.808
			c-0.06-0.946-0.092-1.9-0.084-2.848c0.024-1.91,0.385-3.752,1.023-5.564c0.504-1.46,0.693-3.025,1.256-4.459
			c0.446-1.14,1.153-2.213,1.883-3.217c1.689-2.339,3.645-4.459,5.743-6.443c0.456-0.431,0.94-0.847,1.464-1.205
			c1.396-0.962,2.258-2.64,4.094-3.038c0.439-0.088,0.81-0.481,1.231-0.687c1.534-0.759,3.094-1.498,4.642-2.242
			c0.086-0.038,0.16-0.078,0.239-0.096c1.048-0.213,2.092-0.436,3.135-0.645c2.423-0.493,4.815-0.279,7.201,0.256
			c0.581,0.133,1.19,0.137,1.786,0.24c0.633,0.113,1.279,0.188,1.884,0.392c1.389,0.46,2.779,0.912,4.112,1.495
			c2.404,1.059,4.881,2.055,6.094,4.689c0.597,1.291,1.145,2.61,1.861,3.827c0.658,1.103,1.085,2.234,1.234,3.487
			c0.029,0.249,0.142,0.518,0.303,0.713c0.884,1.122,0.934,2.437,0.986,3.781c0.084,1.934,0.291,3.875,0.367,5.816
			c0.07,1.725,0.057,3.463,0.055,5.187c-0.01,1.208-0.182,2.419-0.061,3.615c0.136,1.443,0.487,2.863,0.757,4.293
			c0.183,0.964,0.173,1.937,0.499,2.897c0.516,1.537,0.8,3.074,1.963,4.394c0.952,1.089,2.141,1.991,2.955,3.218
			c0.14,0.211,0.436,0.365,0.479,0.593c0.263,1.358,1.305,2.209,2.064,3.233c0.335,0.449,0.482,0.881,0.468,1.426
			c-0.062,1.635-0.076,3.263-0.129,4.906c-0.017,0.197-0.132,0.393-0.215,0.584c-0.124,0.271-0.373,0.547-0.369,0.809
			c0.036,1.967-1.506,2.719-2.775,3.623c-1.962,1.406-4.323,1.906-6.526,2.748c-0.077,0.029-0.163,0.051-0.25,0.056
			c-3.175-0.065-6.437,0.257-9.084-2.079c-0.841-0.748-1.663-1.498-2.506-2.248c-0.121-0.117-0.23-0.272-0.379-0.359
			c-2.021-1.104-2.82-3.139-3.824-5.027c-0.948-1.771-1.843-3.576-2.816-5.48c-0.377,0.232-0.615,0.371-0.841,0.527
			c-0.068,0.039-0.081,0.17-0.148,0.205c-1.31,0.688-2.18,1.91-3.374,2.738c-1.065,0.742-2.163,1.365-3.409,1.82
			c-0.947,0.332-1.776,0.992-2.67,1.498c-1.049,0.588-2.051,1.283-3.271,1.486c-0.25,0.039-0.547,0.117-0.72,0.279
			c-0.92,0.881-2.135,0.773-3.233,1.028c-0.243,0.058-0.499,0.138-0.748,0.177c-0.806,0.129-1.607,0.289-2.406,0.357
			c-2.414,0.236-4.81,0.438-7.213,0.662c-0.216,0.014-0.436,0.086-0.644,0.057c-1.961-0.271-3.982,0.029-5.911-0.594
			c-1.145-0.373-2.277-0.791-3.373-1.277c-1.053-0.469-2.24-0.73-3.011-1.712c-0.081-0.118-0.302-0.136-0.475-0.181
			c-2.905-0.861-5.435-2.428-7.681-4.414c-1.02-0.914-1.84-2.063-2.657-3.172c-0.869-1.173-1.581-2.465-2.45-3.64
			c-0.863-1.167-1.843-2.259-2.789-3.373c-0.162-0.198-0.335-0.419-0.555-0.528c-1.063-0.545-1.537-1.611-2.146-2.506
			c-0.618-0.908-0.946-2.013-1.407-3.035c-0.138-0.313-0.213-0.701-0.444-0.932c-0.681-0.671-0.763-1.532-0.736-2.37
			c0.015-0.554-0.139-0.894-0.509-1.246c-0.312-0.285-0.623-0.607-0.812-0.974c-1.064-1.95-1.857-3.979-2.043-6.227
			c-0.118-1.42-0.479-2.815-0.668-4.23c-0.15-1.188-0.273-2.404-0.297-3.603c-0.033-2.483-0.115-4.98,0.043-7.455
			c0.103-1.664,0.611-3.3,0.89-4.957c0.24-1.4,0.477-2.803,0.564-4.218c0.078-1.266,0.273-2.467,0.723-3.656
			c0.374-0.957,0.498-1.995,0.759-2.988c0.428-1.619,0.686-3.278,1.488-4.789c0.652-1.258,1.15-2.584,1.744-3.867
			c0.845-1.837,1.688-3.674,2.571-5.487c0.552-1.112,1.165-2.196,1.763-3.283c0.951-1.757,2.217-3.247,3.683-4.593
			c0.364-0.341,0.571-0.855,0.906-1.246c1.137-1.288,2.283-2.575,3.471-3.825c0.407-0.43,0.98-0.717,1.401-1.148
			c0.836-0.845,1.67-1.715,2.418-2.646c0.902-1.132,2.033-1.939,3.254-2.675c0.839-0.504,1.554-1.224,2.389-1.729
			c1.755-1.06,3.383-2.35,5.392-2.944c0.271-0.081,0.482-0.344,0.755-0.46c0.49-0.232,1-0.436,1.503-0.636
			c0.278-0.111,0.6-0.141,0.849-0.297c2.4-1.408,4.985-2.264,7.755-2.59c0.725-0.087,1.423-0.379,2.147-0.481
			c2.428-0.357,4.853-0.356,7.259,0.253c1.218,0.302,2.447,0.495,3.646,0.828c1.119,0.313,2.235,0.653,3.299,1.123
			c0.979,0.43,1.979,0.726,3.014,1.014c1.379,0.381,2.685,1.152,3.902,1.942c2.319,1.504,3.883,3.76,5.463,5.973
			c0.309,0.452,0.48,1.008,0.669,1.535c0.295,0.803,0.515,1.648,0.848,2.441c0.357,0.871,0.511,1.652,0.224,2.621
			c-0.267,0.877-0.198,1.862-0.221,2.804c-0.073,3.001-1.404,5.537-2.909,8.014c-0.146,0.249-0.394,0.52-0.647,0.61
			c-1.419,0.47-2.632,1.271-3.731,2.258c-0.948,0.852-2.173,1.181-3.253,1.779c-1.74,0.96-3.552,1.057-5.479,0.956
			c-2.062-0.123-4.14,0.008-6.218,0.017c-0.512,0.004-1.016-0.054-1.52-0.054c-3.124,0.04-6.153,0.694-9.195,1.267
			c-0.412,0.078-0.792,0.319-1.195,0.469c-0.886,0.32-1.82,0.548-2.678,0.95c-1.002,0.476-1.98,1.042-2.896,1.664
			c-1.661,1.142-3.281,2.315-4.707,3.783c-1.21,1.248-2.044,2.678-3.011,4.077c-1.059,1.554-1.75,3.23-2.499,4.917
			c-0.1,0.241-0.22,0.479-0.257,0.72c-0.369,2.806-0.933,5.566-1.104,8.423c-0.201,3.558,0.598,6.813,1.787,10.066
			c0.101,0.279,0.214,0.562,0.247,0.859c0.087,0.653,0.184,1.267,0.843,1.652c0.195,0.11,0.326,0.403,0.41,0.639
			c0.502,1.491,1.438,2.733,2.312,4.009c0.702,1.018,1.438,2.006,2.233,2.97C154.891,201.559,156.984,202.102,159.023,203.285z
			 M125.885,186.48c0.063,0.961,0.121,2.156,0.224,3.355c0.088,1.029,0.177,2.06,0.34,3.08c0.138,0.894,0.349,1.782,0.566,2.655
			c0.161,0.614,0.418,1.204,0.565,1.822c0.128,0.514,0.19,1.079,0.758,1.269c0.666,0.237,0.892,0.767,1.107,1.336
			c0.329,0.91,0.663,1.817,1.05,2.706c0.198,0.463,0.49,0.901,0.774,1.317c0.82,1.159,1.644,2.313,2.501,3.446
			c0.621,0.82,1.307,1.596,1.951,2.395c0.285,0.375,0.528,0.789,0.825,1.158c0.826,1.035,1.749,2.01,2.486,3.104
			c0.962,1.453,1.926,2.859,3.091,4.146c0.373,0.413,0.789,0.838,1.276,1.082c1.554,0.818,2.907,1.941,4.611,2.576
			c1.995,0.742,3.796,1.998,5.722,2.941c0.875,0.426,1.846,0.801,2.799,0.889c1.802,0.166,3.614,0.159,5.419,0.133
			c1.25-0.03,2.493-0.265,3.741-0.32c2.658-0.115,5.234-0.613,7.762-1.414c0.934-0.295,1.813-0.777,2.687-1.242
			c0.984-0.523,1.865-1.32,2.901-1.64c2.056-0.655,3.628-1.953,5.188-3.31c0.909-0.793,1.725-1.717,2.729-2.348
			c2.611-1.607,5-3.359,6.125-6.383c0.717-1.936,1.599-3.816,2.253-5.769c1.202-3.601,0.982-7.189-0.313-10.742
			c-0.459-1.27-1.354-2.188-2.513-2.583c-1.546-0.53-3.221-0.452-4.851-0.146c-0.722,0.135-1.213,0.558-1.69,1.113
			c-0.924,1.107-1.725,2.261-2.028,3.701c-1.776,1.97-2.695,4.591-4.798,6.314c-0.663,0.537-1.168,1.262-1.827,1.806
			c-0.796,0.649-1.621,1.319-2.527,1.766c-0.914,0.449-1.521,1.275-2.502,1.678c-0.924,0.377-1.824,0.902-2.8,0.898
			c-1.159,0.02-2.301,0.164-3.448,0.226c-1.83,0.117-3.697,0.151-5.512-0.302c-1.206-0.303-2.453-0.478-3.622-0.868
			c-1.371-0.456-2.706-1.033-3.799-2.056c-0.215-0.203-0.494-0.347-0.748-0.511c-1.184-0.788-2.339-1.59-3.111-2.821
			c-0.226-0.363-0.386-0.789-0.683-1.084c-1.661-1.646-2.643-3.716-3.627-5.778c-0.112-0.232-0.217-0.477-0.318-0.702
			c-0.689-1.672-1.546-3.297-2.035-5.023c-0.854-3.037-1.232-6.174-1.15-9.342c0.02-0.639,0.15-1.271,0.197-1.912
			c0.142-2.231,0.36-4.438,1.406-6.477c0.151-0.3,0.209-0.651,0.301-0.991c0.686-2.602,1.812-4.993,3.281-7.244
			c1.279-1.961,2.716-3.753,4.722-5.029c1.161-0.744,2.215-1.705,3.431-2.318c3.249-1.614,6.591-3.001,10.165-3.754
			c0.796-0.166,1.616-0.212,2.428-0.303c1.018-0.113,2.024-0.401,3.066-0.126c0.142,0.04,0.32-0.106,0.488-0.141
			c0.373-0.064,0.747-0.164,1.13-0.165c1.944-0.028,3.878-0.047,5.822-0.036c0.902,0.015,1.807,0.188,2.703,0.154
			c1.156-0.042,2.436,0.064,3.439-0.383c2.278-1.009,4.434-2.337,6.295-4.017c0.544-0.482,0.916-1.258,1.139-1.971
			c0.369-1.187,0.523-2.434,0.814-3.653c0.387-1.675,0.261-3.36-0.131-4.98c-0.371-1.52-1.036-2.923-1.903-4.293
			c-1.379-2.195-3.098-3.895-5.33-5.132c-0.439-0.255-0.868-0.566-1.333-0.759c-1.219-0.495-2.481-0.896-3.689-1.432
			c-1.875-0.823-3.816-1.361-5.849-1.539c-1.808-0.15-3.614-0.11-5.43,0.04c-2.812,0.229-5.329,1.323-7.94,2.159
			c-0.591,0.192-1.113,0.624-1.697,0.882c-0.927,0.44-1.937,0.742-2.813,1.261c-1.441,0.861-2.82,1.811-4.188,2.795
			c-2.308,1.677-4.62,3.339-6.607,5.424c-1.01,1.04-2.106,2.021-3.102,3.092c-1.2,1.3-2.21,2.795-3.522,3.955
			c-1.563,1.383-2.48,3.197-3.616,4.833c-1.014,1.464-1.602,3.233-2.339,4.874c-0.206,0.462-0.169,1.076-0.47,1.443
			c-0.925,1.148-0.581,2.803-1.647,3.875c-0.032,0.041,0.03,0.163,0.024,0.252c-0.08,0.413-0.129,0.836-0.242,1.241
			c-0.498,1.734-1.123,3.45-1.491,5.211c-0.494,2.411-0.813,4.852-1.199,7.284c-0.312,1.91-0.666,3.825-0.918,5.757
			c-0.16,1.231-0.128,2.489-0.258,3.73C126.381,182.492,126.135,184.35,125.885,186.48z M206.072,230.252
			c0.002-0.041-0.001-0.072,0.004-0.105c0.689-0.002,1.382,0.025,2.076-0.004c1.564-0.066,2.84-0.9,4.125-1.675
			c0.424-0.247,0.972-0.614,1.094-1.028c0.449-1.627,0.732-3.305,0.256-4.979c-0.635-2.284-2.033-4.181-3.276-6.146
			c-0.162-0.244-0.437-0.436-0.705-0.559c-0.72-0.318-1.137-0.914-1.489-1.563c-0.549-0.96-1.113-1.912-1.55-2.914
			c-0.437-0.981-0.849-2.008-1.029-3.059c-0.374-2.158-0.624-4.337-0.861-6.521c-0.116-1.11-0.111-2.235-0.105-3.352
			c-0.001-0.86,0.164-1.727,0.136-2.594c-0.08-2.269-0.167-4.55-0.379-6.816c-0.163-1.712-0.377-3.441-0.818-5.092
			c-0.451-1.687-1.069-3.354-1.977-4.901c-0.277-0.467-0.244-1.157-0.586-1.556c-1.211-1.386-2.132-3.073-3.822-3.988
			c-0.753-0.412-1.58-0.683-2.346-1.07c-1.23-0.617-2.608-0.782-3.891-1.249c-1.393-0.502-2.955-0.548-4.448-0.769
			c-1.175-0.17-2.371-0.512-3.503,0.239c-0.156,0.112-0.418,0.08-0.634,0.1c-0.688,0.041-1.347,0.15-1.969,0.533
			c-0.464,0.288-1.055,0.359-1.58,0.557c-0.642,0.247-1.409,0.383-1.873,0.825c-0.636,0.6-1.365,0.857-2.128,1.145
			c-0.188,0.065-0.457,0.12-0.534,0.269c-0.515,0.964-1.513,1.456-2.322,1.939c-2.417,1.451-4.456,3.263-6.114,5.482
			c-1.17,1.547-2.242,3.136-2.775,5.085c-0.569,2.117-0.998,4.263-1.504,6.387c-0.549,2.288-0.275,4.559,0.164,6.822
			c0.113,0.59,1.84,3.304,2.31,3.63c0.171,0.11,0.392,0.165,0.593,0.227c0.898,0.275,1.861,0.285,2.754,0.47
			c0.959,0.2,1.724,0.02,2.615-0.183c1.313-0.304,2.358-1.021,3.418-1.767c1.396-0.984,2.824-1.945,3.898-3.302
			c5.16-6.54,6.021-7.836,2.433-3.326c0.813-1.013,1.612-2.01,2.08-3.25c0.217-0.559,0.441-1.156,0.83-1.595
			c1.264-1.458,2.46-3.095,4.433-3.619c1.278-0.346,2.63-0.472,3.949-0.524c0.88-0.033,1.778,0.228,2.66,0.381
			c0.422,0.079,0.881,0.137,1.218,0.36c1.829,1.175,3.309,2.639,3.69,4.917c0.055,0.297,0.182,0.581,0.236,0.873
			c0.232,1.214,0.613,2.431,0.656,3.65c0.043,1.726-0.135,3.457-0.258,5.18c-0.043,0.55-0.223,1.097-0.406,1.622
			c-0.662,1.856-1.386,3.689-2.04,5.549c-0.637,1.796-1.394,3.51-2.742,4.903c-0.173,0.179-0.335,0.429-0.373,0.659
			c-0.245,1.816-0.114,3.619,0.495,5.355c0.345,0.966,0.68,2.012,1.292,2.801c1.201,1.566,2.572,3.012,3.923,4.463
			c0.484,0.526,1.188,0.871,1.658,1.416c1.143,1.314,2.536,1.888,4.265,1.67C205.551,230.225,205.813,230.25,206.072,230.252z"/>
		<g>
			<path d="M181.363,146.557c-0.304-0.03-0.609-0.027-0.908-0.09c-1.077-0.256-1.158-0.433-1.285-1.585
				c-0.098-0.883-0.154-1.684,0.611-2.342c0.196-0.169,0.195-0.557,0.279-0.857c0.276-1.069,1.01-1.425,2.302-1.12
				c1.031,0.246,1.487,0.94,1.327,1.958c-0.054,0.358-0.055,0.764,0.041,1.112C184.176,145.331,183.142,146.61,181.363,146.557z"/>
			<path d="M176.431,141.852c-0.14,0.958-0.233,1.894-0.402,2.81c-0.124,0.679-1.47,1.327-2.375,1.2
				c-0.898-0.142-1.369-0.66-1.397-1.551c-0.046-1.361,0.589-2.483,1.335-3.542c0.16-0.227,0.577-0.304,0.899-0.36
				c0.229-0.036,0.503,0.083,0.751,0.122C176.396,140.691,176.459,140.761,176.431,141.852z"/>
		</g>
		<g>
			<path d="M175.644,194.531c-0.023,0.725,0.152,1.457-0.61,1.979c-0.763,0.538-2.702,0.635-3.442,0.073
				c-0.647-0.485-0.945-1.18-0.71-1.935c0.256-0.812,0.639-1.599,1.061-2.339c0.447-0.77,1.233-1.063,2.089-0.94
				c0.881,0.129,1.265,0.841,1.447,1.627C175.597,193.494,175.595,194.022,175.644,194.531z"/>
			<path d="M165.972,193.344c1.198,1.076,1.28,2.553,1.34,4.012c0.005,0.265-0.18,0.589-0.376,0.793
				c-0.583,0.647-2.781,0.838-3.413,0.272c-0.209-0.185-0.259-0.594-0.271-0.906c-0.01-0.333,0.162-0.668,0.17-1.003
				C163.46,194.338,163.824,193.864,165.972,193.344z"/>
		</g>
	</g>
	<g>
		<path fill="#F4E53B" stroke="#000000" stroke-width="3" stroke-miterlimit="10" d="M193.622,121.24
			c-0.009-0.462,0.033-0.936-0.07-1.393c-2.641-11.702-14.702-15.34-26.849-13.728c-4.084,0.542-18.404,5.957-17.34,17.723
			c0.045,0.499,0.115,0.989,0.195,1.476C153.651,128.403,173.302,141.255,193.622,121.24z"/>
		<path fill="#F4E53B" stroke="#000000" stroke-width="3" stroke-miterlimit="10" d="M193.622,121.24
			c-17.4,10.197-40.04,6.398-44.066,4.058c0.005,0.027,0.009,0.057,0.015,0.084c-0.409,0.739-0.593,1.491-0.525,2.243
			c0.15,1.652,1.5,3.087,3.719,4.212c4.22,2.139,11.973,2.237,20.206,1.493c8.233-0.745,14.902-2.147,18.671-5.008
			c1.981-1.504,3.052-3.158,2.902-4.811c-0.068-0.752-0.386-1.459-0.919-2.113C193.624,121.347,193.623,121.293,193.622,121.24z"/>
	</g>
	<path fill="#17870E" d="M182.332,118.89l-2.806,0.13l-0.131-2.805c-0.03-0.662-0.592-1.173-1.253-1.144
		c-0.664,0.031-1.175,0.593-1.144,1.255l0.129,2.804l-2.805,0.131c-0.661,0.031-1.173,0.592-1.143,1.254
		c0.031,0.661,0.593,1.173,1.255,1.143l2.804-0.13l0.131,2.805c0.03,0.662,0.592,1.174,1.253,1.144
		c0.663-0.031,1.176-0.593,1.144-1.255l-0.13-2.804l2.805-0.13c0.662-0.031,1.173-0.592,1.144-1.254
		C183.553,119.372,182.992,118.86,182.332,118.89z"/>
	<g>
		<path d="M159.078,133.752c0,0,5.432,19.667,10.168,19.905"/>
		<path d="M169.247,155.156c-0.025,0-0.051,0-0.077-0.002c-5.251-0.264-9.819-14.776-11.539-21.003
			c-0.221-0.799,0.248-1.625,1.046-1.845c0.798-0.221,1.625,0.248,1.845,1.046c2.742,9.92,6.853,18.708,8.797,18.806
			c0.828,0.042,1.465,0.746,1.423,1.573C170.704,154.533,170.041,155.156,169.247,155.156z"/>
	</g>
</g>
</svg>
