<?xml version="1.0" encoding="utf-8"?>
<!-- Generator: Adobe Illustrator 16.0.0, SVG Export Plug-In . SVG Version: 6.00 Build 0)  -->
<!DOCTYPE svg PUBLIC "-//W3C//DTD SVG 1.1//EN" "http://www.w3.org/Graphics/SVG/1.1/DTD/svg11.dtd">
<svg version="1.1" id="圖層_1" xmlns="http://www.w3.org/2000/svg" xmlns:xlink="http://www.w3.org/1999/xlink" x="0px" y="0px"
	 width="141.732px" height="141.732px" viewBox="0 0 141.732 141.732" enable-background="new 0 0 141.732 141.732"
	 xml:space="preserve">
<path fill="#B7B73D" d="M133.942,45.519c0.956-2.237,0.496-4.203-0.754-5.882c-2.209-3.761-7.603-5.706-12.504-6.581
	c-0.412-0.088-0.797-0.159-1.145-0.212c-2.129-0.322-4.553-0.478-7.045-0.394c-28.291,0-56.583,0-84.875,0
	c-5.58,0-25.056,3.95-19.286,13.944c14.434,25,28.868,50,43.301,75c6.549,11.342,32.023,11.342,38.572,0
	c14.008-24.264,28.018-48.528,42.025-72.792C133.026,47.706,133.62,46.682,133.942,45.519z"/>
</svg>
