<?xml version="1.0" encoding="utf-8"?>
<!-- Generator: Adobe Illustrator 16.0.0, SVG Export Plug-In . SVG Version: 6.00 Build 0)  -->
<!DOCTYPE svg PUBLIC "-//W3C//DTD SVG 1.1//EN" "http://www.w3.org/Graphics/SVG/1.1/DTD/svg11.dtd">
<svg version="1.1" id="Capa_1" xmlns="http://www.w3.org/2000/svg" xmlns:xlink="http://www.w3.org/1999/xlink" x="0px" y="0px"
	 width="193.971px" height="193.971px" viewBox="0 0 193.971 193.971" enable-background="new 0 0 193.971 193.971"
	 xml:space="preserve">
<g>
	<path fill="#B8A880" d="M186.549,27.054c-7.652-25.228-30.932-21.395-52.63-21.31C103.965,5.86,62.17-4.531,35.425,13.295
		C17.064,25.531,9.804,52.141,5.486,72.29c-5.584,26.049-5.91,54.226,1.099,80.005c4.783,17.597,20.662,40.693,40.87,37.062
		c12.991,2.579,26.038,2.843,39.416,2.174c16.974-0.846,36.876-1.158,52.965-6.824c0.469-0.165,0.861-0.463,1.21-0.807
		c4.918-0.637,9.844-1.403,14.785-2.429c23.839-4.941,28.396-27.536,31.219-48.46C191.813,97.688,197.072,61.73,186.549,27.054z
		 M20.802,58.147c-0.07,0.36-0.072,0.722-0.03,1.079c-0.558,2.848-1.114,5.696-1.601,8.545c-0.083,0.174-0.188,0.321-0.245,0.531
		c-1.432,5.409-2.721,10.827-3.906,16.254c-0.036,0.026-0.075,0.047-0.109,0.075c1.12-7.305,2.456-13.822,3.74-18.903
		c0.645-2.552,1.413-5.289,2.274-8.084C20.889,57.816,20.834,57.972,20.802,58.147z M40.621,154.148
		c-0.399-0.76-0.774-1.535-1.198-2.276c0.708,0.262,1.395,0.553,2.069,0.867c1.497,1.854,2.925,3.762,4.298,5.707
		C43.969,157.119,42.258,155.673,40.621,154.148z M62.874,40.157c-0.259-0.748-0.508-1.5-0.741-2.257
		c1.605-0.649,3.207-1.309,4.813-1.953C65.658,37.397,64.309,38.806,62.874,40.157z M67.997,55.516
		c1.689-1.996,3.273-4.044,4.774-6.145c0.394-0.282,0.795-0.556,1.18-0.848c-1.506,2.261-2.916,4.6-4.288,6.966
		C69.109,55.497,68.553,55.51,67.997,55.516z M86.665,118.738c0.099-2.419,0.258-4.823,0.241-7.267
		c-0.005-0.836-0.296-1.447-0.705-1.905c0.683-0.028,1.384-0.017,2.051-0.074C87.529,112.544,87.047,115.633,86.665,118.738z
		 M157.61,113.594c-0.156-1.542-0.235-3.067-0.424-4.62c-0.148-1.227-0.98-2.2-1.998-2.757c0.819,0.054,1.641,0.114,2.461,0.143
		c0.046,0.37,0.07,0.745,0.119,1.113c0.12,0.878,0.59,1.534,1.228,1.98C158.517,110.834,158.041,112.216,157.61,113.594z
		 M174.826,135.887c-1.186,8.754-3.161,15.471-6.217,20.643c2.28-7.136,4.406-14.281,6.33-21.453
		C174.904,135.343,174.862,135.619,174.826,135.887z"/>
</g>
<polygon fill="#FFFFFF" points="74.986,12.486 35.986,26.486 24.486,48.986 21.486,97.341 40.621,154.148 137.486,150.986 
	164.486,131.486 164.486,69.486 160.486,14.986 "/>
<g>
	<g>
		<path fill="#FBB11D" d="M174.446,23.07c-6.618-21.819-26.752-18.503-45.518-18.43c-25.906,0.101-62.053-8.886-85.184,6.531
			C27.865,21.753,21.586,44.767,17.851,62.193c-4.829,22.529-5.111,46.898,0.95,69.193c4.137,15.22,17.87,35.194,35.347,32.054
			c11.236,2.23,22.519,2.459,34.089,1.881c14.68-0.731,31.893-1.002,45.808-5.902c0.405-0.143,0.744-0.4,1.046-0.697
			c4.253-0.552,8.514-1.214,12.787-2.101c20.617-4.274,24.559-23.815,27-41.911C178.997,84.157,183.546,53.06,174.446,23.07z
			 M31.097,49.961c-0.06,0.312-0.062,0.624-0.026,0.933c-0.482,2.463-0.963,4.927-1.384,7.391c-0.072,0.151-0.163,0.277-0.212,0.459
			c-1.238,4.678-2.353,9.363-3.378,14.057c-0.031,0.023-0.065,0.042-0.095,0.065c0.969-6.317,2.124-11.954,3.234-16.349
			c0.558-2.207,1.222-4.574,1.966-6.992C31.173,49.675,31.126,49.81,31.097,49.961z M48.239,132.989
			c-0.345-0.657-0.67-1.327-1.036-1.969c0.612,0.226,1.206,0.478,1.789,0.75c1.295,1.604,2.53,3.253,3.717,4.936
			C51.134,135.559,49.654,134.308,48.239,132.989z M67.484,34.403c-0.224-0.647-0.439-1.297-0.641-1.952
			c1.388-0.562,2.773-1.132,4.163-1.689C69.892,32.015,68.725,33.235,67.484,34.403z M71.915,47.686
			c1.461-1.726,2.831-3.497,4.129-5.313c0.34-0.244,0.688-0.481,1.02-0.734c-1.302,1.956-2.521,3.979-3.708,6.024
			C72.876,47.67,72.396,47.68,71.915,47.686z M88.06,102.364c0.085-2.092,0.223-4.172,0.208-6.285
			c-0.005-0.724-0.256-1.252-0.609-1.648c0.59-0.024,1.197-0.015,1.773-0.064C88.807,97.007,88.39,99.679,88.06,102.364z
			 M149.417,97.915c-0.135-1.334-0.204-2.653-0.367-3.996c-0.128-1.062-0.848-1.903-1.729-2.385
			c0.709,0.046,1.419,0.099,2.129,0.123c0.04,0.32,0.062,0.645,0.104,0.963c0.104,0.759,0.51,1.326,1.062,1.713
			C150.201,95.528,149.79,96.722,149.417,97.915z M164.307,117.196c-1.025,7.571-2.734,13.38-5.376,17.853
			c1.972-6.172,3.811-12.352,5.475-18.554C164.373,116.725,164.337,116.964,164.307,117.196z"/>
	</g>
	<g>
		<path fill="#FFFFFF" d="M79.202,87.851c0-28.776,15.973-58.406,45.116-58.406c10.608,0,26.948,4.511,26.948,17.68
			c0,7.072-4.878,11.096-12.561,11.096c-4.999,0,1.708-11.462-13.778-11.462c-19.266,0-25.971,21.826-25.971,38.775
			c0,13.291,3.779,27.313,19.753,27.313c7.56,0,15.729-3.17,15.729-11.705c0-9.877-9.438-5.197-9.632-13.901
			c-0.219-9.78,20.972-9.146,22.436-9.146c2.438,0,5.243,29.752,5.243,33.411c0,15.973-15.851,23.045-30.971,23.045
			C93.224,134.552,79.202,115.043,79.202,87.851z"/>
	</g>
</g>
</svg>
