<?xml version="1.0" encoding="utf-8"?>
<!-- Generator: Adobe Illustrator 16.0.0, SVG Export Plug-In . SVG Version: 6.00 Build 0)  -->
<!DOCTYPE svg PUBLIC "-//W3C//DTD SVG 1.1//EN" "http://www.w3.org/Graphics/SVG/1.1/DTD/svg11.dtd">
<svg version="1.1" id="Capa_1" xmlns="http://www.w3.org/2000/svg" xmlns:xlink="http://www.w3.org/1999/xlink" x="0px" y="0px"
	 width="438.549px" height="438.549px" viewBox="0 0 438.549 438.549" enable-background="new 0 0 438.549 438.549"
	 xml:space="preserve">
<g>
	<path fill="#ffffff" d="M268.287,422.097c0,0,0.025-36.035,0.025-39.114v-54.214c0-16.615-4.454-28.779-13.358-36.484
		c9.764-1.029,18.541-2.574,26.336-4.633c7.793-2.057,15.848-5.396,24.157-10.021c8.306-4.623,15.245-10.318,20.817-17.087
		c5.565-6.771,10.103-15.757,13.613-26.981c3.504-11.223,5.267-24.109,5.267-38.669c0-20.727-6.771-38.373-20.303-52.935
		c6.341-15.587,5.655-33.059-2.052-52.417c-4.799-1.543-11.74-0.601-20.82,2.824c-9.073,3.426-16.958,7.195-23.637,11.309
		l-9.764,6.164c-15.936-4.453-32.383-6.679-49.34-6.679s-33.401,2.227-49.335,6.679c-2.742-1.882-6.38-4.201-10.922-6.938
		c-4.541-2.738-11.69-6.04-21.456-9.895c-9.763-3.853-17.13-5.012-22.098-3.468c-7.539,19.357-8.137,36.83-1.797,52.416
		c-13.533,14.562-20.301,32.204-20.301,52.936c0,14.56,1.756,27.406,5.266,38.543c3.51,11.132,8.008,20.129,13.489,26.98
		c5.48,6.85,12.375,12.591,20.687,17.214c8.307,4.63,16.359,7.968,24.151,10.026c7.797,2.055,16.574,3.6,26.338,4.626
		c-6.849,6.165-11.047,14.986-12.588,26.47c-3.6,1.711-7.455,2.999-11.563,3.855c-4.113,0.852-8.995,1.281-14.646,1.281
		c-5.653,0-11.264-1.839-16.829-5.523c-5.571-3.682-10.32-9.037-14.261-16.062c-3.255-5.479-7.409-9.933-12.462-13.358
		c-5.056-3.428-9.294-5.479-12.72-6.165l-5.137-0.769c-3.599,0-6.08,0.376-7.452,1.149c-1.372,0.772-1.799,1.759-1.284,2.959
		c0.513,1.2,1.283,2.399,2.312,3.599c1.028,1.197,2.141,2.229,3.34,3.086l1.798,1.287c3.769,1.713,7.494,4.966,11.178,9.764
		c3.684,4.793,6.379,9.166,8.093,13.104l2.569,5.912c2.228,6.506,5.996,11.775,11.304,15.801c5.311,4.025,11.049,6.596,17.218,7.703
		c6.166,1.117,12.12,1.719,17.857,1.799c5.739,0.084,10.493-0.209,14.261-0.899l5.91-1.022c0,6.504,0.042,14.127,0.13,22.865
		c0.086,8.738,0.13,13.361,0.13,13.875c0,3.08-0.219,39.107-0.219,39.107s0,0,49.045,0
		C268.287,422.097,268.287,422.097,268.287,422.097z"/>
</g>
<path fill="#ffffff" d="M438.275,220C438.275,98.9,340.1,0.725,219,0.725C97.9,0.725-0.275,98.9-0.275,220
	C-0.275,341.1,97.9,439.275,219,439.275C340.1,439.275,438.275,341.1,438.275,220z M19.659,220
	c0-110.096,89.245-199.341,199.341-199.341c110.096,0,199.341,89.245,199.341,199.341c0,110.096-89.245,199.341-199.341,199.341
	C108.904,419.341,19.659,330.096,19.659,220z"/>
</svg>
