<?xml version="1.0" encoding="utf-8"?>
<!-- Generator: Adobe Illustrator 16.0.0, SVG Export Plug-In . SVG Version: 6.00 Build 0)  -->
<!DOCTYPE svg PUBLIC "-//W3C//DTD SVG 1.1//EN" "http://www.w3.org/Graphics/SVG/1.1/DTD/svg11.dtd">
<svg version="1.1" id="圖層_1" xmlns="http://www.w3.org/2000/svg" xmlns:xlink="http://www.w3.org/1999/xlink" x="0px" y="0px"
	 width="931.797px" height="645.322px" viewBox="0 0 931.797 645.322" enable-background="new 0 0 931.797 645.322"
	 xml:space="preserve">
<path fill="#E2C2A1" d="M841.343,590.705c-3.077,1.471-6.241,2.77-9.492,3.877c-73.396,25.024-150.148,43.014-227.979,40.65
	c-102.524-3.111-205.145-1.768-307.637,1.812c-40.917,1.428-81.395,3.983-122.207,6.805c-35.396,2.444-76.532,4.782-106.132-18.874
	c-37.45-29.938-65.614-112.76-67.612-159.878c-3.254-76.754,22.66-70.259,17.127-146.916c-4.139-57.339-6.852-116.611,7.799-172.776
	c15.184-58.204,70.299-86.73,121.827-107.333C211.229,12.406,275.856-7.694,345.654,2.878c40.436,6.124,79.771,19.178,120.049,25.42
	c62.14,9.631,129.972,5.055,192.854,7.086c49.383,1.596,109.801-5.677,157.198,10.237c38.125,12.801,57.441,47.759,70.014,83.703
	c10.575,30.234,8.681,58.297,8.441,89.504c-0.24,31.41,9.882,60.719,18.206,90.68c12.021,43.261,25.44,91.484,16.438,136.59
	C918.805,496.44,891.568,566.696,841.343,590.705z"/>
</svg>
