<?xml version="1.0" encoding="utf-8"?>
<!-- Generator: Adobe Illustrator 16.0.0, SVG Export Plug-In . SVG Version: 6.00 Build 0)  -->
<!DOCTYPE svg PUBLIC "-//W3C//DTD SVG 1.1//EN" "http://www.w3.org/Graphics/SVG/1.1/DTD/svg11.dtd">
<svg version="1.1" id="圖層_1" xmlns="http://www.w3.org/2000/svg" xmlns:xlink="http://www.w3.org/1999/xlink" x="0px" y="0px"
	 width="340.156px" height="340.156px" viewBox="0 0 340.156 340.156" enable-background="new 0 0 340.156 340.156"
	 xml:space="preserve">
<path fill="none" d="M115.038,200.381"/>
<g>
	<path fill="#FFFFFF" d="M199.418,85.952c0.818,0.184,1.691,0.184,2.546,0.27c5.032,0.156,7.947-3.466,6.679-8.253
		c-0.261-0.993-0.261-2.121-0.096-3.135c0.433-2.862-0.843-4.839-3.757-5.531c-3.638-0.868-5.716,0.147-6.513,3.181
		c-0.221,0.828-0.221,1.925-0.784,2.391c-2.164,1.863-1.983,4.125-1.716,6.62C196.144,84.741,196.365,85.244,199.418,85.952z"/>
	<path fill="#FFFFFF" d="M180.226,84.251c2.525,0.377,6.341-1.456,6.693-3.365c0.466-2.593,0.745-5.231,1.131-7.965
		c0.074-3.049-0.11-3.264-3.344-3.708c-0.72-0.102-1.471-0.451-2.142-0.35c-0.901,0.153-2.075,0.386-2.525,1.021
		c-2.118,2.985-3.904,6.154-3.782,10.006C176.338,82.406,177.677,83.868,180.226,84.251z"/>
	<path fill="#FFFFFF" d="M303.673,291.835c-2.148-2.887-5.103-5.286-5.832-9.117c-0.11-0.613-0.96-1.069-1.364-1.677
		c-2.289-3.459-5.645-5.991-8.357-9.07c-3.278-3.733-4.078-8.069-5.525-12.403c-0.919-2.715-0.892-5.461-1.395-8.179
		c-0.76-4.027-1.752-8.042-2.145-12.121c-0.344-3.368,0.15-6.794,0.162-10.195c0.019-4.9,0.062-9.768-0.156-14.652
		c-0.221-5.477-0.797-10.94-1.026-16.414c-0.153-3.775-0.298-7.499-2.795-10.655c-0.429-0.562-0.764-1.309-0.849-2.005
		c-0.417-3.555-1.628-6.757-3.463-9.853c-2.048-3.433-3.586-7.168-5.277-10.806c-3.421-7.432-10.414-10.248-17.187-13.239
		c-3.776-1.652-7.711-2.917-11.628-4.22c-1.703-0.579-3.523-0.809-5.292-1.109c-1.683-0.285-3.414-0.307-5.054-0.684
		c-6.742-1.501-13.5-2.111-20.327-0.723c-2.951,0.591-5.896,1.201-8.854,1.82c-0.217,0.049-0.453,0.171-0.655,0.273
		c-4.383,2.096-8.771,4.186-13.11,6.325c-1.201,0.573-2.246,1.686-3.473,1.949c-5.182,1.122-7.624,5.859-11.562,8.562
		c-1.474,1.021-2.844,2.185-4.131,3.417c-5.927,5.587-11.434,11.565-16.206,18.164c-2.053,2.841-4.048,5.865-5.314,9.104
		c-1.587,4.024-2.114,8.462-3.552,12.553c-1.792,5.127-2.804,10.331-2.884,15.719c-0.018,2.679,0.08,5.369,0.236,8.041
		c0.16,2.642,0.374,5.293,0.742,7.919c0.325,2.351,0.907,4.674,1.505,7.757c-5.758-3.334-11.661-4.873-15.746-9.844
		c-2.234-2.725-4.333-5.516-6.298-8.388c-2.46-3.595-5.118-7.113-6.54-11.323c-0.221-0.656-0.583-1.475-1.144-1.796
		c-1.86-1.082-2.136-2.808-2.372-4.674c-0.101-0.827-0.429-1.631-0.714-2.418c-3.371-9.179-5.611-18.366-5.038-28.415
		c0.46-8.048,2.078-15.838,3.11-23.738c0.098-0.708,0.436-1.392,0.727-2.044c2.108-4.759,4.061-9.506,7.055-13.889
		c2.722-3.944,5.069-7.99,8.483-11.501c4.042-4.144,8.593-7.462,13.279-10.677c2.596-1.765,5.366-3.34,8.195-4.686
		c2.409-1.14,5.023-1.787,7.542-2.682c1.137-0.411,2.216-1.119,3.383-1.327c8.584-1.627,17.149-3.484,25.939-3.57
		c1.439-0.009,2.861,0.153,4.303,0.141c5.85-0.031,11.716-0.383,17.548-0.058c5.442,0.303,10.554,0,15.47-2.685
		c3.053-1.67,6.51-2.624,9.182-5.029c3.107-2.779,6.521-5.041,10.527-6.375c0.723-0.248,1.412-1.011,1.838-1.722
		c4.238-6.978,8.002-14.127,8.195-22.598c0.073-2.654-0.11-5.437,0.622-7.925c0.824-2.721,0.38-4.958-0.622-7.392
		c-0.92-2.256-1.548-4.622-2.396-6.896c-0.539-1.483-0.996-3.074-1.888-4.333c-4.438-6.239-8.86-12.602-15.421-16.852
		c-3.433-2.222-7.116-4.389-11.002-5.479c-2.912-0.812-5.743-1.649-8.517-2.872c-2.988-1.312-6.139-2.29-9.296-3.16
		c-3.389-0.932-6.87-1.483-10.3-2.341c-6.8-1.723-13.631-1.707-20.493-0.711c-2.044,0.294-4.021,1.115-6.059,1.363
		c-7.827,0.901-15.093,3.341-21.869,7.331c-0.714,0.423-1.615,0.505-2.415,0.821c-1.428,0.555-2.85,1.125-4.239,1.796
		c-0.754,0.34-1.376,1.06-2.136,1.284c-5.673,1.689-10.267,5.32-15.21,8.321c-2.362,1.422-4.357,3.447-6.732,4.885
		c-3.46,2.078-6.632,4.355-9.188,7.536c-2.115,2.629-4.474,5.084-6.843,7.475c-1.18,1.213-2.786,2.025-3.966,3.242
		c-3.334,3.53-6.561,7.162-9.785,10.803c-0.947,1.079-1.511,2.553-2.553,3.521c-4.131,3.788-7.714,8.014-10.389,12.954
		c-1.686,3.08-3.438,6.108-4.974,9.273c-2.516,5.115-4.888,10.288-7.27,15.477c-1.655,3.628-3.074,7.382-4.94,10.904
		c-2.24,4.281-2.97,8.964-4.18,13.545c-0.729,2.789-1.097,5.737-2.127,8.413c-1.287,3.374-1.835,6.757-2.044,10.331
		c-0.251,3.987-0.938,7.956-1.6,11.897c-0.8,4.677-2.191,9.295-2.507,13.996c-0.454,6.996-0.23,14.036-0.126,21.042
		c0.068,3.392,0.402,6.794,0.831,10.174c0.53,3.99,1.557,7.919,1.894,11.934c0.527,6.347,2.771,12.071,5.746,17.572
		c0.558,1.039,1.44,1.956,2.311,2.771c1.06,0.981,1.471,1.946,1.431,3.494c-0.08,2.372,0.153,4.796,2.081,6.705
		c0.662,0.635,0.846,1.731,1.25,2.627c1.29,2.884,2.231,5.997,3.984,8.568c1.722,2.516,3.056,5.531,6.056,7.066
		c0.628,0.307,1.109,0.938,1.569,1.496c2.647,3.147,5.418,6.206,7.867,9.519c2.458,3.31,4.459,6.953,6.905,10.264
		c2.316,3.135,4.637,6.374,7.521,8.954c6.325,5.618,13.463,10.04,21.682,12.455c0.472,0.116,1.079,0.187,1.324,0.515
		c2.179,2.782,5.535,3.512,8.507,4.823c3.095,1.37,6.298,2.56,9.503,3.613c5.439,1.76,11.149,0.929,16.693,1.68
		c0.583,0.07,1.213-0.132,1.802-0.189c6.782-0.61,13.558-1.184,20.343-1.833c2.283-0.229,4.548-0.656,6.804-1.015
		c0.714-0.119,1.418-0.343,2.114-0.506c3.113-0.741,6.527-0.435,9.13-2.898c0.49-0.457,1.32-0.672,2.031-0.797
		c3.454-0.567,6.279-2.525,9.222-4.208c2.525-1.416,4.882-3.285,7.563-4.238c3.5-1.266,6.61-3.021,9.616-5.111
		c3.362-2.342,5.817-5.799,9.522-7.729c0.192-0.104,0.221-0.453,0.398-0.585c0.646-0.444,1.33-0.831,2.399-1.478
		c2.745,5.375,5.271,10.457,7.94,15.467c2.834,5.312,5.111,11.052,10.79,14.195c0.42,0.236,0.714,0.659,1.069,0.99
		c2.363,2.133,4.701,4.251,7.067,6.344c7.478,6.604,16.675,5.691,25.639,5.875c0.242,0,0.49-0.064,0.714-0.147
		c6.209-2.378,12.871-3.815,18.388-7.766c3.598-2.55,7.952-4.677,7.843-10.214c-0.013-0.761,0.723-1.521,1.057-2.296
		c0.23-0.536,0.579-1.085,0.595-1.643c0.144-4.609,0.212-9.236,0.355-13.846C305.03,294.333,304.607,293.114,303.673,291.835z
		 M172.379,221.962c0.72-2.286,1.805-4.511,3.016-6.602c1.256-2.185,3.456-3.009,5.881-2.663c2.488,0.362,3.563,2.388,4.082,4.598
		c0.337,1.406,0.328,2.896,0.463,4.336c-0.062,2.032,0.432,4.106-1.72,5.596c-2.176,1.496-7.625,1.774-9.709,0.203
		C172.574,226.044,171.714,224.105,172.379,221.962z M151.327,227.205c0.113-6.123,1.143-7.462,7.22-8.921
		c3.377,3.031,3.58,7.199,3.764,11.321c0.021,0.732-0.512,1.64-1.061,2.225c-1.655,1.82-7.846,2.356-9.642,0.763
		c-0.566-0.512-0.717-1.664-0.75-2.553C150.837,229.109,151.321,228.153,151.327,227.205z M241.409,246.853
		c-1.836,5.52-4.343,10.834-6.359,16.279c-3.175,8.547-9.914,13.49-17.281,18.021c-2.829,1.762-5.143,4.409-7.698,6.622
		c-4.395,3.824-8.842,7.483-14.631,9.329c-2.936,0.935-5.412,3.159-8.194,4.633c-2.467,1.303-4.965,2.682-7.604,3.516
		c-7.116,2.262-14.397,3.668-21.884,4.012c-3.531,0.138-7.037,0.815-10.567,0.864c-5.093,0.095-10.229,0.122-15.289-0.353
		c-2.688-0.255-5.431-1.312-7.907-2.501c-5.439-2.66-10.511-6.218-16.147-8.305c-4.812-1.784-8.627-4.965-13.016-7.27
		c-1.379-0.708-2.55-1.906-3.598-3.064c-3.286-3.607-6.019-7.625-8.731-11.683c-2.06-3.107-4.674-5.841-7.012-8.795
		c-0.828-1.027-1.508-2.197-2.356-3.255c-1.799-2.268-3.724-4.456-5.483-6.761c-2.418-3.19-4.734-6.457-7.061-9.724
		c-0.815-1.165-1.625-2.418-2.188-3.729c-1.084-2.495-2.028-5.066-2.957-7.631c-0.613-1.637-1.226-3.129-3.129-3.772
		c-1.597-0.54-1.762-2.127-2.118-3.574c-0.444-1.734-1.162-3.398-1.603-5.157c-0.619-2.467-1.208-4.974-1.6-7.499
		c-0.454-2.868-0.717-5.786-0.962-8.683c-0.288-3.374-0.457-6.788-0.634-9.494c0.702-5.984,1.41-11.244,1.921-16.512
		c0.359-3.509,0.297-7.07,0.748-10.549c0.702-5.433,1.704-10.839,2.571-16.236c1.113-6.853,1.98-13.757,3.399-20.554
		c1.042-4.98,2.801-9.81,4.205-14.713c0.328-1.137,0.466-2.335,0.681-3.512c0.027-0.227-0.153-0.582-0.037-0.711
		c2.982-3.019,2.014-7.692,4.627-10.922c0.849-1.042,0.729-2.78,1.333-4.082c2.081-4.643,3.727-9.617,6.592-13.742
		c3.203-4.63,5.789-9.761,10.211-13.634c3.702-3.292,6.549-7.521,9.954-11.18c2.798-3.028,5.894-5.783,8.728-8.762
		c5.621-5.844,12.148-10.548,18.667-15.268c3.846-2.776,7.75-5.467,11.817-7.897c2.452-1.465,5.32-2.32,7.934-3.53
		c1.643-0.769,3.117-1.967,4.799-2.504c7.358-2.369,14.456-5.461,22.39-6.095c5.158-0.411,10.233-0.545,15.342-0.12
		c5.734,0.502,11.207,2.017,16.503,4.336c3.405,1.499,6.972,2.645,10.41,4.045c1.333,0.548,2.528,1.428,3.791,2.136
		c6.279,3.524,11.125,8.302,15.011,14.478c2.445,3.898,4.312,7.839,5.378,12.136c1.104,4.584,1.472,9.335,0.384,14.057
		c-0.812,3.442-1.284,6.975-2.326,10.325c-0.625,2.004-1.658,4.196-3.196,5.553c-5.266,4.741-11.333,8.492-17.763,11.339
		c-2.862,1.253-6.46,0.972-9.721,1.091c-2.528,0.092-5.081-0.401-7.628-0.436c-5.474-0.049-10.972,0.009-16.436,0.083
		c-1.063,0.015-2.133,0.282-3.185,0.475c-0.475,0.085-0.983,0.505-1.382,0.401c-2.939-0.782-5.783,0.012-8.661,0.343
		c-2.298,0.267-4.6,0.396-6.855,0.849c-10.077,2.121-19.528,6.05-28.685,10.613c-3.441,1.732-6.398,4.432-9.69,6.531
		c-5.664,3.61-9.706,8.673-13.307,14.198c-4.149,6.353-7.346,13.114-9.273,20.457c-0.249,0.944-0.432,1.94-0.849,2.795
		c-2.942,5.749-3.576,11.977-3.984,18.281c-0.12,1.789-0.497,3.588-0.558,5.394c-0.218,8.954,0.833,17.787,3.257,26.361
		c1.389,4.876,3.788,9.467,5.743,14.174c0.279,0.662,0.585,1.314,0.889,1.979c2.804,5.829,5.562,11.652,10.242,16.316
		c0.836,0.821,1.29,2.032,1.931,3.056c2.17,3.481,5.449,5.758,8.78,7.958c0.708,0.476,1.501,0.864,2.114,1.447
		c3.071,2.868,6.855,4.517,10.711,5.813c3.307,1.1,6.812,1.594,10.224,2.448c5.139,1.275,10.398,1.158,15.556,0.855
		c3.249-0.181,6.451-0.613,9.743-0.644c2.743-0.007,5.287-1.465,7.894-2.544c2.783-1.131,4.484-3.46,7.07-4.734
		c2.556-1.257,4.885-3.136,7.129-4.978c1.856-1.535,3.297-3.582,5.148-5.118c5.967-4.848,8.544-12.249,13.548-17.802
		c0.874-4.045,3.117-7.321,5.743-10.441c1.34-1.575,2.743-2.768,4.766-3.145c4.594-0.86,9.319-1.084,13.696,0.396
		c3.251,1.119,5.776,3.708,7.088,7.3C244.191,226.569,244.813,236.688,241.409,246.853z"/>
</g>
</svg>
