<?xml version="1.0" encoding="utf-8"?>
<!-- Generator: Adobe Illustrator 16.0.0, SVG Export Plug-In . SVG Version: 6.00 Build 0)  -->
<!DOCTYPE svg PUBLIC "-//W3C//DTD SVG 1.1//EN" "http://www.w3.org/Graphics/SVG/1.1/DTD/svg11.dtd">
<svg version="1.1" id="圖層_1" xmlns="http://www.w3.org/2000/svg" xmlns:xlink="http://www.w3.org/1999/xlink" x="0px" y="0px"
	 width="340.156px" height="105.04px" viewBox="0 0 340.156 105.04" enable-background="new 0 0 340.156 105.04"
	 xml:space="preserve">
<g>
	<g>
		<path fill="#FFFFFF" d="M126.832,89.219c0.021,0.854,0,6.466,0,6.466c0,0.084-0.266,0.26-0.794,0.521
			c-0.529,0.271-1.33,0.517-2.403,0.741c-1.066,0.227-2.365,0.336-3.897,0.336c-2.015-0.041-3.604-0.413-4.77-1.112
			c-1.163-0.7-1.987-1.746-2.477-3.151c-0.479-1.396-0.72-3.236-0.72-5.525c0.049-1.842,0.329-3.389,0.836-4.646
			c0.509-1.254,1.313-2.22,2.417-2.89c1.104-0.675,2.561-1.021,4.354-1.047c1.708,0,3.202,0.104,4.474,0.304
			c1.27,0.212,2.483,0.698,2.52,0.809c0,0,0.444,2.264,0.478,2.646c0.021,0.263-0.535-0.198-0.956-0.435
			c-0.458-0.256-1.058-0.482-1.801-0.686c-0.747-0.193-1.648-0.303-2.715-0.303c-0.5,0-0.89,0.018-1.176,0.039
			c-2.604,0.166-3.908,2.232-3.908,6.203c0,1.371,0.063,2.57,0.187,3.598c0.121,1.021,0.4,1.908,0.857,2.648
			c0.448,0.744,1.118,1.162,2.008,1.248c1.088,0,1.903-0.1,2.45-0.293c0.543-0.199,1.018-0.486,1.018-0.486v-5.074
			c0,0,3.204-0.045,3.9-0.021C126.753,89.113,126.831,89.181,126.832,89.219z"/>
		<path fill="#FFFFFF" d="M164.435,89.219c0.021,0.854,0,6.466,0,6.466c0,0.084-0.269,0.26-0.794,0.521
			c-0.529,0.271-1.33,0.517-2.403,0.741c-1.069,0.227-2.368,0.336-3.897,0.336c-2.015-0.041-3.604-0.413-4.771-1.112
			c-1.165-0.7-1.988-1.746-2.475-3.151c-0.482-1.396-0.722-3.236-0.722-5.525c0.048-1.842,0.328-3.389,0.835-4.646
			c0.514-1.254,1.314-2.22,2.417-2.89c1.106-0.675,2.562-1.021,4.355-1.047c1.71,0,3.199,0.104,4.472,0.304
			c1.27,0.212,2.482,0.698,2.521,0.809c0,0,0.44,2.264,0.473,2.646c0.021,0.263-0.533-0.198-0.955-0.435
			c-0.458-0.256-1.055-0.482-1.798-0.686c-0.749-0.193-1.649-0.303-2.715-0.303c-0.499,0-0.891,0.018-1.174,0.039
			c-2.604,0.166-3.909,2.232-3.909,6.203c0,1.371,0.062,2.57,0.185,3.598c0.123,1.021,0.403,1.908,0.86,2.648
			c0.445,0.744,1.115,1.162,2.005,1.248c1.089,0,1.901-0.1,2.452-0.293c0.541-0.199,1.014-0.486,1.014-0.486v-5.074
			c0,0,3.206-0.045,3.902-0.021C164.355,89.113,164.435,89.181,164.435,89.219z"/>
		<path fill="#FFFFFF" d="M140.327,97.133v-1.362c-0.104,0.236-0.443,0.527-1.022,0.877c-0.576,0.348-1.563,0.521-2.957,0.521
			c-1.189-0.042-2.179-0.352-2.966-0.912c-0.79-0.564-1.188-1.458-1.208-2.677c0-1.312,0.47-2.288,1.403-2.942
			c0.938-0.654,2.341-1.054,4.215-1.189c0.862-0.074,1.527-0.295,1.995-0.663c0.466-0.378,0.697-0.791,0.697-1.253
			c0-0.477-0.207-0.877-0.64-1.213c-0.432-0.338-1.014-0.506-1.737-0.506c-1.506,0-2.677,0.276-3.512,0.836
			c-0.839,0.551-1.55,1.459-1.642,1.396c-0.271-0.189,0.537-2.582,0.537-2.582c0-0.046,0.198-0.182,0.596-0.41
			c0.396-0.229,0.953-0.441,1.662-0.642c0.713-0.201,1.562-0.306,2.543-0.313c2.006,0,3.457,0.348,4.354,1.028
			c0.894,0.681,1.342,1.573,1.342,2.681v9.325H140.327z M138.535,95.109c1.191-0.328,1.792-0.853,1.792-1.563V90.58
			c-0.007,0.021-0.05,0.107-0.133,0.271s-0.271,0.322-0.563,0.479c-0.294,0.157-0.736,0.274-1.338,0.343
			c-1.015,0.145-1.792,0.366-2.321,0.684c-0.534,0.314-0.798,0.854-0.798,1.619c0.081,0.879,0.783,1.32,2.109,1.32
			C137.688,95.296,138.103,95.232,138.535,95.109z"/>
		<path fill="#FFFFFF" d="M199.817,97.133h-4.137V78.947h12.375v2.267h-8.238v5.308h6.869v2.265h-6.869V97.133z"/>
		<path fill="#FFFFFF" d="M229.634,97.133V84.138h3.673v1.604c0.016-0.014,0.088-0.104,0.223-0.27
			c0.138-0.172,0.347-0.348,0.619-0.533c0.271-0.185,0.64-0.354,1.106-0.523c0.5-0.209,1.144-0.312,1.918-0.312
			c0.596,0,0.974,0.028,1.12,0.08c0,0,0.619,1.98,0.316,1.875c-0.262-0.097-0.858-0.162-1.25-0.162
			c-0.843,0-1.546,0.158-2.104,0.478c-0.625,0.313-1.106,0.737-1.443,1.274c-0.333,0.539-0.505,1.037-0.505,1.486v8.002
			L229.634,97.133L229.634,97.133z"/>
		<path fill="#FFFFFF" d="M243.519,97.133V84.138h3.666v1.059c0.758-0.756,1.92-1.131,3.479-1.131c1.104,0,1.881,0.195,2.332,0.596
			c0.444,0.4,0.709,0.736,0.785,1.002c0-0.012,0.13-0.152,0.385-0.43c0.251-0.271,0.621-0.521,1.109-0.75
			c0.483-0.223,1.111-0.353,1.869-0.385c1.386,0,2.43,0.32,3.128,0.955c0.69,0.635,1.043,1.463,1.043,2.479v9.604h-2.813v-9.289
			c0-1.168-0.7-1.752-2.104-1.752c-0.737,0.051-1.262,0.316-1.576,0.801c-0.315,0.479-0.5,0.879-0.569,1.189v9.05h-2.806v-9.288
			c0-0.504-0.176-0.918-0.516-1.256c-0.348-0.331-0.877-0.496-1.604-0.496c-0.774,0.077-1.308,0.364-1.616,0.868
			c-0.307,0.504-0.479,0.92-0.525,1.233v8.938L243.519,97.133L243.519,97.133z"/>
		<path fill="#FFFFFF" d="M268.807,78.912c0.646,0,1.148,0.201,1.521,0.604c0.362,0.406,0.543,0.896,0.543,1.457
			c0,0.582-0.185,1.076-0.56,1.488c-0.369,0.41-0.883,0.617-1.545,0.617c-0.64,0-1.144-0.207-1.519-0.618
			c-0.377-0.417-0.563-0.897-0.563-1.444c0-0.564,0.188-1.05,0.563-1.473C267.63,79.123,268.149,78.912,268.807,78.912z
			 M266.97,97.133V84.138h3.627v12.995H266.97z"/>
		<path fill="#FFFFFF" d="M287.343,87.138v9.995h-2.729v-9.521c0-1.092-0.834-1.641-2.499-1.641
			c-0.81,0.098-1.396,0.354-1.753,0.762c-0.348,0.41-0.557,0.738-0.627,0.996v9.399h-3.674V84.135h3.674v1.062
			c0.054-0.031,0.228-0.146,0.518-0.348c0.296-0.191,0.723-0.375,1.261-0.537c0.544-0.166,1.173-0.248,1.89-0.248
			c1.355,0,2.349,0.307,2.991,0.928C287.021,85.611,287.343,86.332,287.343,87.138z"/>
		<path fill="#FFFFFF" d="M297.88,100.023c2.002,0,3.005-0.601,3.005-1.793v-1.68c-0.928,0.465-2.062,0.691-3.397,0.691
			c-0.979-0.036-1.813-0.194-2.5-0.479c-0.689-0.277-1.282-0.906-1.763-1.885c-0.485-0.973-0.729-2.408-0.729-4.3
			c0.049-1.959,0.358-3.414,0.935-4.365c0.573-0.956,1.22-1.553,1.938-1.794c0.722-0.238,1.543-0.354,2.479-0.354
			c0.514,0.022,0.979,0.108,1.415,0.254c0.428,0.146,0.811,0.312,1.146,0.49c0.325,0.166,0.484,0.258,0.484,0.266v-0.938h3.635
			V97.64c0,2.635-1.944,3.986-5.824,4.059c-1.389,0-2.538-0.117-3.439-0.354c-0.902-0.237-1.551-0.548-1.551-0.548
			s-0.557-2.199-0.273-2.021c0.389,0.248,0.832,0.438,1.625,0.734C295.853,99.802,296.795,99.976,297.88,100.023z M300.885,86.916
			c0-0.072-0.222-0.244-0.658-0.512c-0.438-0.271-0.926-0.453-1.484-0.551c-0.825,0-1.479,0.17-1.963,0.51
			c-0.485,0.342-0.836,0.854-1.045,1.543c-0.2,0.691-0.319,1.604-0.354,2.75c0,1.541,0.229,2.746,0.68,3.615
			c0.454,0.864,1.305,1.299,2.562,1.299c0.662-0.045,1.187-0.151,1.557-0.326c0.364-0.174,0.604-0.314,0.712-0.414L300.885,86.916
			L300.885,86.916z"/>
		<path fill="#FFFFFF" d="M177.937,97.133v-1.362c-0.104,0.236-0.438,0.527-1.022,0.877c-0.576,0.348-1.562,0.521-2.956,0.521
			c-1.188-0.042-2.178-0.352-2.964-0.912c-0.79-0.564-1.188-1.458-1.207-2.677c0-1.312,0.466-2.288,1.401-2.942
			c0.938-0.654,2.342-1.054,4.214-1.189c0.864-0.074,1.528-0.295,1.994-0.663c0.471-0.378,0.7-0.791,0.7-1.253
			c0-0.477-0.207-0.877-0.642-1.213c-0.431-0.338-1.013-0.506-1.735-0.506c-1.509,0-2.679,0.276-3.515,0.836
			c-0.834,0.551-1.548,1.459-1.642,1.396c-0.271-0.189,0.539-2.582,0.539-2.582c0-0.046,0.195-0.182,0.597-0.41
			c0.396-0.229,0.952-0.441,1.661-0.642c0.714-0.201,1.56-0.306,2.543-0.313c2.007,0,3.457,0.348,4.354,1.028
			c0.895,0.681,1.342,1.573,1.342,2.681v9.325H177.937z M176.146,95.109c1.191-0.328,1.79-0.853,1.79-1.563V90.58
			c-0.004,0.021-0.047,0.107-0.131,0.271c-0.082,0.162-0.271,0.322-0.563,0.479c-0.293,0.157-0.74,0.274-1.337,0.343
			c-1.014,0.145-1.789,0.366-2.324,0.684c-0.535,0.314-0.796,0.854-0.796,1.619c0.083,0.879,0.784,1.32,2.11,1.32
			C175.3,95.296,175.713,95.232,176.146,95.109z"/>
		<path fill="#FFFFFF" d="M220.543,97.133v-1.362c-0.104,0.236-0.438,0.527-1.023,0.877c-0.578,0.348-1.563,0.521-2.956,0.521
			c-1.188-0.042-2.175-0.352-2.96-0.912c-0.793-0.564-1.189-1.458-1.211-2.677c0-1.312,0.468-2.288,1.401-2.942
			c0.938-0.654,2.34-1.054,4.213-1.189c0.866-0.074,1.53-0.295,1.996-0.663c0.472-0.378,0.699-0.791,0.699-1.253
			c0-0.477-0.209-0.877-0.639-1.213c-0.434-0.338-1.016-0.506-1.74-0.506c-1.504,0-2.676,0.276-3.511,0.836
			c-0.836,0.551-1.549,1.459-1.644,1.396c-0.271-0.189,0.539-2.582,0.539-2.582c0-0.046,0.199-0.182,0.601-0.41
			c0.394-0.229,0.948-0.441,1.657-0.642c0.716-0.201,1.56-0.306,2.546-0.313c2.006,0,3.453,0.348,4.354,1.028
			c0.896,0.681,1.338,1.573,1.338,2.681v9.325H220.543z M218.751,95.109c1.194-0.328,1.792-0.853,1.792-1.563V90.58
			c-0.006,0.021-0.05,0.107-0.134,0.271c-0.08,0.162-0.271,0.322-0.562,0.479c-0.292,0.157-0.738,0.274-1.336,0.343
			c-1.018,0.145-1.791,0.366-2.324,0.684c-0.536,0.314-0.797,0.854-0.797,1.619c0.082,0.879,0.782,1.32,2.108,1.32
			C217.905,95.296,218.317,95.232,218.751,95.109z"/>
	</g>
	<g>
		<g>
			<path fill="#FFFFFF" d="M233.515,36.804c-1.356,1.521-2.477,2.918-3.743,4.166c-1.516,1.498-3.188,2.734-5.378,3.25
				c-1.076,0.258-2.067,0.408-3.117,0.158c-1.325-0.313-2.637-0.682-3.944-1.031c0.004-0.142,0.017-0.284,0.022-0.426
				c0.394-0.096,0.844-0.353,1.176-0.257c4.112,1.242,6.907-1.229,9.626-3.549c1.423-1.219,2.396-2.971,3.536-4.438
				c-2.603-3.195-6.207-4.857-10.771-2.081c-0.209-1.211,0.391-2.104,0.896-2.935c1.964-3.202,3.396-6.632,4.651-10.144
				c0.131-0.37,0.219-0.75,0.354-1.209c-1.524-0.59-3.061-0.438-4.551-0.597c-1.438-0.152-3.063,0.356-4.51-1.079
				c0.52-0.095,0.801-0.201,1.075-0.19c2.521,0.127,5.035,0.266,7.554,0.421c0.911,0.054,1.48-0.306,1.86-1.155
				c1.138-2.554,2.387-5.059,3.453-7.634c0.399-0.973,0.877-1.6,1.935-1.73c1.146-0.145,2.157,0.21,2.835,1.106
				c0.697,0.934,0.174,1.919-0.271,2.812c-0.995,2.021-2.034,4.03-3.05,6.051c-0.111,0.223-0.146,0.491-0.24,0.839
				c1.988,0.228,3.892,0.443,5.746,0.652c0.52-0.544,0.942-1.372,1.479-1.451c0.688-0.109,1.533,0.275,2.207,0.653
				c1.252,0.696,1.486,1.617,0.898,3.04c-1.934,4.665-3.921,9.303-6.998,13.377c-0.189,0.251-0.321,0.56-0.52,0.903
				c0.313,0.462,0.573,0.928,0.913,1.328c1.969,2.326,2.775,5.102,3.176,8.047c0.094,0.689,0.189,1.465-0.587,1.693
				c-0.479,0.138-1.132-0.095-1.625-0.334c-1.583-0.752-2.223-2.159-2.459-3.816C234.938,39.747,234.714,38.244,233.515,36.804z
				 M238.512,19.107c-1.785-0.245-3.29-0.403-4.772-0.672c-1.158-0.208-1.9,0.153-2.407,1.224c-1.478,3.095-2.999,6.173-4.496,9.236
				c2.097,1.026,4.146,2.031,6.285,3.074C235.343,27.988,236.847,23.74,238.512,19.107z"/>
			<path fill="#FFFFFF" d="M257.161,29.972c1.563,0.179,2.899,0.261,4.199,0.498c1.43,0.255,2.456-0.317,3.36-1.305
				c0.53-0.595,1.021-1.242,1.625-1.756c0.729-0.609,1.512-0.538,1.875,0.187c0.812,1.631,1.549,3.304,2.354,5.043
				c-0.945,0.768-2.091,0.603-3.175,0.442c-2.832-0.422-5.647-0.934-8.469-1.394c-0.642-0.105-1.295-0.148-2.146-0.248
				c-0.686,3.081-1.352,6.11-2.018,9.15c-0.516,2.336-1,4.682-1.538,7.014c-0.353,1.53-1.573,1.967-2.865,1.112
				c-2.373-1.575-4.763-3.128-7.136-4.709c-0.144-0.1-0.205-0.313-0.306-0.479c1.396-1.024,3.277-1.111,7.303-0.301
				c1.128-3.858,1.547-7.854,2.252-11.91c-1.736-0.696-3.464-0.545-5.157-0.64c-1.258-0.064-2.529-0.117-3.768-0.32
				c-0.651-0.107-1.248-0.522-1.809-1.061c3.592-0.403,7.107,0.087,10.927,0.188c0.124-1.099,0.418-2.197,0.324-3.267
				c-0.144-1.692-0.392-3.419-0.909-5.037c-0.318-0.999-0.158-1.348,0.667-1.886c2.675-1.738,5.313-3.537,7.889-5.431
				c0.919-0.669,1.995-1.354,2.341-2.882c-2.533-0.115-4.957-0.234-7.385-0.332c-1.265-0.054-2.534-0.01-3.791-0.109
				c-0.896-0.074-1.854-0.155-2.655-1.387c1.062,0.009,1.872,0.028,2.682,0.028c3.916,0.002,7.837,0.007,11.754-0.014
				c1.1-0.008,2.104,0.155,2.995,0.867c1.241,0.996,1.448,1.509,1.013,3.105c-0.179,0.642-0.339,1.303-0.622,1.895
				c-0.746,1.514-1.722,1.944-3.412,1.693c-0.501-0.075-1.05-0.113-1.534,0.004c-1.188,0.281-5.369,2.645-6.438,3.551
				C257.7,23.135,257.561,26.413,257.161,29.972z"/>
		</g>
		<g>
			<path fill="#FFFFFF" d="M282.289,63.631c1.827-0.229,3.377-0.426,5.175-0.657c-0.313-4.236,0.099-8.281-0.362-12.654
				c-2.438,0.431-4.558,0.81-6.83,1.213c-0.351,2.22-0.522,4.396-1.057,6.478c-0.514,2.009-0.977,4.247-2.196,5.802
				c-1.719,2.168-3.904,4.139-7.028,4.299c-0.912,0.049-1.819,0.221-2.788,0.346c-0.249-1.062,0.245-1.678,1.106-1.994
				c3.69-1.371,5.088-4.559,5.872-7.947c1.44-6.215,1.089-12.513,0.294-18.796c-0.035-0.248-0.078-0.503-0.165-0.737
				c-0.305-0.826-1.18-1.799-0.104-2.455c0.914-0.562,1.977-1.13,3.263-0.639c0.812,0.306,1.789,0.295,2.681,0.236
				c5.67-0.371,11.287-1.454,17.037-0.916c2.369,0.224,4.811-0.42,7.224-0.645c1.077-0.1,2.18-0.044,3.239-0.229
				c2.728-0.47,5.447-0.989,8.146-1.579c0.84-0.188,1.438-0.188,2.115,0.849c-0.705,0.307-1.246,0.704-1.818,0.766
				c-5.923,0.672-11.833,1.39-17.772,1.879c-3.165,0.26-6.378-0.021-9.554,0.185c-2.902,0.188-5.783,0.696-8.563,1.051
				c0.089,4.16,0.172,8.058,0.259,12.061c0.625-0.008,1.205,0.051,1.776-0.019c4.738-0.602,9.478-1.178,14.205-1.856
				c2.996-0.426,5.958-1.022,8.938-1.531c0.577-0.103,1.177-0.234,1.743-0.188c2.479,0.207,4.436-0.563,5.824-2.699
				c0.752-1.155,1.885-1.318,3.104-0.789c0.846,0.369,1.709,0.729,2.472,1.24c0.349,0.231,0.702,0.85,0.635,1.218
				c-0.062,0.343-0.646,0.788-1.054,0.846c-3.398,0.502-6.813,0.901-10.216,1.389c-2.897,0.413-5.794,0.9-8.696,1.379
				c-1.896,0.311-3.787,0.654-5.717,0.993c0.178,3.566-1.267,6.967-0.396,10.758c1.021-0.506,1.874-0.961,2.754-1.361
				c1.819-0.831,3.66-1.609,5.465-2.475c0.422-0.205,0.729-0.646,1.111-1.004c-0.961-2.09-3.563-2.764-4.352-5.189
				c2.354-0.459,4.073,0.179,5.665,1.408c1.102,0.858,2.258,1.66,3.709,2.714c1.099-1.809,2.091-3.331,2.958-4.917
				c0.717-1.293,1.494-1.679,3.578-1.464c1.178,0.115,2.332,1.012,2.537,2.095c0.083,0.459,0.074,1.126-0.187,1.422
				c-1.595,1.792-3.271,3.505-5.021,5.356c1.271,1.166,3.252,1.636,5.106,2.029c4.486,0.965,9.028,1.642,13.547,2.451
				c0.892,0.157,1.76,0.414,3.126,0.744c-0.618,0.78-0.896,1.473-1.366,1.661c-3.646,1.425-7.187,3.138-11.337,2.888
				c-1.858-0.111-3.49-0.48-4.922-1.521c-3.257-2.364-6.438-4.822-9.629-7.277c-1.277-0.986-1.932-1.236-2.762-0.057
				c-2.712,3.869-7.067,5.242-10.815,7.55c-0.998,0.61-1.982,1.233-2.938,1.914c-1.49,1.069-2.692,1.179-4.148,0.138
				c-0.814-0.576-1.596-1.248-2.262-1.988C282.573,65.029,282.544,64.41,282.289,63.631z"/>
			<path fill="#FFFFFF" d="M291.774,15.607c2.739,0.384,5.188,0.11,7.841-0.688c-0.14-1.802-0.272-3.534-0.437-5.546
				c0.659-0.269,1.383-0.742,2.147-0.836c1.378-0.171,2.869,0.344,4.052-0.884c0.113-0.124,0.771,0.118,1.049,0.351
				c0.137,0.115,0.059,0.789-0.104,0.869c-2.143,1.178-1.309,3.142-1.498,5.22c2.744-0.888,5.486-0.12,8.025-1.442
				c0.881-0.458,2.14-0.401,3.188-0.273c1.335,0.169,2.218,1.406,2.077,2.72c-0.418,3.994-0.903,7.983-1.33,11.979
				c-0.234,2.215-1.005,3.884-3.559,4.104c-0.555,0.052-1.074,0.413-1.813,0.72c-0.223-0.838-0.418-1.589-0.615-2.334
				c-4.821-0.127-32.396,3.818-35.229,5.144c-1.454-5.897-1.464-11.959-3.022-17.731c1.253-1.646,3.139-1.33,4.222-0.794
				c2.578,1.293,5.098,0.546,7.644,0.498c0.573-0.009,1.143-0.209,1.862-0.354c-0.271-2.112-0.533-4.155-0.786-6.159
				c1.655-0.997,5.104-1.203,7.803-0.231c-0.773,0.674-1.394,1.204-2.015,1.748C291.429,12.931,291.595,14.167,291.774,15.607z
				 M279.886,31.775c2.896-0.534,5.63-1.034,8.531-1.565c-0.389-2.15-0.729-4.001-1.093-5.996c-2.842,0.166-5.466,0.261-7.924,1.586
				C279.569,27.837,279.714,29.718,279.886,31.775z M312.183,21.153c-2.647,0.335-4.921,0.625-7.332,0.927
				c-0.07,2.188-0.137,4.236-0.211,6.544c2.409-0.303,4.59-0.581,6.906-0.879C311.758,25.532,311.951,23.496,312.183,21.153z
				 M299.888,22.984c-2.826-0.269-5.229,0.086-7.565,0.651c0.104,3.684,0.181,4.107,1.082,5.897c2.256-0.258,4.54-0.456,6.896-1.102
				C300.148,26.5,300.026,24.856,299.888,22.984z M279.498,23.771c2.62-0.33,4.998-0.635,7.491-0.954
				c-0.231-1.768-0.421-3.295-0.646-5.073c-2.17,0.074-4.172,0.102-6.155,0.239c-1.067,0.069-1.729,0.701-1.521,1.856
				C278.888,21.149,279.215,22.439,279.498,23.771z M312.344,14.631c-2.675,0.247-5.122-0.405-7.313,1.051
				c-0.184,1.625-0.581,3.167,0.174,4.805c2.312-0.488,4.702,0.29,6.988-1.114C312.234,17.92,312.287,16.443,312.344,14.631z
				 M292.442,22.176c2.615-0.332,4.812-0.608,7.318-0.929c-0.073-1.521-0.146-3.029-0.223-4.616
				c-2.415,0.117-4.477,0.203-6.538,0.327c-0.312,0.016-0.617,0.186-1.171,0.362C292.022,18.857,292.222,20.364,292.442,22.176z"/>
			<path fill="#FFFFFF" d="M283.253,43.604c2.336-0.545,4.646-1.259,7.007-1.593c3.568-0.505,7.179-0.711,10.762-1.103
				c1.743-0.19,3.465-0.543,5.205-0.771c1.646-0.213,2.98-0.943,4.201-2.071c1.623-1.521,4.586-1.349,6.041,0.263
				c0.547,0.606,0.4,1.314-0.379,1.568c-0.561,0.182-1.152,0.225-1.732,0.313c-4.307,0.688-8.605,1.414-12.92,2.043
				c-2.318,0.348-4.682,0.486-7.011,0.796c-3.32,0.434-6.634,0.945-9.946,1.398c-0.373,0.047-0.766-0.053-1.144-0.08
				C283.306,44.113,283.282,43.856,283.253,43.604z"/>
		</g>
		<g>
			<path fill="#FFFFFF" d="M215.717,54.74c-0.257,0.033-0.514,0.127-0.767,0.273c-0.388,0.227-0.753,0.395-1.104,0.52
				c-0.35,0.123-0.706,0.238-1.055,0.348c-0.548,0.174-1.105,0.352-1.647,0.575c-0.394,0.159-0.682,0.142-1.1-0.101
				c-0.269-0.154-0.533-0.305-0.812-0.453c-0.372-0.209-0.762-0.42-1.135-0.646c-0.462-0.278-0.91-0.575-1.379-0.896
				c-0.134-0.084-0.267-0.172-0.398-0.26c0.017-0.017,0.021-0.031,0.034-0.043c0.182-0.205,0.357-0.412,0.544-0.619
				c0.395-0.438,0.807-0.897,1.159-1.387c0.725-0.993,1.253-2.071,1.831-3.271c0.302-0.643,0.114-1.295-0.506-1.755
				c-0.769-0.571-1.63-0.596-2.366-0.577c-0.129,0.003-0.245,0.017-0.35,0.028c-0.573,0.085-0.895,0.383-1.092,1.036
				c-0.067,0.204-0.103,0.413-0.138,0.619c-0.023,0.132-0.049,0.265-0.078,0.396c-0.192,0.805-0.622,1.493-1.073,2.215
				c-0.078,0.128-0.146,0.247-0.228,0.369c-0.117,0.194-0.266,0.375-0.413,0.566c-0.018,0.017-0.027,0.033-0.043,0.048
				c-1.393-1.214-3.507-4.082-3.912-5.145c0.013-0.005,0.021-0.008,0.032-0.01c0.205-0.075,0.396-0.143,0.587-0.177
				c0.247-0.044,0.495-0.084,0.744-0.124c0.312-0.043,0.581-0.072,0.839-0.085c0.361-0.012,0.73-0.056,1.127-0.106
				c1.121-0.166,2.219-0.47,3.281-0.765c0.314-0.083,0.637-0.173,0.949-0.262c0.474-0.118,0.936-0.249,1.397-0.37
				c1.055-0.289,2.143-0.577,3.215-0.835c0.567-0.133,1.006-0.406,1.354-0.85l0.109-0.136l-0.084-0.156
				c-0.455-0.841-0.81-1.172-1.582-1.475c-0.043-0.02-0.087-0.035-0.135-0.053c-0.156-0.059-0.304-0.109-0.404-0.192
				c-0.412-0.325-0.874-0.4-1.322-0.472l-0.188-0.031c-0.719-0.123-1.234,0.165-1.579,0.89c-0.12,0.256-0.251,0.507-0.383,0.754
				c-0.12,0.232-0.247,0.466-0.363,0.699c-0.105,0.231-0.206,0.317-0.397,0.349c-0.429,0.076-0.847,0.191-1.252,0.306l-0.209,0.058
				c-0.16,0.039-0.319,0.095-0.479,0.147c-0.238,0.076-0.468,0.154-0.7,0.199c-0.964,0.181-1.934,0.359-2.896,0.529
				c-0.797,0.15-1.592,0.291-2.392,0.443c-0.104,0.02-0.196,0.037-0.274,0.049c-0.248,0.036-0.248,0.036-0.435-0.427
				c-0.082-0.193-0.141-0.396-0.196-0.617c-0.111-0.372-0.227-0.763-0.441-1.101c-0.292-0.438-0.428-0.924-0.568-1.437
				c-0.049-0.17-0.092-0.341-0.146-0.512c-0.092-0.295-0.174-0.599-0.263-0.915c-0.02-0.062-0.032-0.127-0.049-0.185l1.231-0.321
				c1.688-0.435,3.39-0.875,5.089-1.31c0.129-0.033,0.271-0.052,0.405-0.065c0.005,0.072,0.018,0.143,0.022,0.207
				c0.046,0.31,0.076,0.603,0.14,0.891c0.128,0.644,0.511,0.986,1.021,0.915c0.188-0.024,0.379-0.107,0.578-0.241
				c0.341-0.229,0.675-0.493,1.028-0.808c0.176-0.154,0.408-0.394,0.472-0.682l0.04-0.202c0.144-0.682,0.286-1.388,0.314-2.097
				c0.026-0.664,0.004-1.34-0.021-1.988c-0.008-0.385-0.021-0.769-0.026-1.149c0-0.1,0.021-0.213,0.046-0.331
				c0.031-0.179,0.074-0.376,0.043-0.58c-0.146-0.848-0.066-1.682,0.004-2.558c0.049-0.562,0.098-1.133,0.094-1.71
				c-0.021-0.748,0-1.471,0.357-2.121c0.037-0.069,0.132-0.26,0.104-0.455c-0.017-0.095-0.021-0.194-0.026-0.299
				c-0.019-0.341-0.037-0.688-0.275-0.897c-0.481-0.43-1.03-0.846-1.789-0.98c-0.758-0.131-1.479-0.082-2.248,0.159
				c-0.237,0.07-0.468,0.17-0.687,0.262c-0.232,0.101-0.448,0.188-0.682,0.26c-1.241,0.375-2.51,0.729-3.738,1.072l-0.062,0.019
				c-0.858,0.237-1.719,0.481-2.577,0.714l-1.308,0.354c-0.028,0.011-0.062,0.019-0.093,0.026c-0.111,0.018-0.255,0.046-0.368,0.15
				c-0.358,0.327-0.82,0.424-1.31,0.524c-0.158,0.033-0.324,0.072-0.49,0.112c0.349-0.219,0.63-0.495,0.904-0.76
				c0.12-0.128,0.252-0.251,0.383-0.367c0.238-0.209,0.533-0.378,0.805-0.461c0.652-0.199,1.201-0.572,1.729-0.93
				c0.253-0.172,0.516-0.35,0.776-0.502c0.082-0.046,0.152-0.102,0.209-0.154c0.104-0.094,0.151-0.128,0.256-0.12
				c0.308,0.02,0.726-0.333,0.789-0.631c0.129-0.596,0.476-1.07,0.838-1.58c0.094-0.129,0.183-0.253,0.269-0.377
				c0.336-0.491,0.367-0.932,0.127-1.431c-0.088-0.169-0.174-0.33-0.271-0.481c0.754-0.155,1.542-0.312,2.351-0.432
				c0.781-0.113,1.485-0.174,2.149-0.187c0.182-0.002,0.368-0.045,0.494-0.12c0.226-0.145,0.472-0.229,0.787-0.275
				c0.131-0.018,0.267-0.03,0.438-0.038c0.369-0.015,0.737-0.24,0.971-0.584c0.187-0.271,0.257-0.565,0.191-0.83
				c-0.152-0.628-0.438-1.377-1.343-1.631l-0.056-0.017c-0.477-0.13-0.932-0.254-1.2-0.657c-0.113-0.163-0.311-0.218-0.464-0.266
				l-0.076-0.024c-0.211-0.066-0.424-0.086-0.626-0.06c-0.404,0.06-0.723,0.29-1.02,0.514l-0.087,0.067l-0.015,0.115
				c-0.088,0.754-0.161,0.924-0.659,1.478c-0.028,0.035-0.063,0.063-0.099,0.093c-0.104,0.106-0.226,0.217-0.281,0.377
				c-0.093,0.242-0.229,0.306-0.61,0.369c-1.188,0.212-2.375,0.454-3.522,0.688c-1.392,0.278-2.831,0.586-4.305,0.898
				c-0.933,0.201-1.905,0.426-2.988,0.674c-0.2,0.048-0.397,0.109-0.595,0.167c-0.329,0.099-0.637,0.188-0.951,0.221
				c-0.102,0.013-0.188,0.023-0.268,0.033c-0.275,0.044-0.561,0.108-0.704,0.335c-0.166,0.248-0.12,0.568,0.021,1.108l0.058,0.218
				l0.227-0.018c0.207-0.021,0.418-0.026,0.625-0.038c0.506-0.021,1.057-0.063,1.473-0.198c1.146-0.375,2.359-0.617,3.53-0.856
				c0.291-0.053,0.582-0.118,0.872-0.174c0.176-0.037,0.362-0.073,0.588-0.104c0.167-0.024,0.337-0.045,0.501-0.069
				c0.104-0.011,0.213-0.031,0.322-0.04c0.321,0.435,0.342,0.798,0.073,1.185c-0.122,0.186-0.248,0.368-0.375,0.554
				c-0.312,0.464-0.642,0.945-0.978,1.407c-0.175,0.236-0.41,0.446-0.641,0.654l-0.05,0.041c-0.273,0.253-0.56,0.495-0.84,0.736
				c-0.543,0.467-1.104,0.954-1.621,1.465c-0.325,0.318-0.64,0.482-1.029,0.547c-0.186,0.024-0.38,0.028-0.577,0.032
				c-0.09,0.003-0.176,0.003-0.263,0.004c-0.172,0.007-0.318,0.019-0.446,0.035c-0.271,0.043-0.652,0.128-0.813,0.456
				c-0.175,0.369,0.032,0.825,0.262,1.226c0.271,0.475,0.441,0.979,0.531,1.587l0.1,0.673c0.175,1.158,0.354,2.36,0.51,3.539
				c0.093,0.753,0.186,1.505,0.273,2.267c0.14,1.157,0.274,2.352,0.442,3.524c0.07,0.457,0.271,0.875,0.467,1.284
				c0.047,0.103,0.091,0.199,0.134,0.291c0.117,0.26,0.495,0.322,0.606,0.338c0.241,0.027,0.479,0.024,0.699-0.008l0.043-0.008
				c0.383-0.063,0.758-0.138,1.153-0.219c0.099-0.019,0.198-0.04,0.306-0.061c0.036,0.058,0.074,0.123,0.119,0.175
				c0.157,0.237,0.311,0.456,0.417,0.695c0.188,0.429,0.356,0.883,0.523,1.319c0.13,0.345,0.261,0.688,0.405,1.027
				c0.161,0.394,0.341,0.776,0.53,1.173c0.048,0.111,0.097,0.214,0.146,0.322c-0.049,0.023-0.082,0.048-0.11,0.059
				c-0.225,0.057-0.445,0.11-0.663,0.166c-0.337,0.08-0.679,0.159-1.014,0.265c-1.135,0.336-2.28,0.699-3.396,1.049l-0.461,0.146
				c-0.422,0.13-0.836,0.271-1.22,0.413c-0.215,0.077-0.379,0.229-0.467,0.417c-0.082,0.182-0.088,0.389-0.016,0.59
				c0.104,0.269,0.497,0.479,0.769,0.473c0.309-0.002,0.612-0.093,0.896-0.177l0.109-0.032c0.182-0.055,0.36-0.116,0.538-0.184
				c0.228-0.08,0.438-0.152,0.652-0.209c0.627-0.164,1.25-0.315,1.877-0.471c0.996-0.247,2.022-0.506,3.03-0.778
				c0.284-0.077,0.45-0.042,0.63,0.183c0.111,0.143,0.226,0.277,0.342,0.417c0.223,0.266,0.438,0.522,0.621,0.795
				c0.835,1.252,1.812,2.431,2.978,3.592c0.44,0.439,0.853,0.903,1.28,1.391c0.155,0.168,0.308,0.334,0.462,0.512
				c-0.056,0.086-0.099,0.17-0.146,0.213c-0.259,0.229-0.506,0.465-0.761,0.691c-0.734,0.678-1.498,1.383-2.298,2.01
				c-0.459,0.359-0.998,0.66-1.521,0.945c-0.229,0.12-0.457,0.248-0.683,0.381c-0.198,0.108-0.648,0.379-0.525,0.932
				c0.096,0.445,0.465,0.699,0.96,0.664c0.472-0.032,0.874-0.098,1.229-0.209c0.438-0.133,0.875-0.271,1.305-0.414
				c0.55-0.182,1.114-0.36,1.679-0.521c0.491-0.134,0.891-0.359,1.255-0.72c0.517-0.509,1.056-1.009,1.566-1.488
				c0.162-0.153,0.324-0.31,0.484-0.458l0.653,0.373c0.593,0.34,1.171,0.674,1.744,1.001c0.466,0.267,0.937,0.521,1.4,0.779
				c1.038,0.567,2.111,1.159,3.12,1.802c0.734,0.473,1.414,0.449,1.983,0.363c0.163-0.021,0.322-0.053,0.487-0.086
				c0.286-0.061,0.572-0.196,0.772-0.383c0.604-0.537,1.113-1.023,1.552-1.486c0.878-0.936,1.378-2.1,1.869-3.217l0.125-0.301
				l-0.208-0.119C216.778,54.795,216.242,54.664,215.717,54.74z M191.651,33.351c0.043-0.021,0.088-0.038,0.125-0.054
				c0.252-0.102,0.486-0.201,0.726-0.267c0.503-0.146,1.018-0.279,1.513-0.416c0.999-0.265,2.031-0.538,3.02-0.9
				c0.957-0.356,2.024-0.611,3.354-0.802c0.114-0.018,0.231-0.033,0.352-0.052l0.05-0.003c0.263-0.04,0.521-0.104,0.771-0.164
				c0.146-0.034,0.291-0.072,0.438-0.098c0.291-0.062,0.583-0.117,0.931-0.188l0.191-0.035l-0.038,1.596
				c-0.045,0.035-0.095,0.071-0.138,0.085c-1.616,0.564-3.254,1.125-4.852,1.668c-0.886,0.296-1.765,0.49-2.694,0.597
				c-0.791,0.087-1.577,0.282-2.329,0.481c-0.325,0.08-0.649,0.163-0.973,0.239c-0.099,0.019-0.188,0.046-0.291,0.072
				c-0.144-0.226-0.135-0.481-0.105-0.853C191.719,33.978,191.743,33.661,191.651,33.351z M203.19,27.082
				c0.006,0.316-0.004,0.64-0.021,0.981c0,0.119-0.005,0.241-0.009,0.368c-0.04,0.027-0.101,0.067-0.119,0.074
				c-0.105,0.003-0.224,0.014-0.338,0.031c-0.408,0.06-0.793,0.189-1.166,0.315c-0.356,0.123-0.703,0.244-1.062,0.29l-0.029,0.011
				c-0.729,0.093-1.457,0.213-2.188,0.327l-0.484,0.078c-0.163,0.029-0.317,0.08-0.478,0.129c-0.291,0.103-0.584,0.211-0.867,0.314
				c-0.61,0.23-1.237,0.456-1.863,0.631c-0.719,0.192-1.441,0.334-2.204,0.489c-0.256,0.048-0.521,0.1-0.78,0.153
				c-0.146-0.604-0.093-1.186-0.044-1.792c0.023-0.237,0.044-0.485,0.054-0.736c0.177-0.039,0.343-0.076,0.507-0.111
				c0.565-0.132,1.102-0.259,1.642-0.398c0.287-0.075,0.561-0.179,0.82-0.269c0.104-0.041,0.215-0.084,0.322-0.122
				c0.112-0.043,0.229-0.086,0.344-0.128c0.23-0.091,0.456-0.175,0.679-0.23c0.077-0.016,0.15-0.031,0.224-0.049
				c0.475-0.103,0.958-0.204,1.397-0.568c0.118-0.093,0.312-0.131,0.53-0.179c0.119-0.026,0.244-0.049,0.366-0.086
				c0.37-0.115,0.729-0.264,1.077-0.398c0.617-0.252,1.205-0.482,1.834-0.575h0.02c0.107-0.019,0.229-0.038,0.337-0.055
				c0.226-0.04,0.44-0.076,0.673-0.092c0.438-0.03,0.676,0.14,0.759,0.537c0.066,0.301,0.07,0.643,0.07,0.975L203.19,27.082
				L203.19,27.082z M192.021,38.679c-0.058-0.49-0.106-0.951-0.145-1.416c-0.011-0.114-0.006-0.183,0.221-0.26
				c1.271-0.432,2.483-0.726,3.703-0.901l0.221-0.031c1.578-0.228,2.758-0.556,3.826-1.062c0.562-0.263,1.176-0.472,1.767-0.668
				c0.286-0.099,0.58-0.196,0.864-0.301c0.247-0.084,0.444-0.078,0.647,0.039l0.062,1.878c-0.154,0.052-0.306,0.097-0.45,0.146
				c-0.438,0.145-0.854,0.276-1.273,0.396c-1.657,0.468-3.295,0.925-4.942,1.364c-0.386,0.101-0.782,0.179-1.172,0.252
				c-0.335,0.063-0.683,0.136-1.021,0.215c-0.41,0.104-0.782,0.243-1.104,0.413c-0.242,0.133-0.499,0.184-0.72,0.215
				c-0.099,0.011-0.188,0.023-0.292,0.033c-0.049,0.007-0.102,0.008-0.148,0.018C192.044,38.898,192.028,38.783,192.021,38.679z"/>
			<path fill="#FFFFFF" d="M181.902,34.652c-0.71-0.008-1.281-0.051-1.803-0.123c-0.521-0.07-0.851,0.07-1.096,0.443
				c-0.229,0.35-0.569,0.558-1.135,0.69c-0.785,0.181-1.576,0.396-2.326,0.634c-0.269,0.083-0.521,0.19-0.769,0.296
				c-0.258,0.107-0.506,0.212-0.762,0.283c-0.675,0.205-1.359,0.38-2.029,0.549c-0.258,0.07-0.518,0.142-0.771,0.205
				c-0.188,0.053-0.38,0.099-0.57,0.145l-0.062,0.015c-0.027-0.055-0.044-0.104-0.055-0.141c-0.187-0.825-0.669-1.241-1.471-1.281
				c-0.392-0.021-0.771-0.105-1.177-0.194c-0.154-0.031-0.309-0.062-0.457-0.096c-0.731-0.143-1.27,0.062-1.771,0.642l-0.12,0.147
				l0.098,0.167c0.062,0.1,0.111,0.207,0.16,0.313c0.135,0.283,0.271,0.576,0.529,0.75c0.271,0.188,0.415,0.399,0.493,0.729
				c0.103,0.399,0.188,0.835,0.283,1.368c0.136,0.757,0.213,1.54,0.291,2.291c0.103,1.007,0.208,2.041,0.439,3.051
				c0.207,0.909,0.329,1.854,0.456,2.771c0.06,0.452,0.119,0.901,0.188,1.345c0.045,0.281,0.088,0.574,0.185,0.852
				c0.188,0.513,0.554,0.765,1.023,0.695c0.132-0.019,0.271-0.064,0.418-0.139c0.062-0.025,0.119-0.063,0.179-0.1
				c0.075-0.046,0.151-0.09,0.206-0.101c1.263-0.204,2.312-0.857,3.259-1.53c0.696-0.505,1.477-0.808,2.336-1.129
				c0.401-0.152,0.817-0.279,1.229-0.408c0.248-0.078,0.492-0.155,0.742-0.236c0.137-0.051,0.271-0.105,0.406-0.156
				c0.232-0.097,0.447-0.183,0.665-0.226c0.043-0.011,0.087-0.018,0.128-0.021c0.146-0.021,0.188-0.006,0.188-0.006
				c0.021,0.016,0.055,0.099,0.1,0.357c0.17,1.031,0.339,1.195,1.373,1.379c0.062,0.009,0.11,0.018,0.165,0.022
				c1.012,0.11,2.271-0.725,2.15-1.921c-0.023-0.195-0.029-0.391-0.035-0.592c-0.01-0.213-0.021-0.442-0.043-0.666
				c-0.121-1.146-0.051-2.313,0.021-3.442c0.028-0.449,0.056-0.903,0.072-1.354c0.021-0.511,0.104-1.002,0.19-1.524
				c0.104-0.682,0.228-1.388,0.188-2.124c-0.004-0.093-0.011-0.192-0.011-0.285c-0.021-0.352-0.029-0.709-0.116-1.071
				C183.261,34.947,182.907,34.662,181.902,34.652z M171.517,45.326c-0.056-0.334-0.107-0.66-0.146-0.979
				c-0.146-1.226-0.289-2.687-0.246-4.19c0-0.103-0.008-0.21-0.013-0.317c-0.01-0.117-0.03-0.327,0.005-0.376
				c0.055-0.063,0.276-0.105,0.428-0.139c0.081-0.014,0.169-0.035,0.248-0.051c0.324-0.088,0.648-0.169,0.978-0.251
				c0.495-0.126,0.987-0.249,1.479-0.382c0.244-0.069,0.487-0.16,0.729-0.249c0.161-0.062,0.317-0.118,0.479-0.17
				c0.269-0.086,0.527-0.175,0.797-0.26c0.851-0.28,1.729-0.569,2.604-0.818c0.094-0.025,0.173-0.047,0.243-0.056
				c0.104-0.016,0.181-0.013,0.213,0.013c0.035,0.031,0.094,0.128,0.122,0.474c0.059,0.766,0.066,1.559,0.082,2.323l0.011,0.574
				c0.021,0.963,0.021,1.925,0.034,2.889l0.007,0.32c0,0.129-0.014,0.257-0.021,0.384c0,0.063-0.006,0.132-0.01,0.196
				c-0.026,0.583-0.408,1.01-1.017,1.134c-0.578,0.117-1.106,0.342-1.614,0.56c-0.453,0.194-0.88,0.37-1.336,0.482
				c-0.378,0.1-0.734,0.248-1.072,0.401c-0.428,0.184-0.826,0.358-1.269,0.421l-0.024,0.004c-0.317,0.046-0.604,0.208-0.883,0.363
				c-0.138,0.072-0.269,0.148-0.393,0.205c-0.068,0.029-0.145,0.049-0.23,0.074C171.788,46.99,171.653,46.149,171.517,45.326z"/>
			<path fill="#FFFFFF" d="M216.081,36.86c-0.256-0.507-0.583-0.99-0.895-1.452c-0.104-0.153-0.198-0.31-0.3-0.46
				c-0.324-0.499-0.729-0.752-1.234-0.776c-0.166-0.01-0.336-0.032-0.513-0.056c-0.326-0.049-0.663-0.098-1.001-0.052l-0.104,0.016
				c-1.098,0.155-2.11,0.505-2.083,1.959v0.169l0.159,0.07c0.099,0.037,0.195,0.073,0.293,0.107
				c0.179,0.062,0.344,0.124,0.455,0.209c0.742,0.613,1.341,1.352,1.775,2.203c0.342,0.657,0.522,0.816,1.276,0.771l0.039-0.003
				c0.11-0.009,0.219-0.017,0.289,0.01c0.221,0.073,0.452,0.099,0.69,0.062c0.315-0.044,0.604-0.182,0.865-0.322
				c0.313-0.168,0.656-0.616,0.649-0.989C216.454,37.852,216.313,37.317,216.081,36.86z"/>
		</g>
		<g>
			<path fill="#FFFFFF" d="M156.61,60.607c-0.329-0.029-0.675,0.016-1.021,0.125c-0.539,0.168-1.026,0.275-1.5,0.334
				c-0.455,0.053-0.935,0.094-1.389,0.139c-0.714,0.057-1.455,0.115-2.181,0.246c-0.528,0.09-0.878-0.021-1.319-0.432
				c-0.286-0.265-0.577-0.521-0.873-0.777c-0.406-0.354-0.82-0.729-1.216-1.104c-0.489-0.479-0.957-0.968-1.446-1.482
				c-0.137-0.141-0.274-0.293-0.412-0.437c0.017-0.014,0.034-0.026,0.052-0.042c0.272-0.21,0.562-0.404,0.844-0.611
				c0.604-0.428,1.236-0.871,1.812-1.373c1.154-1.021,2.105-2.191,3.146-3.513c0.561-0.698,0.506-1.558-0.127-2.291
				c-0.791-0.912-1.828-1.183-2.752-1.364c-0.16-0.032-0.297-0.052-0.431-0.063c-0.729-0.06-1.2,0.221-1.631,0.965
				c-0.138,0.239-0.233,0.486-0.34,0.722c-0.068,0.153-0.132,0.316-0.205,0.466c-0.463,0.934-1.181,1.663-1.938,2.428
				c-0.126,0.126-0.251,0.257-0.374,0.382c-0.199,0.209-0.43,0.395-0.665,0.58c-0.022,0.018-0.048,0.038-0.071,0.055
				c-1.365-1.879-3.165-5.988-3.368-7.407c0.017,0,0.026,0,0.042-0.003c0.27-0.032,0.524-0.062,0.771-0.05
				c0.317,0.016,0.635,0.026,0.951,0.053c0.389,0.03,0.733,0.075,1.049,0.127c0.447,0.08,0.918,0.14,1.412,0.18
				c1.422,0.11,2.854,0.045,4.239-0.021c0.414-0.02,0.832-0.04,1.245-0.056c0.604-0.022,1.212-0.047,1.813-0.074
				c1.375-0.056,2.793-0.118,4.182-0.125c0.736-0.012,1.343-0.226,1.899-0.672l0.169-0.138l-0.061-0.212
				c-0.318-1.16-0.667-1.665-1.526-2.253c-0.052-0.032-0.102-0.065-0.151-0.1c-0.174-0.112-0.339-0.221-0.438-0.347
				c-0.416-0.52-0.97-0.735-1.491-0.943l-0.232-0.094c-0.847-0.352-1.554-0.142-2.181,0.656c-0.219,0.273-0.451,0.545-0.688,0.815
				c-0.209,0.247-0.426,0.503-0.635,0.758c-0.198,0.25-0.342,0.327-0.583,0.319c-0.55-0.028-1.1,0-1.633,0.022l-0.266,0.013
				c-0.22,0.011-0.419,0.027-0.635,0.049c-0.317,0.032-0.623,0.062-0.919,0.048c-1.229-0.04-2.466-0.094-3.7-0.147
				c-1.02-0.043-2.04-0.087-3.057-0.127c-0.144-0.002-0.261-0.011-0.354-0.016c-0.312-0.027-0.312-0.027-0.412-0.639
				c-0.039-0.263-0.062-0.531-0.074-0.812c-0.026-0.498-0.063-1.004-0.235-1.479c-0.231-0.626-0.265-1.25-0.293-1.919
				c-0.015-0.224-0.021-0.442-0.043-0.666c-0.025-0.396-0.048-0.789-0.063-1.199c0-0.082-0.007-0.16-0.014-0.243l1.605-0.049
				c2.195-0.064,4.4-0.131,6.613-0.193c0.169-0.008,0.345,0.011,0.51,0.03c-0.006,0.089-0.015,0.177-0.022,0.264
				c-0.031,0.392-0.065,0.763-0.069,1.126c-0.026,0.832,0.348,1.361,0.998,1.409c0.231,0.019,0.496-0.026,0.771-0.134
				c0.484-0.188,0.972-0.42,1.489-0.708c0.253-0.142,0.617-0.37,0.765-0.706l0.104-0.231c0.363-0.8,0.744-1.626,0.979-2.49
				c0.212-0.811,0.374-1.641,0.523-2.447c0.092-0.475,0.179-0.948,0.282-1.417c0.025-0.125,0.087-0.251,0.146-0.396
				c0.092-0.205,0.196-0.442,0.215-0.701c0.06-1.079,0.377-2.079,0.713-3.139c0.222-0.671,0.438-1.368,0.582-2.075
				c0.195-0.922,0.414-1.805,1.035-2.499c0.071-0.082,0.231-0.286,0.252-0.531c0.011-0.115,0.028-0.247,0.058-0.372
				c0.069-0.426,0.143-0.861-0.084-1.18c-0.479-0.665-1.044-1.33-1.935-1.701c-0.894-0.377-1.797-0.519-2.809-0.433
				c-0.308,0.024-0.616,0.078-0.911,0.132c-0.313,0.057-0.606,0.108-0.907,0.127c-1.627,0.117-3.284,0.203-4.892,0.284l-0.084,0.003
				c-1.115,0.059-2.235,0.109-3.354,0.163l-1.707,0.074c-0.032,0.005-0.078,0-0.117,0c-0.141-0.007-0.321-0.013-0.49,0.08
				c-0.536,0.302-1.129,0.292-1.754,0.287c-0.204-0.006-0.419-0.006-0.636,0.002c0.485-0.173,0.909-0.438,1.323-0.69
				c0.188-0.115,0.379-0.235,0.571-0.342c0.354-0.195,0.758-0.319,1.104-0.346c0.865-0.062,1.637-0.363,2.384-0.656
				c0.358-0.143,0.729-0.286,1.096-0.396c0.121-0.038,0.213-0.091,0.299-0.138c0.163-0.079,0.229-0.11,0.353-0.072
				c0.364,0.105,0.979-0.204,1.146-0.558c0.318-0.691,0.874-1.188,1.467-1.708c0.146-0.132,0.293-0.259,0.432-0.387
				c0.548-0.509,0.717-1.04,0.552-1.721c-0.054-0.231-0.126-0.456-0.193-0.673c0.968,0.022,1.981,0.051,2.994,0.127
				c0.996,0.082,1.879,0.202,2.706,0.369c0.214,0.047,0.456,0.047,0.631-0.015c0.315-0.114,0.646-0.147,1.044-0.114
				c0.166,0.011,0.341,0.042,0.549,0.074c0.456,0.078,0.979-0.093,1.354-0.447c0.301-0.28,0.469-0.621,0.461-0.971
				c-0.008-0.809-0.149-1.81-1.188-2.374l-0.062-0.029c-0.549-0.294-1.074-0.572-1.306-1.147c-0.088-0.227-0.312-0.352-0.481-0.448
				l-0.09-0.052c-0.237-0.137-0.494-0.225-0.756-0.242c-0.51-0.042-0.966,0.146-1.386,0.342l-0.131,0.057l-0.045,0.137
				c-0.321,0.905-0.457,1.088-1.226,1.631c-0.043,0.035-0.099,0.062-0.146,0.097c-0.152,0.096-0.333,0.201-0.453,0.379
				c-0.175,0.268-0.369,0.309-0.851,0.28c-1.515-0.071-3.044-0.104-4.521-0.132c-1.779-0.036-3.644-0.066-5.528-0.087
				c-1.205-0.016-2.462-0.016-3.857-0.002c-0.266,0.002-0.521,0.018-0.771,0.033c-0.435,0.032-0.845,0.06-1.241,0.01
				c-0.12-0.01-0.23-0.025-0.329-0.031c-0.354-0.031-0.713-0.023-0.961,0.219c-0.268,0.258-0.306,0.656-0.28,1.361l0.01,0.288
				l0.281,0.034c0.259,0.032,0.521,0.084,0.776,0.129c0.627,0.115,1.313,0.213,1.865,0.164c1.519-0.141,3.066-0.103,4.562-0.07
				c0.378,0.009,0.757,0.021,1.13,0.025c0.228,0.002,0.463,0.014,0.75,0.037c0.207,0.016,0.422,0.034,0.631,0.056
				c0.143,0.017,0.274,0.03,0.408,0.044c0.274,0.618,0.197,1.072-0.229,1.477c-0.211,0.188-0.415,0.378-0.619,0.572
				c-0.517,0.481-1.043,0.986-1.58,1.459c-0.281,0.238-0.633,0.431-0.979,0.625l-0.069,0.039c-0.408,0.228-0.82,0.445-1.232,0.666
				c-0.797,0.422-1.612,0.857-2.396,1.346c-0.486,0.301-0.914,0.421-1.414,0.386c-0.233-0.018-0.474-0.066-0.722-0.12
				c-0.104-0.023-0.214-0.046-0.323-0.067c-0.216-0.039-0.396-0.06-0.56-0.074c-0.347-0.032-0.837-0.025-1.123,0.327
				c-0.318,0.398-0.188,1.023-0.021,1.574c0.206,0.661,0.269,1.326,0.21,2.098l-0.063,0.854c-0.108,1.473-0.224,2.994-0.369,4.485
				c-0.085,0.956-0.188,1.903-0.287,2.856c-0.147,1.456-0.309,2.97-0.42,4.455c-0.051,0.581,0.075,1.155,0.204,1.707
				c0.027,0.136,0.063,0.265,0.087,0.397c0.072,0.343,0.517,0.524,0.649,0.576c0.291,0.101,0.58,0.164,0.863,0.185l0.049,0.003
				c0.49,0.03,0.974,0.04,1.479,0.057c0.126,0.002,0.26,0.007,0.389,0.009c0.032,0.085,0.062,0.168,0.104,0.248
				c0.123,0.332,0.246,0.651,0.312,0.968c0.114,0.583,0.205,1.18,0.284,1.769c0.063,0.454,0.133,0.91,0.218,1.37
				c0.084,0.528,0.203,1.044,0.319,1.59c0.031,0.145,0.065,0.287,0.097,0.438c-0.063,0.017-0.111,0.032-0.149,0.034
				c-0.289,0.01-0.577,0.018-0.869,0.021c-0.429,0.007-0.869,0.012-1.311,0.04c-1.487,0.104-2.997,0.233-4.458,0.357l-0.606,0.047
				c-0.56,0.042-1.098,0.103-1.604,0.167c-0.286,0.035-0.528,0.176-0.688,0.383c-0.155,0.203-0.225,0.455-0.186,0.722
				c0.054,0.362,0.478,0.728,0.812,0.795c0.379,0.081,0.776,0.053,1.155,0.027l0.14-0.008c0.243-0.018,0.479-0.039,0.723-0.073
				c0.295-0.033,0.574-0.064,0.854-0.076c0.813-0.023,1.623-0.037,2.437-0.056c1.29-0.029,2.619-0.059,3.938-0.115
				c0.373-0.011,0.563,0.069,0.725,0.4c0.1,0.205,0.197,0.404,0.304,0.606c0.196,0.392,0.393,0.763,0.537,1.15
				c0.685,1.772,1.555,3.483,2.658,5.241c0.42,0.655,0.801,1.338,1.189,2.052c0.142,0.249,0.279,0.504,0.416,0.756
				c-0.086,0.1-0.164,0.184-0.235,0.225c-0.374,0.209-0.747,0.426-1.113,0.645c-1.103,0.629-2.23,1.273-3.383,1.826
				c-0.664,0.314-1.408,0.525-2.132,0.732c-0.312,0.094-0.632,0.184-0.947,0.277c-0.268,0.09-0.896,0.289-0.904,1.006
				c0,0.564,0.38,0.981,1.001,1.076c0.587,0.09,1.097,0.12,1.562,0.09c0.572-0.043,1.149-0.096,1.715-0.15
				c0.726-0.062,1.474-0.137,2.208-0.17c0.64-0.027,1.188-0.197,1.737-0.543c0.772-0.477,1.568-0.938,2.337-1.393
				c0.241-0.142,0.485-0.283,0.729-0.425l0.692,0.64c0.638,0.582,1.248,1.146,1.864,1.711c0.498,0.453,1.006,0.897,1.506,1.342
				c1.115,0.996,2.271,2.021,3.331,3.092c0.771,0.777,1.608,0.939,2.334,0.994c0.204,0.017,0.412,0.021,0.621,0.027
				c0.373,0.01,0.758-0.082,1.062-0.244c0.895-0.496,1.655-0.957,2.319-1.404c1.341-0.896,2.276-2.186,3.187-3.436l0.236-0.328
				l-0.225-0.203C157.892,60.966,157.282,60.66,156.61,60.607z M133.003,27.654c0.062-0.004,0.117-0.013,0.171-0.021
				c0.335-0.055,0.649-0.105,0.965-0.124c0.653-0.04,1.317-0.066,1.972-0.094c1.296-0.046,2.641-0.097,3.952-0.266
				c1.271-0.172,2.653-0.187,4.346-0.057c0.146,0.016,0.293,0.026,0.441,0.04l0.058,0.005c0.337,0.027,0.67,0.02,0.996,0.017
				c0.188-0.005,0.378-0.005,0.569,0c0.377,0.003,0.75,0.02,1.188,0.031l0.252,0.009l-0.494,1.945
				c-0.059,0.032-0.131,0.067-0.187,0.067c-2.146,0.246-4.308,0.48-6.423,0.702c-1.165,0.122-2.301,0.118-3.474-0.02
				c-0.996-0.11-2.016-0.078-2.997-0.057c-0.422,0.015-0.838,0.022-1.257,0.024c-0.126,0-0.247,0.005-0.378,0.016
				c-0.105-0.32-0.021-0.632,0.105-1.079C132.913,28.451,133.029,28.074,133.003,27.654z M148.916,23.179
				c-0.089,0.39-0.188,0.782-0.304,1.197c-0.033,0.144-0.072,0.296-0.109,0.445c-0.055,0.026-0.137,0.063-0.166,0.06
				c-0.135-0.025-0.272-0.042-0.428-0.051c-0.52-0.047-1.021,0.009-1.515,0.063c-0.479,0.052-0.938,0.101-1.394,0.067l-0.036-0.006
				c-0.923-0.086-1.851-0.143-2.771-0.198l-0.615-0.045c-0.209-0.01-0.412,0.007-0.621,0.032c-0.39,0.04-0.771,0.092-1.16,0.145
				c-0.807,0.105-1.644,0.211-2.458,0.25c-0.929,0.039-1.861,0.017-2.844-0.014c-0.331-0.009-0.66-0.017-1.001-0.025
				c-0.01-0.781,0.215-1.479,0.451-2.211c0.088-0.286,0.181-0.579,0.264-0.886c0.226,0,0.438-0.006,0.648-0.006
				c0.737,0,1.422-0.002,2.133-0.026c0.363-0.013,0.725-0.059,1.077-0.104c0.141-0.022,0.285-0.043,0.428-0.062
				c0.148-0.017,0.31-0.038,0.458-0.056c0.313-0.055,0.609-0.095,0.896-0.095c0.099-0.002,0.191,0,0.286,0
				c0.605,0.007,1.23,0.017,1.876-0.31c0.17-0.083,0.426-0.079,0.696-0.069c0.158,0,0.317,0.006,0.479-0.01
				c0.479-0.038,0.967-0.116,1.43-0.189c0.83-0.132,1.613-0.26,2.42-0.191h0.02c0.146,0.008,0.281,0.019,0.431,0.026
				c0.282,0.013,0.57,0.027,0.845,0.071c0.551,0.09,0.787,0.356,0.787,0.878c-0.005,0.393-0.099,0.807-0.179,1.21L148.916,23.179z
				 M131.976,34.309c0.068-0.617,0.135-1.195,0.225-1.775c0.021-0.138,0.043-0.229,0.339-0.255c1.676-0.184,3.248-0.202,4.802-0.084
				l0.271,0.024c2.007,0.159,3.54,0.086,4.99-0.239c0.769-0.171,1.574-0.25,2.354-0.335c0.383-0.033,0.77-0.073,1.146-0.119
				c0.319-0.043,0.562,0.021,0.787,0.221l-0.456,2.326c-0.199,0.017-0.395,0.032-0.587,0.049c-0.578,0.058-1.125,0.104-1.67,0.134
				c-2.179,0.12-4.308,0.229-6.457,0.305c-0.5,0.015-1.015,0-1.509-0.014c-0.428-0.015-0.875-0.025-1.312-0.024
				c-0.533,0.016-1.034,0.08-1.479,0.204c-0.334,0.093-0.659,0.081-0.938,0.059c-0.119-0.006-0.239-0.021-0.368-0.033
				c-0.062-0.007-0.127-0.018-0.19-0.021C131.946,34.585,131.96,34.444,131.976,34.309z"/>
			<path fill="#FFFFFF" d="M120.669,26.554c-0.858-0.211-1.557-0.414-2.176-0.649c-0.611-0.235-1.06-0.149-1.468,0.237
				c-0.384,0.37-0.854,0.524-1.582,0.535c-1.021,0.003-2.041,0.051-3.034,0.128c-0.345,0.03-0.688,0.094-1.021,0.151
				c-0.354,0.065-0.682,0.126-1.017,0.147c-0.879,0.059-1.773,0.086-2.646,0.107c-0.336,0.015-0.669,0.024-1.006,0.03
				c-0.241,0.015-0.491,0.016-0.736,0.023h-0.083c-0.015-0.072-0.022-0.139-0.022-0.188c0-1.067-0.472-1.712-1.45-1.985
				c-0.475-0.132-0.914-0.336-1.392-0.559c-0.181-0.083-0.354-0.167-0.536-0.25c-0.854-0.371-1.568-0.276-2.35,0.301l-0.191,0.149
				l0.07,0.228c0.046,0.139,0.078,0.287,0.111,0.434c0.088,0.384,0.176,0.774,0.439,1.063c0.287,0.314,0.403,0.607,0.408,1.036
				c0.011,0.517-0.005,1.078-0.033,1.758c-0.049,0.965-0.166,1.947-0.282,2.896c-0.148,1.259-0.307,2.562-0.307,3.864
				c0.005,1.172-0.102,2.374-0.208,3.526c-0.046,0.572-0.102,1.144-0.142,1.713c-0.023,0.357-0.047,0.722-0.004,1.094
				c0.076,0.676,0.465,1.092,1.059,1.135c0.17,0.017,0.354-0.005,0.553-0.049c0.082-0.021,0.166-0.048,0.248-0.076
				c0.105-0.038,0.213-0.073,0.274-0.068c1.605,0.097,3.08-0.41,4.425-0.979c1.006-0.417,2.033-0.58,3.185-0.731
				c0.537-0.07,1.091-0.12,1.616-0.161c0.326-0.03,0.651-0.054,0.979-0.084c0.188-0.021,0.369-0.047,0.556-0.079
				c0.306-0.052,0.592-0.095,0.873-0.087c0.061,0,0.116,0.004,0.165,0.008c0.187,0.016,0.228,0.038,0.228,0.038
				c0.026,0.032,0.04,0.139,0.021,0.474c-0.07,1.312,0.09,1.563,1.312,2.073c0.063,0.028,0.134,0.052,0.191,0.074
				c1.206,0.422,2.983-0.26,3.172-1.767c0.035-0.242,0.073-0.481,0.123-0.734c0.053-0.268,0.106-0.545,0.136-0.827
				c0.164-1.435,0.583-2.853,0.979-4.222c0.16-0.549,0.32-1.088,0.462-1.637c0.166-0.621,0.402-1.202,0.655-1.824
				c0.324-0.808,0.67-1.644,0.817-2.551c0.021-0.118,0.045-0.237,0.067-0.357c0.082-0.431,0.16-0.878,0.16-1.349
				C122.265,27.296,121.905,26.846,120.669,26.554z M104.956,36.778c0.029-0.427,0.048-0.834,0.093-1.241
				c0.165-1.55,0.397-3.38,0.868-5.215c0.028-0.123,0.049-0.258,0.068-0.392c0.02-0.142,0.059-0.413,0.116-0.462
				c0.071-0.063,0.362-0.052,0.552-0.046c0.113,0,0.226,0.003,0.327,0c0.422-0.006,0.84-0.022,1.268-0.035
				c0.645-0.014,1.281-0.03,1.927-0.059c0.321-0.02,0.646-0.059,0.956-0.103c0.218-0.027,0.431-0.059,0.645-0.077
				c0.352-0.032,0.692-0.063,1.044-0.096c1.124-0.108,2.282-0.212,3.431-0.284c0.12-0.005,0.229-0.005,0.313,0
				c0.136,0.009,0.225,0.042,0.257,0.08c0.034,0.043,0.083,0.179,0.021,0.605c-0.142,0.967-0.345,1.942-0.543,2.885l-0.146,0.705
				c-0.241,1.188-0.499,2.371-0.761,3.553l-0.083,0.397c-0.041,0.158-0.084,0.312-0.127,0.467c-0.025,0.079-0.052,0.158-0.068,0.237
				c-0.196,0.709-0.784,1.125-1.563,1.108c-0.74-0.013-1.448,0.116-2.144,0.24c-0.61,0.109-1.182,0.215-1.771,0.218
				c-0.49,0.014-0.97,0.109-1.428,0.198c-0.572,0.11-1.11,0.211-1.669,0.163l-0.035-0.004c-0.406-0.029-0.806,0.092-1.184,0.205
				c-0.19,0.055-0.37,0.108-0.544,0.144c-0.087,0.019-0.188,0.024-0.295,0.029C104.834,38.897,104.898,37.824,104.956,36.778z"/>
			<path fill="#FFFFFF" d="M162.024,38.76c-0.18-0.7-0.44-1.378-0.694-2.034c-0.081-0.217-0.166-0.43-0.242-0.649
				c-0.262-0.7-0.685-1.126-1.297-1.293c-0.203-0.062-0.399-0.137-0.615-0.217c-0.389-0.148-0.791-0.294-1.219-0.334l-0.128-0.012
				c-1.394-0.105-2.738,0.033-3.104,1.822l-0.045,0.215l0.182,0.127c0.1,0.077,0.218,0.147,0.329,0.215
				c0.199,0.12,0.389,0.239,0.496,0.384c0.742,0.954,1.271,2.034,1.568,3.201c0.235,0.894,0.413,1.145,1.354,1.296l0.049,0.008
				c0.136,0.027,0.274,0.041,0.354,0.094c0.246,0.152,0.525,0.242,0.829,0.264c0.405,0.034,0.799-0.054,1.153-0.154
				c0.427-0.117,0.979-0.567,1.078-1.033C162.199,40.076,162.187,39.385,162.024,38.76z"/>
		</g>
	</g>
	<path fill="none" d="M115.038,82.828"/>
	<g>
		<path fill="#FFFFFF" d="M59.399,25.712c0.261,0.058,0.539,0.058,0.812,0.086c1.604,0.05,2.532-1.105,2.128-2.63
			c-0.083-0.316-0.083-0.676-0.029-0.999c0.138-0.912-0.27-1.542-1.197-1.763c-1.159-0.276-1.821,0.047-2.075,1.014
			c-0.07,0.264-0.07,0.613-0.25,0.762c-0.688,0.593-0.632,1.314-0.547,2.109C58.356,25.326,58.427,25.486,59.399,25.712z"/>
		<path fill="#FFFFFF" d="M53.284,25.17c0.805,0.12,2.021-0.464,2.133-1.072c0.148-0.827,0.237-1.667,0.36-2.538
			c0.022-0.972-0.035-1.041-1.065-1.182c-0.229-0.032-0.469-0.144-0.683-0.111c-0.287,0.048-0.661,0.123-0.805,0.325
			c-0.676,0.951-1.244,1.961-1.205,3.188C52.045,24.582,52.471,25.048,53.284,25.17z"/>
		<path fill="#FFFFFF" d="M92.621,91.32c-0.685-0.92-1.626-1.686-1.857-2.906c-0.035-0.194-0.307-0.34-0.436-0.533
			c-0.729-1.104-1.799-1.908-2.663-2.891c-1.045-1.189-1.3-2.571-1.761-3.953c-0.293-0.864-0.284-1.739-0.444-2.605
			c-0.242-1.283-0.559-2.562-0.684-3.863c-0.109-1.071,0.048-2.164,0.052-3.248c0.006-1.562,0.021-3.112-0.05-4.67
			c-0.07-1.744-0.254-3.485-0.327-5.229c-0.049-1.203-0.095-2.391-0.891-3.396c-0.138-0.178-0.243-0.418-0.271-0.639
			c-0.133-1.133-0.519-2.154-1.104-3.141c-0.652-1.094-1.144-2.284-1.683-3.442c-1.09-2.368-3.317-3.266-5.477-4.219
			c-1.203-0.526-2.457-0.93-3.705-1.345c-0.543-0.184-1.123-0.258-1.688-0.353c-0.535-0.091-1.088-0.098-1.609-0.218
			c-2.148-0.479-4.302-0.673-6.479-0.231c-0.939,0.189-1.879,0.383-2.82,0.581c-0.069,0.015-0.146,0.054-0.209,0.086
			c-1.396,0.668-2.795,1.334-4.179,2.016c-0.383,0.183-0.716,0.537-1.105,0.621c-1.651,0.358-2.43,1.867-3.686,2.729
			c-0.47,0.325-0.905,0.696-1.315,1.089c-1.89,1.78-3.645,3.685-5.164,5.788c-0.654,0.905-1.29,1.869-1.693,2.9
			c-0.506,1.283-0.674,2.697-1.132,4c-0.571,1.635-0.894,3.293-0.919,5.01c-0.006,0.854,0.025,1.711,0.075,2.562
			c0.051,0.842,0.119,1.687,0.235,2.522c0.104,0.749,0.289,1.488,0.479,2.472c-1.835-1.062-3.716-1.553-5.018-3.137
			c-0.713-0.867-1.382-1.758-2.008-2.673c-0.783-1.146-1.631-2.269-2.084-3.608c-0.069-0.209-0.186-0.47-0.363-0.572
			c-0.594-0.344-0.682-0.895-0.757-1.488c-0.031-0.264-0.137-0.52-0.228-0.771c-1.074-2.924-1.788-5.852-1.605-9.054
			c0.146-2.565,0.662-5.047,0.991-7.565c0.031-0.225,0.14-0.443,0.231-0.651c0.672-1.517,1.294-3.029,2.248-4.426
			c0.867-1.257,1.615-2.546,2.703-3.665c1.288-1.32,2.737-2.378,4.23-3.402c0.827-0.563,1.71-1.065,2.611-1.493
			c0.768-0.364,1.601-0.57,2.403-0.855c0.361-0.131,0.705-0.356,1.077-0.423c2.735-0.518,5.466-1.11,8.267-1.137
			c0.459-0.003,0.912,0.048,1.371,0.044c1.863-0.009,3.732-0.122,5.592-0.018c1.733,0.097,3.363,0,4.93-0.856
			c0.974-0.532,2.074-0.836,2.926-1.602c0.99-0.886,2.078-1.607,3.354-2.031c0.229-0.079,0.45-0.323,0.586-0.549
			c1.351-2.224,2.55-4.502,2.611-7.201c0.022-0.846-0.035-1.733,0.197-2.526c0.264-0.867,0.121-1.58-0.197-2.355
			c-0.293-0.719-0.493-1.473-0.765-2.197c-0.172-0.473-0.316-0.98-0.602-1.381c-1.408-1.99-2.817-4.017-4.908-5.37
			c-1.094-0.708-2.268-1.399-3.506-1.747c-0.928-0.258-1.83-0.525-2.714-0.915c-0.952-0.418-1.956-0.729-2.962-1.006
			c-1.08-0.297-2.189-0.473-3.282-0.747c-2.167-0.548-4.344-0.543-6.53-0.226c-0.65,0.094-1.281,0.355-1.931,0.434
			c-2.494,0.288-4.811,1.065-6.969,2.336c-0.229,0.135-0.516,0.162-0.771,0.262c-0.455,0.177-0.908,0.359-1.351,0.572
			c-0.24,0.109-0.438,0.338-0.682,0.41c-1.808,0.538-3.271,1.695-4.847,2.651c-0.753,0.453-1.389,1.099-2.146,1.557
			c-1.104,0.662-2.113,1.387-2.929,2.401c-0.674,0.838-1.426,1.62-2.181,2.382c-0.376,0.387-0.888,0.645-1.264,1.033
			c-1.062,1.125-2.092,2.282-3.118,3.442c-0.303,0.344-0.481,0.814-0.813,1.122c-1.315,1.207-2.458,2.554-3.311,4.128
			c-0.537,0.982-1.097,1.947-1.585,2.955c-0.803,1.63-1.559,3.279-2.316,4.932c-0.527,1.156-0.979,2.353-1.574,3.475
			c-0.714,1.364-0.945,2.856-1.332,4.316c-0.231,0.889-0.35,1.828-0.678,2.681c-0.41,1.075-0.585,2.153-0.65,3.292
			c-0.08,1.27-0.3,2.535-0.511,3.791c-0.255,1.49-0.697,2.962-0.799,4.46c-0.145,2.229-0.073,4.472-0.04,6.705
			c0.021,1.081,0.128,2.165,0.265,3.242c0.17,1.271,0.496,2.522,0.604,3.803c0.168,2.022,0.883,3.847,1.831,5.599
			c0.178,0.332,0.459,0.623,0.736,0.883c0.338,0.314,0.469,0.621,0.456,1.113c-0.025,0.756,0.049,1.529,0.662,2.137
			c0.212,0.203,0.271,0.554,0.398,0.839c0.411,0.918,0.711,1.909,1.27,2.729c0.55,0.801,0.975,1.762,1.931,2.252
			c0.2,0.098,0.354,0.299,0.5,0.478c0.844,1.003,1.727,1.979,2.507,3.032c0.783,1.056,1.421,2.216,2.2,3.271
			c0.737,0.999,1.478,2.031,2.396,2.854c2.017,1.791,4.29,3.199,6.909,3.969c0.15,0.037,0.344,0.061,0.422,0.164
			c0.694,0.888,1.765,1.119,2.711,1.537c0.986,0.438,2.007,0.816,3.028,1.152c1.733,0.561,3.553,0.295,5.319,0.534
			c0.186,0.021,0.387-0.042,0.573-0.062c2.161-0.193,4.32-0.377,6.482-0.584c0.728-0.072,1.449-0.209,2.168-0.322
			c0.228-0.038,0.452-0.107,0.674-0.161c0.992-0.235,2.08-0.14,2.909-0.924c0.156-0.146,0.421-0.216,0.647-0.254
			c1.101-0.183,2.001-0.806,2.938-1.343c0.805-0.45,1.556-1.047,2.41-1.35c1.115-0.404,2.105-0.963,3.063-1.629
			c1.071-0.746,1.854-1.848,3.034-2.463c0.062-0.033,0.07-0.145,0.127-0.188c0.206-0.142,0.424-0.265,0.766-0.471
			c0.875,1.715,1.68,3.332,2.529,4.93c0.903,1.691,1.629,3.521,3.438,4.522c0.134,0.075,0.228,0.21,0.341,0.313
			c0.753,0.682,1.498,1.355,2.252,2.022c2.383,2.104,5.313,1.813,8.17,1.872c0.077,0,0.156-0.021,0.229-0.047
			c1.979-0.758,4.102-1.217,5.858-2.475c1.146-0.812,2.534-1.49,2.499-3.256c-0.004-0.242,0.23-0.484,0.337-0.73
			c0.073-0.172,0.186-0.346,0.189-0.523c0.046-1.469,0.066-2.943,0.113-4.412C93.053,92.115,92.919,91.728,92.621,91.32z
			 M50.783,69.054c0.229-0.73,0.575-1.439,0.961-2.105c0.4-0.695,1.103-0.959,1.874-0.848c0.793,0.114,1.136,0.76,1.301,1.463
			c0.107,0.449,0.104,0.924,0.147,1.383c-0.021,0.648,0.138,1.31-0.548,1.783c-0.693,0.478-2.431,0.565-3.095,0.064
			C50.845,70.355,50.571,69.736,50.783,69.054z M44.075,70.724c0.036-1.951,0.364-2.377,2.301-2.843
			c1.076,0.966,1.142,2.294,1.199,3.606c0.007,0.234-0.163,0.522-0.338,0.709c-0.527,0.58-2.5,0.75-3.072,0.242
			c-0.181-0.162-0.229-0.528-0.239-0.812C43.919,71.332,44.073,71.027,44.075,70.724z M72.78,76.986
			c-0.585,1.758-1.384,3.451-2.026,5.188c-1.012,2.723-3.158,4.299-5.507,5.742c-0.9,0.562-1.639,1.404-2.453,2.109
			c-1.399,1.219-2.816,2.385-4.662,2.973c-0.936,0.299-1.725,1.008-2.61,1.479c-0.786,0.414-1.582,0.854-2.423,1.119
			c-2.269,0.721-4.589,1.17-6.975,1.277c-1.125,0.045-2.242,0.261-3.367,0.275c-1.623,0.031-3.26,0.039-4.872-0.111
			c-0.855-0.082-1.729-0.418-2.52-0.797c-1.733-0.848-3.35-1.981-5.146-2.646c-1.533-0.568-2.749-1.582-4.147-2.316
			c-0.439-0.226-0.812-0.606-1.146-0.977c-1.047-1.15-1.918-2.43-2.781-3.723c-0.656-0.99-1.489-1.861-2.234-2.803
			c-0.264-0.328-0.479-0.701-0.751-1.037c-0.573-0.723-1.187-1.42-1.747-2.154c-0.771-1.018-1.509-2.059-2.25-3.1
			c-0.26-0.371-0.518-0.771-0.697-1.188c-0.346-0.795-0.646-1.614-0.941-2.433c-0.195-0.521-0.392-0.998-0.997-1.202
			c-0.509-0.173-0.562-0.679-0.675-1.14c-0.143-0.552-0.37-1.082-0.512-1.643c-0.196-0.786-0.385-1.585-0.51-2.391
			c-0.145-0.914-0.229-1.844-0.307-2.766c-0.092-1.076-0.146-2.162-0.202-3.025c0.224-1.908,0.449-3.584,0.612-5.262
			c0.113-1.119,0.095-2.254,0.237-3.361c0.225-1.732,0.543-3.456,0.819-5.175c0.354-2.183,0.631-4.383,1.083-6.549
			c0.332-1.587,0.893-3.126,1.34-4.689c0.104-0.362,0.148-0.744,0.217-1.119c0.01-0.072-0.049-0.186-0.012-0.227
			c0.95-0.962,0.642-2.451,1.475-3.48c0.271-0.332,0.232-0.886,0.426-1.301c0.663-1.479,1.188-3.063,2.101-4.379
			c1.021-1.475,1.845-3.11,3.254-4.345c1.181-1.048,2.087-2.396,3.172-3.562c0.893-0.965,1.878-1.843,2.781-2.792
			c1.791-1.862,3.871-3.361,5.948-4.865C35,9.706,36.244,8.849,37.54,8.074c0.781-0.467,1.695-0.739,2.528-1.125
			c0.522-0.245,0.993-0.627,1.529-0.798c2.345-0.755,4.605-1.74,7.135-1.942c1.644-0.131,3.261-0.174,4.889-0.038
			c1.827,0.16,3.571,0.642,5.259,1.382c1.084,0.478,2.221,0.844,3.316,1.29c0.425,0.175,0.806,0.455,1.208,0.68
			c2.001,1.123,3.545,2.646,4.783,4.614c0.778,1.242,1.374,2.498,1.714,3.867c0.352,1.461,0.469,2.974,0.122,4.479
			c-0.259,1.097-0.409,2.223-0.741,3.29c-0.199,0.639-0.528,1.337-1.019,1.77c-1.679,1.511-3.611,2.706-5.66,3.613
			c-0.912,0.4-2.06,0.31-3.099,0.348c-0.806,0.029-1.618-0.128-2.431-0.139c-1.744-0.015-3.496,0.003-5.237,0.027
			c-0.339,0.004-0.68,0.089-1.015,0.151c-0.151,0.027-0.313,0.161-0.44,0.128c-0.937-0.249-1.843,0.004-2.76,0.109
			c-0.731,0.085-1.466,0.126-2.185,0.271c-3.211,0.676-6.224,1.927-9.142,3.382c-1.097,0.551-2.039,1.412-3.088,2.081
			c-1.805,1.15-3.093,2.763-4.24,4.524c-1.321,2.024-2.341,4.179-2.954,6.519c-0.079,0.3-0.139,0.618-0.271,0.89
			c-0.938,1.832-1.14,3.817-1.27,5.826c-0.038,0.57-0.158,1.145-0.179,1.719c-0.068,2.854,0.267,5.668,1.038,8.402
			c0.442,1.553,1.207,3.016,1.83,4.516c0.089,0.211,0.188,0.418,0.283,0.631c0.894,1.857,1.771,3.713,3.264,5.199
			c0.268,0.262,0.411,0.646,0.615,0.974c0.691,1.108,1.736,1.835,2.798,2.536c0.227,0.15,0.479,0.275,0.674,0.461
			c0.979,0.914,2.186,1.439,3.413,1.852c1.055,0.353,2.171,0.508,3.258,0.781c1.639,0.406,3.313,0.369,4.957,0.271
			c1.035-0.057,2.057-0.194,3.104-0.205c0.874-0.002,1.685-0.467,2.516-0.811c0.888-0.359,1.43-1.103,2.253-1.509
			c0.814-0.399,1.558-0.999,2.271-1.586c0.592-0.489,1.051-1.144,1.641-1.631c1.901-1.545,2.724-3.903,4.317-5.675
			c0.278-1.288,0.993-2.332,1.83-3.325c0.427-0.502,0.874-0.884,1.519-1.002c1.464-0.274,2.971-0.347,4.364,0.125
			c1.036,0.356,1.841,1.183,2.259,2.325C73.667,70.521,73.865,73.746,72.78,76.986z"/>
	</g>
</g>
</svg>
