<?xml version="1.0" encoding="utf-8"?>
<!-- Generator: Adobe Illustrator 16.0.0, SVG Export Plug-In . SVG Version: 6.00 Build 0)  -->
<!DOCTYPE svg PUBLIC "-//W3C//DTD SVG 1.1//EN" "http://www.w3.org/Graphics/SVG/1.1/DTD/svg11.dtd">
<svg version="1.1" id="圖層_1" xmlns="http://www.w3.org/2000/svg" xmlns:xlink="http://www.w3.org/1999/xlink" x="0px" y="0px"
	 width="161.75px" height="192.917px" viewBox="0 0 161.75 192.917" enable-background="new 0 0 161.75 192.917"
	 xml:space="preserve">
<path fill="#FEFCE7" d="M0.334,139.725c0.05,0.635,0.068,1.266,0.192,1.898c0.125,0.639,0.252,1.273,0.404,1.908
	c0.216,0.904,0.347,1.829,0.512,2.746c0.124,0.693,0.359,1.37,0.208,2.098c-0.06,0.285-0.039,0.602,0.011,0.893
	c0.23,1.355,0.449,2.716,0.737,4.061c0.191,0.892,0.553,1.748,0.728,2.643c0.244,1.242,0.612,2.439,1.05,3.619
	c0.239,0.643,0.474,1.292,0.795,1.895c0.525,0.985,1.12,1.935,1.685,2.899c0.125,0.214,0.223,0.452,0.38,0.64
	c0.729,0.877,1.474,1.74,2.211,2.609c0.058,0.069,0.092,0.16,0.152,0.228c0.44,0.49,0.872,0.987,1.331,1.46
	c0.414,0.426,0.881,0.8,1.286,1.233c0.874,0.936,1.733,1.886,2.581,2.847c0.934,1.059,2.062,1.854,3.266,2.576
	c0.543,0.325,1.051,0.753,1.47,1.227c0.258,0.293,0.517,0.496,0.869,0.608c0.458,0.147,0.904,0.297,1.296,0.609
	c0.219,0.178,0.54,0.271,0.827,0.308c0.368,0.048,0.623,0.224,0.895,0.453c0.253,0.214,0.578,0.358,0.891,0.483
	c0.53,0.211,1.084,0.362,1.614,0.574c1.467,0.582,2.928,1.181,4.391,1.775c0.513,0.208,1.022,0.423,1.534,0.635
	c21.531,8.917,46.999,11.163,70.019,9.973c5.759-0.299,11.486-1.032,17.085-2.442c7.084-1.784,12.986-2.744,18.153-8.157
	c0.601-0.627,1.256-1.198,1.879-1.804c0.556-0.539,1.141-1.055,1.39-1.831c0.038-0.119,0.16-0.215,0.256-0.309
	c0.653-0.632,1.214-1.322,1.617-2.149c0.228-0.466,0.555-0.884,0.841-1.32c0.445-0.682,1.08-1.223,1.4-2.007
	c0.169-0.412,0.45-0.814,0.773-1.123c0.415-0.396,0.626-0.891,0.879-1.373c0.062-0.12,0.099-0.256,0.163-0.373
	c0.385-0.693,0.896-1.343,1.138-2.081c0.511-1.561,1.537-2.842,2.183-4.329c0.362-0.837,0.717-1.67,1.008-2.532
	c0.176-0.519,0.363-1.034,0.531-1.557c0.159-0.499,0.298-1.008,0.453-1.509c0.129-0.415,0.264-0.826,0.403-1.237
	c0.06-0.171,0.153-0.333,0.204-0.506c0.212-0.72,0.436-1.438,0.61-2.167c0.217-0.902,0.422-1.797,0.454-2.745
	c0.047-1.361,0.244-2.72,0.648-4.039c0.229-0.74,0.461-1.504,0.52-2.271c0.122-1.576,0.335-3.134,0.613-4.688
	c0.032-0.18,0.042-0.388,0.141-0.525c0.542-0.748,0.526-1.646,0.637-2.487c0.077-0.581,0.021-1.182,0.233-1.752
	c0.038-0.103,0.076-0.247,0.034-0.333c-0.166-0.347-0.037-0.669,0.022-1.007c0.097-0.54,0.275-1.1,0.214-1.627
	c-0.112-0.977,0.547-1.733,0.612-2.64c0.453-0.505,0.33-1.109,0.309-1.702c-0.008-0.267-0.008-0.542,0.038-0.804
	c0.202-1.146,0.446-2.285,0.629-3.434c0.09-0.558,0.004-1.128,0.229-1.688c0.164-0.41,0.193-0.888,0.228-1.337
	c0.077-1.073,0.154-2.147,0.172-3.221c0.024-1.506-0.013-3.014-0.004-4.52c0.003-0.477-0.029-0.986,0.121-1.423
	c0.317-0.916,0.067-1.928,0.529-2.807c1.574-2.997,1.153-11.429,1.523-15.171c0.528-5.339-0.289-10.512-0.136-15.84
	c0.099-3.439,1.311-6.895,0.936-10.347c-0.036-0.329,0.056-0.669,0.064-1.005c0.021-0.685,0.011-1.37,0.035-2.054
	c0.045-1.252,0.116-2.504,0.157-3.757c0.042-1.339,0.062-2.681,0.087-4.022c0.028-1.345,0.065-2.691,0.068-4.037
	c0.002-0.521-0.087-1.042-0.123-1.564c-0.03-0.432-0.047-0.866-0.064-1.299c-0.013-0.295-0.001-0.591-0.024-0.886
	c-0.056-0.708-0.205-1.418-0.168-2.121c0.048-0.94-0.045-1.864-0.115-2.793c-0.146-1.938-0.287-3.875-0.41-5.815
	c-0.03-0.474,0.043-0.954,0.023-1.429c-0.012-0.339-0.122-0.673-0.148-1.013c-0.1-1.303-0.18-2.608-0.271-3.912
	c-0.033-0.503-0.056-1.009-0.121-1.509c-0.135-1.036-0.356-2.059-0.383-3.11c-0.012-0.449-0.049-0.928-0.217-1.334
	c-0.306-0.736-0.571-1.461-0.702-2.257c-0.115-0.711-0.438-1.387-0.642-2.087c-0.116-0.391-0.062-0.883-0.285-1.181
	c-0.716-0.962-0.648-2.156-1.059-3.204c-0.354-0.9-0.587-1.848-1.302-2.559c-0.046-0.044-0.08-0.106-0.104-0.167
	c-0.148-0.354-0.301-0.708-0.437-1.067c-0.125-0.331-0.233-0.67-0.339-0.974c-0.287-0.446-0.566-0.88-0.846-1.315
	c-0.348-0.543-0.686-1.095-1.051-1.628c-0.084-0.123-0.268-0.174-0.393-0.275c-0.229-0.187-0.472-0.367-0.671-0.584
	c-0.351-0.384-0.612-0.885-1.024-1.167c-0.443-0.304-0.673-0.853-1.245-1.005c-0.156-0.041-0.351-0.284-0.363-0.448
	c-0.032-0.376-0.254-0.502-0.548-0.616c-0.189-0.073-0.363-0.185-0.545-0.279c-0.3-0.155-0.592-0.415-0.903-0.441
	c-0.544-0.045-0.837-0.416-1.206-0.702c-0.116-0.09-0.24-0.242-0.359-0.241c-0.401,0.002-0.665-0.246-0.986-0.415
	c-0.683-0.361-1.4-0.657-2.105-0.976c-0.037-0.017-0.101-0.015-0.133,0.005c-0.356,0.218-0.599-0.088-0.884-0.191
	c-0.255-0.091-0.5-0.249-0.761-0.281c-0.832-0.103-1.549-0.661-2.42-0.595c-0.281-0.349-0.667-0.23-1.041-0.283
	c-9.97-1.384-18.498-1.051-28.335,1.384c-8.943,2.215-17.888,5.13-27.204,4.878c-8.678-0.235-30.386-1.359-39.11-1.173
	c-10.033,0.214-19.928,2.069-26.726,9.937c-4.783,5.534-5.827,12.769-7.958,19.535c-1.497,4.751-1.698,9.724-2.503,14.638
	c-0.482,2.947,0.006,5.875,0.356,8.806c0.531,4.451-0.877,8.898-0.008,13.298c1.053,5.333,0.729,11.344,0.397,16.739
	c-0.207,3.364-1.344,6.554-2.138,9.803c-0.726,2.975-1.12,6.026-1.6,9.047c-0.079,0.494-0.104,0.997-0.163,1.494
	c-0.136,1.132-0.344,2.25-0.433,3.393c-0.134,1.709-0.389,3.409-0.61,5.113c-0.192,1.473-0.463,2.938-0.599,4.414
	c-0.178,1.939-0.25,3.889-0.382,5.832c-0.078,1.14-0.114,2.29-0.225,3.416c-0.194,1.978-0.15,3.936-0.027,5.902
	C0.157,138.088,0.271,138.906,0.334,139.725z"/>
</svg>
