<?xml version="1.0" encoding="utf-8"?>
<!-- Generator: Adobe Illustrator 16.0.0, SVG Export Plug-In . SVG Version: 6.00 Build 0)  -->
<!DOCTYPE svg PUBLIC "-//W3C//DTD SVG 1.1//EN" "http://www.w3.org/Graphics/SVG/1.1/DTD/svg11.dtd">
<svg version="1.1" id="圖層_1" xmlns="http://www.w3.org/2000/svg" xmlns:xlink="http://www.w3.org/1999/xlink" x="0px" y="0px"
	 width="210px" height="70px" viewBox="0 0 210 70" enable-background="new 0 0 210 70" xml:space="preserve">
<path fill-rule="evenodd" clip-rule="evenodd" fill="#FEFCE7" d="M135.24,66.561c-3.335,0.143-6.669,0.293-10.006,0.424
	c-0.835,0.032-1.681,0.041-2.513-0.009c-2.313-0.138-4.619,0.069-6.942,0.002c-4.414-0.128-8.845-0.065-13.266-0.008
	c-4.24,0.057-8.478,0.228-12.718,0.309c-3.338,0.062-6.678,0.055-10.017,0.096c-0.956,0.012-1.909,0.12-2.866,0.125
	c-1.422,0.007-2.847-0.023-4.269-0.063c-4.003-0.114-8.008-0.224-12.008-0.375c-1.664-0.062-3.319-0.223-4.978-0.343
	c-0.596-0.044-1.19-0.144-1.785-0.145c-4.601-0.003-8.971-0.763-13.218-1.867c-1.879-0.489-3.606-1.29-5.525-1.656
	c-2.941-0.561-5.545-1.585-7.92-2.732c-2.607-1.26-5.317-2.443-7.804-3.81c-1.271-0.698-2.265-1.651-3.243-2.558
	c-1.158-1.073-2.228-2.196-3.222-3.342c-2.021-2.328-3.959-4.688-5.944-7.031c-0.974-1.15-2.135-2.243-2.914-3.449
	c-0.655-1.014-1.107-2.142-1.241-3.24c-0.268-2.206-0.406-4.429-0.315-6.64c0.08-1.962,0.33-3.939,1.348-5.819
	c0.083-0.151,0.193-0.31,0.192-0.465c-0.014-1.593,0.99-2.968,2.148-4.277c0.718-0.812,1.627-1.567,2.603-2.249
	c1.238-0.866,2.627-1.634,3.956-2.441c2.728-1.656,5.915-2.859,9.041-4.116c3.173-1.275,6.393-2.498,9.611-3.721
	c0.77-0.293,1.603-0.516,2.424-0.741c2.152-0.592,4.279-1.236,6.478-1.73c2.476-0.556,4.827,0.004,7.112,0.641
	c0.605,0.169,1.214,0.359,1.748,0.61c1.721,0.81,3.494,0.486,5.296,0.191c1.56-0.255,3.167-0.389,4.701-0.695
	c3.155-0.628,6.416-0.863,9.634-1.25c2.457-0.294,4.955-0.442,7.438-0.633c2.667-0.205,5.335-0.413,8.01-0.565
	c1.461-0.083,2.911-0.308,4.408-0.129c0.755,0.091,1.557,0.037,2.333,0.003c2.623-0.114,5.242-0.281,7.866-0.358
	c1.001-0.029,2.013,0.174,3.022,0.195c3.937,0.084,7.876,0.114,11.81,0.21c3.527,0.086,7.05,0.276,10.576,0.342
	c3.761,0.07,7.523,0.046,11.288,0.068c0.298,0.002,0.597,0.04,0.893,0.065c2.763,0.237,5.529,0.452,8.286,0.723
	c1.104,0.108,2.175,0.354,3.269,0.513c1.988,0.291,3.983,0.556,5.971,0.846c2.686,0.392,5.364,0.801,8.048,1.193
	c0.99,0.144,1.999,0.241,2.983,0.399c0.617,0.099,1.206,0.278,1.815,0.407c0.395,0.084,0.796,0.151,1.198,0.214
	c2.444,0.386,4.94,0.663,7.315,1.186c1.973,0.434,3.806,1.152,5.693,1.752c2.104,0.667,4.284,1.248,6.275,2.044
	c2.15,0.86,4.133,1.914,6.164,2.907c2.407,1.178,3.945,2.888,5.827,4.387c0.038,0.031,0.086,0.062,0.104,0.098
	c0.931,1.886,3.29,3.212,4.288,5.111c0.615,1.169,1.119,2.34,1.644,3.523c0.827,1.866,1.021,3.785,1.497,5.679
	c0.254,1.018,0.193,2.07,0.321,3.105c0.067,0.558,0.443,1.134,0.309,1.659c-0.228,0.903-0.7,1.782-1.153,2.652
	c-0.596,1.138-1.27,2.256-1.914,3.383c-0.15,0.263-0.294,0.529-0.479,0.782c-0.996,1.372-1.935,2.766-3.033,4.101
	c-0.717,0.871-1.644,1.669-2.528,2.475c-0.981,0.894-1.909,1.835-3.072,2.611c-0.909,0.607-2.146,0.992-3.229,1.485
	c-1.684,0.768-3.334,1.571-5.05,2.303c-0.945,0.403-1.983,0.715-3.009,1.026c-1.946,0.592-3.854,1.284-5.886,1.692
	c-2.259,0.453-4.437,1.135-6.868,1.203c-0.99,0.027-1.955,0.353-2.941,0.507c-3.717,0.582-7.44,1.097-11.267,1.293
	c-1.7,0.087-3.347,0.586-5.046,0.773c-2.948,0.325-5.915,0.581-8.886,0.811c-2.61,0.201-5.234,0.324-7.855,0.482
	C135.251,66.66,135.246,66.61,135.24,66.561z"/>
</svg>
