<?xml version="1.0" encoding="utf-8"?>
<!-- Generator: Adobe Illustrator 16.0.0, SVG Export Plug-In . SVG Version: 6.00 Build 0)  -->
<!DOCTYPE svg PUBLIC "-//W3C//DTD SVG 1.1//EN" "http://www.w3.org/Graphics/SVG/1.1/DTD/svg11.dtd">
<svg version="1.1" id="圖層_1" xmlns="http://www.w3.org/2000/svg" xmlns:xlink="http://www.w3.org/1999/xlink" x="0px" y="0px"
	 width="210px" height="70px" viewBox="0 0 210 70" enable-background="new 0 0 210 70" xml:space="preserve">
<path fill="#FBB11D" d="M135.24,66.561c-3.336,0.144-6.67,0.293-10.006,0.424c-0.836,0.033-1.682,0.041-2.514-0.008
	c-2.312-0.139-4.619,0.068-6.941,0.002c-4.414-0.129-8.846-0.065-13.266-0.008c-4.24,0.057-8.478,0.228-12.718,0.309
	c-3.338,0.062-6.678,0.055-10.017,0.096c-0.956,0.012-1.909,0.12-2.866,0.125c-1.422,0.007-2.847-0.023-4.269-0.062
	c-4.003-0.114-8.008-0.225-12.008-0.375c-1.664-0.062-3.319-0.224-4.978-0.344c-0.596-0.044-1.19-0.144-1.785-0.145
	c-4.601-0.004-8.971-0.764-13.218-1.867c-1.879-0.489-3.606-1.29-5.525-1.656c-2.941-0.561-5.545-1.585-7.92-2.732
	c-2.607-1.26-5.317-2.442-7.804-3.81c-1.271-0.698-2.265-1.651-3.243-2.558c-1.158-1.073-2.228-2.196-3.222-3.342
	c-2.021-2.328-3.959-4.688-5.944-7.031c-0.974-1.15-2.135-2.243-2.914-3.449c-0.655-1.014-1.107-2.143-1.241-3.24
	c-0.268-2.206-0.406-4.429-0.315-6.64c0.08-1.962,0.33-3.939,1.348-5.819c0.083-0.151,0.193-0.31,0.192-0.465
	c-0.014-1.593,0.99-2.968,2.148-4.277c0.718-0.812,1.627-1.567,2.603-2.249c1.238-0.866,2.627-1.634,3.956-2.441
	c2.728-1.656,5.915-2.859,9.041-4.116c3.173-1.275,6.393-2.498,9.611-3.721c0.77-0.293,1.603-0.516,2.424-0.741
	c2.152-0.592,4.279-1.236,6.478-1.73c2.476-0.556,4.827,0.004,7.112,0.641c0.605,0.169,1.214,0.359,1.748,0.61
	c1.721,0.81,3.494,0.486,5.296,0.191c1.56-0.255,3.167-0.389,4.701-0.695c3.155-0.628,6.416-0.863,9.634-1.25
	c2.457-0.294,4.955-0.442,7.438-0.633c2.667-0.205,5.335-0.413,8.01-0.565c1.461-0.083,2.911-0.308,4.408-0.129
	c0.755,0.091,1.557,0.037,2.333,0.003c2.623-0.114,5.242-0.281,7.866-0.358c1.001-0.029,2.013,0.174,3.022,0.195
	c3.937,0.084,7.876,0.114,11.81,0.21c3.527,0.086,7.05,0.276,10.576,0.342c3.761,0.07,7.523,0.046,11.287,0.068
	c0.299,0.002,0.598,0.04,0.894,0.065c2.763,0.237,5.529,0.452,8.286,0.723c1.104,0.108,2.175,0.354,3.27,0.513
	c1.987,0.291,3.982,0.556,5.971,0.846c2.686,0.392,5.363,0.801,8.048,1.193c0.989,0.144,1.999,0.241,2.983,0.399
	c0.617,0.099,1.205,0.278,1.814,0.407c0.395,0.084,0.796,0.151,1.198,0.214c2.444,0.386,4.94,0.663,7.315,1.186
	c1.973,0.434,3.805,1.152,5.692,1.752c2.104,0.667,4.284,1.248,6.274,2.044c2.15,0.86,4.134,1.914,6.164,2.907
	c2.408,1.178,3.945,2.888,5.828,4.387c0.037,0.031,0.086,0.062,0.104,0.098c0.931,1.886,3.29,3.212,4.288,5.111
	c0.614,1.169,1.118,2.34,1.644,3.523c0.827,1.866,1.021,3.785,1.497,5.679c0.254,1.018,0.193,2.07,0.321,3.105
	c0.066,0.557,0.443,1.133,0.309,1.658c-0.228,0.903-0.699,1.782-1.152,2.652c-0.596,1.138-1.271,2.256-1.914,3.383
	c-0.15,0.264-0.295,0.529-0.479,0.782c-0.996,1.372-1.935,2.766-3.032,4.101c-0.718,0.871-1.645,1.669-2.529,2.475
	c-0.98,0.895-1.908,1.836-3.071,2.611c-0.909,0.607-2.146,0.992-3.229,1.485c-1.684,0.769-3.334,1.571-5.05,2.303
	c-0.944,0.403-1.983,0.716-3.009,1.026c-1.945,0.592-3.854,1.283-5.886,1.691c-2.259,0.453-4.437,1.135-6.868,1.203
	c-0.99,0.027-1.955,0.354-2.941,0.508c-3.717,0.582-7.439,1.097-11.267,1.293c-1.7,0.086-3.347,0.586-5.046,0.772
	c-2.948,0.325-5.915,0.581-8.887,0.812c-2.609,0.201-5.233,0.323-7.854,0.481C135.251,66.66,135.246,66.609,135.24,66.561z"/>
</svg>
