<?xml version="1.0" encoding="utf-8"?>
<!-- Generator: Adobe Illustrator 16.0.0, SVG Export Plug-In . SVG Version: 6.00 Build 0)  -->
<!DOCTYPE svg PUBLIC "-//W3C//DTD SVG 1.1//EN" "http://www.w3.org/Graphics/SVG/1.1/DTD/svg11.dtd">
<svg version="1.1" xmlns="http://www.w3.org/2000/svg" xmlns:xlink="http://www.w3.org/1999/xlink" x="0px" y="0px" width="500px"
	 height="268px" viewBox="0 0 500 268" enable-background="new 0 0 500 268" xml:space="preserve">
<g id="圖層_2" display="none">
	
		<rect x="-10" y="-33" display="inline" fill="#A63DD1" stroke="#BABABA" stroke-width="0.5" stroke-miterlimit="10" width="525.5" height="330.5"/>
</g>
<g id="圖層_1">
	<path fill="#FFFCE7" d="M391.872,106.18c-8.236,0-15.913,2.342-22.471,6.337c-9.924-25.765-34.85-44.08-64.116-44.08
		c-12.557,0-24.291,3.42-34.424,9.299c-0.478-31.935-26.473-57.689-58.523-57.689c-28,0-51.374,19.659-57.163,45.916
		c-3.037-0.332-6.106-0.529-9.229-0.529c-30.084,0-56.402,15.861-71.248,39.623c-4.115-0.959-8.382-1.519-12.788-1.519
		c-30.991,0-56.118,25.127-56.118,56.118c0,30.99,25.127,56.117,56.118,56.117c9.166,0,17.79-2.244,25.429-6.139
		c15.142,14.748,35.796,23.873,58.606,23.873c19.338,0,37.131-6.551,51.321-17.539c12.374,8.146,27.164,12.922,43.085,12.922
		c21.967,0,41.797-9.051,56.047-23.599c2.909,0.388,5.863,0.655,8.886,0.655c22.358,0,42.167-10.721,54.724-27.245
		c7.915,8.624,19.24,14.056,31.863,14.056c23.904,0,43.286-19.383,43.286-43.285C435.158,125.562,415.777,106.18,391.872,106.18z"/>
</g>
<g id="圖層_3">
	<path fill-rule="evenodd" clip-rule="evenodd" fill="#EDEBE4" d="M299.044,186.266c-0.291,2.999-1.17,5.692-2.837,8.094
		c-0.527,0.761-0.499,1.034,0.416,1.57c3.253,1.896,6.94,1.962,10.455,2.697c4.619,0.965,9.331,1.23,14.041,0.976
		c3.393-0.183,6.671-1.138,9.921-2.035c6.767-1.872,13.135-4.674,19.075-8.452c3.809-2.426,7.295-5.259,10.829-8.054
		c1.695-1.343,3.806-2.261,5.693-3.424c0.566-0.348,1.131-0.696,1.881-1.158c-0.207,1.54-0.989,2.628-1.397,3.847
		c-0.251,0.756-0.568,1.49-0.867,2.23c-0.185,0.456-0.091,0.803,0.394,0.948c2.325,0.695,4.623,1.688,7.066,1.659
		c2.496-0.027,4.973-0.527,7.438-0.98c5.454-1.004,10.486-3.152,15.528-5.399c4.493-2.003,7.677-5.294,10.557-9.082
		c3.455-4.548,6.848-9.127,9.267-14.343c1.706-3.682,2.808-7.516,3.226-11.565c0.263-2.513,0.343-5.005-0.012-7.51
		c-0.047-0.349-0.014-0.724,0.054-1.07c0.056-0.28,0.275-0.529,0.562-0.563c0.344-0.041,0.239,0.332,0.358,0.505
		c1.052,1.541,2.253,2.978,3.018,4.716c1.308,2.977,2.188,6.052,2.484,9.296c0.616,6.792-0.824,13.277-2.84,19.696
		c-1.188,3.783-2.534,7.48-4.728,10.817c-1.977,3.01-4.188,5.806-6.931,8.175c-1.479,1.274-2.817,2.719-4.497,3.747
		c-6.036,3.692-12.229,6.979-19.337,8.217c-5.857,1.023-11.752,1.242-17.646,0.939c-4.452-0.228-8.806-1.283-13.071-2.627
		c-1.439-0.454-2.935-0.723-4.399-1.099c-1.354-0.35-2.188,0.687-3.09,1.285c-4.099,2.713-8.549,4.568-13.252,5.913
		c-3.605,1.032-7.264,1.77-10.959,2.338c-4.358,0.667-8.763,0.604-13.147,0.475c-5.745-0.169-11.314-1.271-16.52-3.825
		c-0.852-0.419-1.714-0.922-2.386-1.575c-0.728-0.707-1.17-0.498-1.594,0.179c-1.518,2.425-3.518,4.427-5.511,6.447
		c-3.604,3.659-8.03,6.021-12.619,8.126c-2.973,1.363-5.972,2.658-9.14,3.535c-3.619,1-7.281,1.736-11.039,1.779
		c-4.506,0.055-9.017,0.142-13.518-0.033c-3.327-0.13-6.644-0.622-9.957-1.019c-3.557-0.427-7.076-1.118-10.515-2.102
		c-3.794-1.086-7.542-2.316-11.183-3.891c-4.421-1.908-8.529-4.304-12.296-7.291c-0.497-0.394-0.76-0.288-1.173,0.174
		c-3.451,3.842-7.22,7.324-11.451,10.312c-6.351,4.485-13.375,7.352-20.897,9.208c-5.591,1.381-11.191,2.53-16.975,2.317
		c-3.334-0.121-6.648-0.527-9.938-1.155c-4.818-0.922-9.56-2.117-14.237-3.588c-4.241-1.332-8.296-3.058-12.144-5.313
		c-4.28-2.507-8.304-5.366-12.058-8.58c-2.027-1.735-3.947-3.629-5.628-5.727c-0.54-0.672-0.943-0.97-1.852-0.399
		c-4.708,2.951-9.951,4.315-15.396,5.118c-5.919,0.87-11.736,0.347-17.547-0.863c-6.021-1.255-11.847-3.106-17.587-5.295
		c-4-1.526-7.855-3.319-11.326-5.831c-4.01-2.901-6.929-6.785-9.442-10.992c-2.358-3.943-3.844-8.215-4.532-12.749
		c-0.16-1.058-0.271-2.128-0.355-3.202c-0.35-4.41,0.44-8.695,1.154-13.008c0.252-1.533,0.184-3.221,0.979-4.515
		c1.23-2.007,1.646-4.46,3.424-6.141c0.271-0.255,0.503-0.74,0.976-0.492c0.384,0.2,0.204,0.652,0.206,0.99
		c0.02,3.154-0.069,6.311,0.249,9.46c0.584,5.781,1.872,11.387,4.062,16.778c1.255,3.093,2.785,6.027,5.046,8.503
		c2.009,2.2,4.429,3.919,7.08,5.25c6.032,3.031,12.074,6.062,18.746,7.488c3.693,0.79,7.395,1.465,11.192,1.666
		c4.665,0.245,9.324,0.498,13.996,0.423c2.747-0.041,5.458-0.504,8.179-0.849c1.181-0.151,2.361-0.309,3.538-0.497
		c0.694-0.111,1.202,0.542,1.673,1.018c3.357,3.388,7.045,6.364,11.073,8.908c5.045,3.188,10.428,5.649,16.071,7.601
		c3.326,1.15,6.7,2.052,10.146,2.697c2.811,0.527,5.698,0.519,8.5,1.156c2.688,0.613,5.419,1.079,8.17,0.84
		c2.965-0.258,5.912-0.743,8.856-1.192c3.654-0.559,7.297-1.198,10.877-2.132c4.709-1.229,9.157-3.075,12.969-6.152
		c2.354-1.9,4.438-4.126,6.814-6.013c4.481-3.562,7.726-8.25,11.385-12.559c1.102-1.298,2.172-2.622,3.323-4.013
		c0.423,1.151-0.023,2.199-0.145,3.207c-0.365,2.996-0.764,5.996-1.515,8.93c-0.12,0.469-0.138,0.849,0.233,1.204
		c6.279,5.985,13.397,10.475,21.94,12.526c5.151,1.238,10.35,2.085,15.613,2.676c3.785,0.426,7.578,0.632,11.351,0.385
		c6.378-0.414,12.596-1.646,18.515-4.248c3.719-1.639,7.101-3.746,10.372-6.129c2.512-1.828,5.345-3.169,7.908-4.948
		c3.047-2.117,5.627-4.685,7.949-7.554c1.457-1.797,2.929-3.576,4.23-5.493C298.697,186.465,298.856,186.403,299.044,186.266z"/>
</g>
<g id="圖層_4">
	<g>
		<path fill-rule="evenodd" clip-rule="evenodd" fill="#F4F1E9" d="M83.354,150.59c0.615,1.441,0.415,2.65,0.558,3.791
			c0.377,2.996,0.765,5.99,1.741,8.846c0.608,1.777,1.94,3.205,2.996,4.754c1.885,2.762,4.075,5.275,6.546,7.539
			c4.569,4.18,9.684,7.426,15.657,9.232c6.931,2.096,13.896,4.059,21.001,5.473c2.333,0.465,4.705,0.746,7.088,0.877
			c0.658,0.035,1.31,0.176,2.082,0.283c-0.527,0.609-1.219,0.529-1.749,0.594c-5.419,0.658-10.866,0.949-16.318,0.725
			c-5.251-0.217-10.244-1.729-15.178-3.426c-3.276-1.129-6.376-2.652-9.257-4.547c-3.938-2.588-7.578-5.549-10.659-9.17
			c-1.361-1.6-2.554-3.264-3.375-5.189c-0.233-0.549-0.618-0.562-1.047-0.318c-1.054,0.596-2.206,0.555-3.333,0.465
			c-1.326-0.107-2.582,0.234-3.828,0.518c-1.817,0.416-3.617,0.223-5.371-0.082c-6.029-1.041-11.116-3.828-14.753-8.822
			c-2.184-3-3.406-6.445-3.328-10.229c0.026-1.289,0.276-2.574,0.906-3.732c0.281-0.518,0.619-1.088,1.329-0.967
			c0.702,0.117,0.705,0.816,0.772,1.314c0.42,3.111,1.299,6.045,3.084,8.666c3.34,4.904,7.76,8.055,13.81,8.682
			c1.704,0.176,3.386,0.59,5.067,0.943c1.671,0.354,2.984-0.736,4.489-1.045c0.34-0.07,0.261-0.426,0.229-0.703
			c-0.422-3.566-0.17-7.111,0.239-10.662C82.884,153.232,83.009,152.078,83.354,150.59z"/>
		<path fill-rule="evenodd" clip-rule="evenodd" fill="#F4F1E9" d="M316.254,162.188c0.255,0.656-0.186,1.107-0.386,1.586
			c-2.067,4.92-4.994,9.184-9.763,11.834c-3.274,1.818-6.868,2.281-10.589,1.881c-1.723-0.186-3.386-0.59-5.016-1.139
			c-0.657-0.219-0.979-0.176-1.146,0.607c-0.384,1.814-1.394,3.314-2.633,4.656c-1.082,1.168-1.434,2.768-2.495,3.975
			c-1.932,2.197-4.252,3.775-6.946,4.838c-2.533,0.998-5.169,1.42-7.888,1.633c-6.107,0.479-11.506-1.273-16.392-4.814
			c-0.787-0.57-1.445-1.328-2.114-2.047c-0.352-0.377-0.627-0.924-0.325-1.402c0.324-0.514,0.947-0.324,1.402-0.174
			c1.266,0.416,2.527,0.861,3.749,1.389c3.743,1.617,7.659,2.311,11.703,2.041c3.395-0.227,6.816-0.559,9.82-2.391
			c2.19-1.332,4.047-3.102,5.715-5.029c0.823-0.951,0.737-2.402,1.362-3.479c1.042-1.797,1.105-3.352-0.656-4.721
			c-0.17-0.133-0.239-0.4-0.342-0.613c-0.203-0.428-0.484-0.922-0.094-1.311c0.375-0.373,0.812,0.006,1.188,0.182
			c5.058,2.395,10.374,3.605,15.968,3.186c4.236-0.316,8.158-1.635,11.296-4.654c1.558-1.5,2.709-3.342,3.813-5.201
			C315.663,162.727,315.781,162.367,316.254,162.188z"/>
		<path fill-rule="evenodd" clip-rule="evenodd" fill="#F4F1E9" d="M245.767,97.593c0.036-1.263,0.657-2.252,1.512-3.067
			c2.817-2.688,6.028-4.573,10.049-4.761c6.552-0.306,12.49,1.28,17.415,5.787c2.796,2.559,4.166,5.895,4.758,9.589
			c0.406,2.528,0.247,5.068,0.236,7.606c-0.002,0.44-0.153,0.835-0.454,1.35c-0.654-1.058-0.597-2.223-0.913-3.261
			c-0.837-2.74-2.184-5.182-3.962-7.406c-0.928-1.161-1.801-2.371-2.788-3.479c-2.492-2.792-5.728-4.231-9.361-4.72
			c-2.59-0.348-5.174-0.761-7.813-0.779c-2.891-0.019-5.374,0.907-7.626,2.625C246.518,97.309,246.293,97.67,245.767,97.593z"/>
	</g>
</g>
<g id="圖層_5">
	<path fill="#EAE6D6" d="M275.675,220.4c1.425,12.123,12.414,20.793,24.537,19.367c6.401-0.752,11.817-4.185,15.324-9.033
		c7.349,7.632,18.04,11.892,29.372,10.557c4.186-0.5,8.095-1.746,11.646-3.537c3.895,6.827,11.594,11.035,19.891,10.059
		c7.899-0.934,14.122-6.342,16.6-13.362c8.9,8.317,21.255,12.831,34.311,11.288c11.579-1.358,21.503-7.215,28.291-15.602
		c4.104,1.516,8.624,2.143,13.266,1.59c15.712-1.851,26.947-16.092,25.098-31.805c-1.851-15.712-16.085-26.955-31.797-25.111
		c-2.238,0.269-4.372,0.805-6.401,1.537c-8.952-11.162-23.246-17.631-38.496-15.832c-1.581,0.188-3.118,0.471-4.641,0.82
		c-4.507-12.975-17.54-21.546-31.729-19.875c-16.257,1.918-27.909,16.533-26.238,32.76c-5.491-2.38-11.639-3.416-18.019-2.671
		c-14.83,1.753-26.38,12.526-29.871,26.187c-3.565-1.633-7.596-2.364-11.772-1.873C282.919,197.296,274.249,208.277,275.675,220.4z"
		/>
</g>
<g id="圖層_6">
	<g>
		<path fill-rule="evenodd" clip-rule="evenodd" fill="#DBD8C8" d="M426.215,226.997c3.86,0.021,7.399-1.101,10.947-2.281
			c3.198-1.064,5.153-3.171,6.014-6.37c0.133-0.496,0.107-1.19,0.78-1.188c0.642,0.002,0.821,0.703,0.827,1.179
			c0.021,1.556,0.695,1.203,1.673,0.771c2.418-1.069,4.773-2.184,6.324-4.468c1.27-1.867,1.628-4.001,1.85-6.179
			c0.028-0.261-0.103-0.575,0.361-0.838c0.693,1.619,0.594,3.257,0.499,4.921c-0.245,4.359-3.427,6.44-6.59,8.47
			c-1.583,1.015-3.277,1.9-5.161,2.317c-0.531,0.118-0.828,0.63-1.194,0.998c-2.161,2.18-4.899,2.965-7.838,3.336
			c-2.503,0.317-4.975,0.133-7.449-0.234C426.905,227.378,426.534,227.416,426.215,226.997z"/>
		<path fill-rule="evenodd" clip-rule="evenodd" fill="#DBD8C8" d="M349.273,216.744c-0.581,0.903-1.403,1.041-2.123,1.332
			c-4.691,1.896-8.846,0.627-11.649-3.632c-0.556-0.842-1.143-1.153-2.153-1.126c-2.001,0.054-3.993,0.154-5.965-0.604
			c-3.805-1.464-6.478-6.536-3.281-11.28c0.232-0.343,0.539-0.816,1.069-0.584c0.541,0.236,0.179,0.705,0.143,1.07
			c-0.149,1.52-0.562,3.062-0.155,4.561c0.912,3.356,2.64,4.258,6.139,4.484c0.645,0.042,1.293-0.007,1.938,0.012
			c0.547,0.017,0.938-0.028,1.239-0.656c0.399-0.826,0.928-0.765,1.346,0.123c0.767,1.627,1.838,3.015,3.095,4.284
			c1.566,1.581,3.641,1.732,5.655,2.073C346.081,217.058,347.593,217.166,349.273,216.744z"/>
		<path fill-rule="evenodd" clip-rule="evenodd" fill="#DBD8C8" d="M429.185,177.179c0.314,0.024,0.628,0.049,0.941,0.073
			c0.113,0.193,0.294,0.22,0.494,0.201c3.531,0.957,6.67,2.544,7.568,6.421c0.809,3.493-0.377,6.594-2.827,9.204
			c0.408-1.3,0.736-2.631,0.717-3.973c-0.04-2.735,0.294-5.623-2.264-7.629c-1.621-1.271-3.478-1.988-5.491-2.338
			c-1.685-0.294-3.355-0.394-4.991,0.259c-0.206,0.082-0.477,0.265-0.642-0.027c-0.156-0.277-0.025-0.558,0.178-0.773
			c0.838-0.892,1.852-1.398,3.098-1.392c0.241,0.002,0.483-0.024,0.725-0.038C427.522,177.172,428.354,177.176,429.185,177.179z"/>
		<path fill-rule="evenodd" clip-rule="evenodd" fill="#DBD8C8" d="M429.185,177.179c-0.831-0.003-1.662-0.007-2.494-0.012
			C427.525,176.52,428.356,176.499,429.185,177.179z"/>
		<path fill-rule="evenodd" clip-rule="evenodd" fill="#DBD8C8" d="M430.62,177.453c-0.2,0.019-0.381-0.008-0.494-0.201
			C430.48,176.852,430.545,177.165,430.62,177.453z"/>
	</g>
</g>
<g id="圖層_7">
	<path fill-rule="evenodd" clip-rule="evenodd" fill="#D8D5CB" d="M344.155,236.549c-0.622,0.013-1.248,0.026-1.875,0.04
		c-1.285-0.001-2.572-0.001-3.858-0.001c-0.626-0.013-1.253-0.028-1.878-0.039c-0.194-0.285-0.467-0.245-0.745-0.191
		c-0.386-0.019-0.771-0.036-1.157-0.056c-0.118-0.196-0.297-0.231-0.506-0.188c-1.168-0.271-2.335-0.541-3.503-0.812
		c-0.065-0.281-0.23-0.433-0.534-0.388c-0.694-0.267-1.393-0.529-2.088-0.792c-0.149-0.498-0.548-0.612-0.996-0.65
		c-3.463-1.852-6.744-3.974-9.692-6.58c-0.544-0.479-0.851-0.237-1.151,0.171c-1.592,2.145-3.666,3.75-5.986,4.955
		c-6.817,3.546-13.846,4.284-20.535,0.01c-7.162-4.576-9.411-11.876-6.136-19.954c0.841-2.072,1.401-2.774,2.519-3.245
		c-0.146,1.183-0.257,2.351-0.439,3.506c-0.515,3.247,0.285,6.286,1.49,9.234c0.646,1.576,2.062,2.505,3.494,3.271
		c3.46,1.849,6.975,3.673,10.916,4.175c6.247,0.795,10.798-0.248,14.583-6.208c0.393-0.616,0.649-0.821,1.356-0.29
		c2.188,1.638,4.598,2.935,6.965,4.293c0.2,0.69,0.87,0.79,1.382,0.985c6.725,2.531,13.578,4.279,20.846,3.017
		c1.959-0.34,3.981-0.377,5.854-1.153c1.905-0.5,3.845-0.879,5.679-1.621c0.593-0.24,0.924-0.151,1.374,0.399
		c1.524,1.869,3.393,3.294,5.771,3.975c2.313,0.663,4.509,1.686,6.866,2.248c4.016,0.96,7.702,0.041,11.408-1.479
		c3.928-1.611,6.906-4.228,9.217-7.711c0.167-0.254,0.334-0.538,0.799-0.632c-0.509,3.544,2.399,4.433,4.604,5.629
		c6.377,3.461,13.209,5.617,20.417,6.598c6.831,0.93,13.479,0.177,19.912-2.214c2.856-1.061,5.458-2.675,7.788-4.679
		c0.107-0.094,0.248-0.146,0.678-0.39c-1.371,2.214-2.533,4.19-4.357,5.579c-4.351,3.317-9.104,5.853-14.481,7.104
		c-5.6,1.302-11.069,0.793-16.377-1.311c-3.415-1.356-6.942-2.429-10.228-4.121c-3.289-1.694-6.454-3.54-8.919-6.378
		c-0.148-0.172-0.342-0.304-0.572-0.506c-0.905,1.749-1.385,3.651-2.682,5.08c-4.598,5.064-9.997,8.634-17.17,7.887
		c-5.022-0.524-9.413-2.628-12.622-6.748c-0.716-0.918-1.199-1.966-1.626-3.022c-0.343-0.845-0.693-1.049-1.44-0.482
		c-1.276,0.973-2.796,1.446-4.252,2.047c-0.678,0.125-1.342,0.292-1.926,0.687c-0.149,0.011-0.3,0.023-0.449,0.035
		c-0.278-0.041-0.558-0.081-0.738,0.215c-0.15,0.007-0.301,0.016-0.451,0.023c-0.275-0.042-0.552-0.083-0.738,0.201
		c-0.308,0.014-0.615,0.028-0.924,0.044c-0.277-0.047-0.553-0.089-0.742,0.195c-0.386,0.016-0.773,0.029-1.16,0.043
		C344.792,236.321,344.427,236.2,344.155,236.549z"/>
	<path fill-rule="evenodd" clip-rule="evenodd" fill="#CCCAC1" d="M480.104,211.523c0.483-1.208,1.008-2.402,1.441-3.629
		c1.649-4.646,3.163-9.322,2.524-14.407c1.375,1.323,1.933,2.97,2.353,4.723c1.032,4.289,1.26,8.566-0.079,12.824
		c-1.734,5.512-4.698,10.183-9.718,13.251c-2.023,1.237-4.328,1.95-6.645,2.527c-2.84,0.525-5.696,0.814-8.588,0.711
		c-0.222-0.007-0.447-0.014-0.67-0.019c-0.259-0.352-0.615-0.231-0.953-0.196c-1.328-0.1-2.652-0.221-3.896-0.751
		c0.012-0.141,0.021-0.279,0.032-0.417c0.451-0.009,0.9-0.018,1.353-0.026c0.318,0.289,0.628,0.308,0.923-0.032
		c0.386-0.06,0.772-0.12,1.157-0.182c0.17,0.21,0.323,0.186,0.461-0.037c0.223-0.013,0.445-0.027,0.667-0.04
		c0.271,0.04,0.543,0.084,0.719-0.206c0.145-0.01,0.29-0.019,0.436-0.028c0.204,0.043,0.38,0.003,0.489-0.195
		c0.146-0.01,0.291-0.022,0.437-0.032c5.841-1.412,10.965-4.025,14.633-8.959C478.31,214.882,479.591,213.426,480.104,211.523z"/>
	<path fill-rule="evenodd" clip-rule="evenodd" fill="#E9E8DC" d="M476.615,211.915c-0.513,1.902-1.794,3.358-2.925,4.879
		c-3.668,4.934-8.792,7.547-14.633,8.959c0.888-0.927,2.164-1.098,3.269-1.485c3.903-1.372,7.188-3.598,9.91-6.668
		c1.293-1.458,2.468-3.021,3.479-4.7C475.943,212.521,476.103,212.048,476.615,211.915z"/>
	<path fill-rule="evenodd" clip-rule="evenodd" fill="#E9E8DC" d="M457.904,227.915c2.892,0.104,5.748-0.186,8.588-0.711
		c-0.838,1.027-2.121,0.915-3.206,1.06c-1.57,0.209-3.189,0.058-4.788,0.064C458.195,228.33,457.984,228.222,457.904,227.915z"/>
	<path fill-rule="evenodd" clip-rule="evenodd" fill="#E9E8DC" d="M454.692,226.474c-0.295,0.34-0.604,0.321-0.923,0.032
		C454.066,226.172,454.375,226.177,454.692,226.474z"/>
	<path fill-rule="evenodd" clip-rule="evenodd" fill="#E9E8DC" d="M452.417,226.532c-0.012,0.138-0.021,0.276-0.032,0.417
		c-0.27-0.052-0.616,0.137-0.8-0.244C451.813,226.358,452.133,226.534,452.417,226.532z"/>
	<path fill-rule="evenodd" clip-rule="evenodd" fill="#E9E8DC" d="M456.281,227.7c0.338-0.035,0.694-0.155,0.953,0.196
		C456.841,228.205,456.504,228.227,456.281,227.7z"/>
	<path fill-rule="evenodd" clip-rule="evenodd" fill="#E9E8DC" d="M457.696,226.009c-0.176,0.29-0.448,0.246-0.719,0.206
		C457.117,225.791,457.342,225.672,457.696,226.009z"/>
	<path fill-rule="evenodd" clip-rule="evenodd" fill="#E9E8DC" d="M458.621,225.785c-0.109,0.198-0.285,0.238-0.489,0.195
		C458.219,225.726,458.297,225.449,458.621,225.785z"/>
	<path fill-rule="evenodd" clip-rule="evenodd" fill="#E9E8DC" d="M456.311,226.255c-0.138,0.223-0.291,0.247-0.461,0.037
		C455.984,226.042,456.138,226.019,456.311,226.255z"/>
</g>
</svg>
