<?xml version="1.0" encoding="utf-8"?>
<!-- Generator: Adobe Illustrator 16.0.0, SVG Export Plug-In . SVG Version: 6.00 Build 0)  -->
<!DOCTYPE svg PUBLIC "-//W3C//DTD SVG 1.1//EN" "http://www.w3.org/Graphics/SVG/1.1/DTD/svg11.dtd">
<svg version="1.1" id="圖層_1" xmlns="http://www.w3.org/2000/svg" xmlns:xlink="http://www.w3.org/1999/xlink" x="0px" y="0px"
	 width="125.667px" height="141.333px" viewBox="0 0 125.667 141.333" enable-background="new 0 0 125.667 141.333"
	 xml:space="preserve">
<g>
	<path fill="#FEFCE7" d="M6.683,63.668c0,21.413,11.612,40.117,28.885,50.153c1.597,0.93-6.653,21.639-4.97,22.412
		c1.832,0.84,13.609-18.27,15.537-17.619c5.814,1.957,12.039,3.021,18.515,3.021c32.016,0,57.965-25.953,57.965-57.966
		c0-32.012-25.949-57.964-57.965-57.964C32.635,5.704,6.683,31.655,6.683,63.668z"/>
	<g>
		<path fill="none" stroke="#FBB11D" stroke-linecap="round" stroke-miterlimit="10" stroke-dasharray="1.9978,2.9968" d="
			M3.052,63.036c0,21.413,11.612,40.117,28.885,50.153c1.597,0.93-6.653,21.639-4.97,22.411c1.832,0.841,13.609-18.27,15.537-17.618
			c5.814,1.957,12.039,3.021,18.516,3.021c32.015,0,57.964-25.953,57.964-57.966c0-32.012-25.949-57.964-57.964-57.964
			C29.004,5.072,3.052,31.023,3.052,63.036z"/>
	</g>
</g>
</svg>
