<?xml version="1.0" encoding="utf-8"?>
<!-- Generator: Adobe Illustrator 16.0.0, SVG Export Plug-In . SVG Version: 6.00 Build 0)  -->
<!DOCTYPE svg PUBLIC "-//W3C//DTD SVG 1.1//EN" "http://www.w3.org/Graphics/SVG/1.1/DTD/svg11.dtd">
<svg version="1.1" id="圖層_1" xmlns="http://www.w3.org/2000/svg" xmlns:xlink="http://www.w3.org/1999/xlink" x="0px" y="0px"
	 width="500px" height="268px" viewBox="0 0 500 268" enable-background="new 0 0 500 268" xml:space="preserve">
<g>
	<path fill="#FFFCE7" d="M391.872,106.18c-8.236,0-15.913,2.342-22.471,6.337c-9.923-25.765-34.849-44.08-64.116-44.08
		c-12.556,0-24.291,3.42-34.423,9.299c-0.478-31.935-26.474-57.689-58.524-57.689c-28,0-51.374,19.659-57.163,45.916
		c-3.037-0.332-6.106-0.529-9.229-0.529c-30.084,0-56.402,15.861-71.248,39.623c-4.115-0.959-8.382-1.519-12.788-1.519
		c-30.991,0-56.118,25.127-56.118,56.118s25.127,56.118,56.118,56.118c9.166,0,17.79-2.245,25.429-6.14
		c15.142,14.749,35.796,23.874,58.606,23.874c19.338,0,37.131-6.551,51.321-17.54c12.374,8.147,27.164,12.922,43.085,12.922
		c21.968,0,41.798-9.05,56.047-23.598c2.91,0.388,5.864,0.656,8.886,0.656c22.359,0,42.167-10.721,54.724-27.246
		c7.915,8.624,19.24,14.056,31.863,14.056c23.904,0,43.286-19.383,43.286-43.286C435.158,125.562,415.777,106.18,391.872,106.18z"/>
	<path fill="#EFEBD5" d="M275.675,220.401c1.425,12.123,12.414,20.792,24.537,19.367c6.401-0.753,11.817-4.185,15.324-9.034
		c7.349,7.632,18.04,11.892,29.372,10.557c4.186-0.5,8.095-1.746,11.646-3.537c3.894,6.827,11.593,11.035,19.89,10.058
		c7.9-0.933,14.122-6.342,16.6-13.362c8.9,8.318,21.255,12.832,34.311,11.288c11.579-1.358,21.502-7.214,28.291-15.601
		c4.104,1.516,8.624,2.142,13.265,1.59c15.712-1.851,26.947-16.093,25.098-31.805c-1.851-15.712-16.085-26.955-31.797-25.112
		c-2.238,0.269-4.372,0.806-6.401,1.537c-8.953-11.161-23.247-17.63-38.497-15.831c-1.581,0.187-3.118,0.47-4.64,0.82
		c-4.507-12.974-17.54-21.546-31.73-19.875c-16.256,1.918-27.909,16.533-26.238,32.76c-5.491-2.38-11.639-3.417-18.018-2.671
		c-14.831,1.753-26.38,12.526-29.872,26.187c-3.565-1.634-7.595-2.365-11.772-1.873
		C282.919,197.296,274.249,208.277,275.675,220.401z"/>
</g>
</svg>
