<?xml version="1.0" encoding="utf-8"?>
<!-- Generator: Adobe Illustrator 16.0.0, SVG Export Plug-In . SVG Version: 6.00 Build 0)  -->
<!DOCTYPE svg PUBLIC "-//W3C//DTD SVG 1.1//EN" "http://www.w3.org/Graphics/SVG/1.1/DTD/svg11.dtd">
<svg version="1.1" id="圖層_1" xmlns="http://www.w3.org/2000/svg" xmlns:xlink="http://www.w3.org/1999/xlink" x="0px" y="0px"
	 width="500px" height="268px" viewBox="0 0 500 268" enable-background="new 0 0 500 268" xml:space="preserve">
<g>
	<path fill="#FFFCE7" d="M259.27,181.519c-6.271,0.4-12.54,0.819-18.813,1.185c-1.569,0.09-3.161,0.113-4.725-0.025
		c-4.349-0.384-8.684,0.195-13.052,0.007c-8.299-0.359-16.627-0.184-24.939-0.021c-7.974,0.156-15.94,0.637-23.913,0.859
		c-6.275,0.176-12.556,0.153-18.833,0.27c-1.798,0.034-3.591,0.334-5.388,0.349c-2.674,0.021-5.353-0.064-8.026-0.18
		c-7.527-0.318-15.056-0.622-22.577-1.043c-3.128-0.176-6.241-0.624-9.359-0.96c-1.12-0.121-2.237-0.4-3.356-0.4
		c-8.65-0.012-16.866-2.132-24.85-5.217c-3.534-1.365-6.781-3.6-10.388-4.621c-5.53-1.568-10.426-4.425-14.892-7.632
		c-4.902-3.518-9.998-6.819-14.673-10.635c-2.389-1.948-4.257-4.608-6.096-7.142c-2.177-2.995-4.188-6.13-6.058-9.329
		c-3.799-6.501-7.443-13.091-11.174-19.63c-1.832-3.213-4.018-6.263-5.481-9.632c-1.23-2.829-2.081-5.977-2.333-9.047
		C9.841,92.518,9.581,86.309,9.75,80.136c0.15-5.477,0.619-10.998,2.535-16.246c0.154-0.423,0.363-0.866,0.361-1.299
		c-0.026-4.447,1.861-8.286,4.038-11.94c1.349-2.266,3.06-4.375,4.894-6.281c2.328-2.417,4.941-4.561,7.439-6.813
		c5.127-4.624,11.121-7.984,16.997-11.493c5.965-3.559,12.02-6.972,18.069-10.389c1.448-0.817,3.014-1.439,4.559-2.069
		c4.044-1.651,8.042-3.45,12.18-4.831c4.654-1.553,9.075,0.012,13.369,1.791c1.138,0.471,2.284,1.001,3.288,1.702
		c3.236,2.259,6.568,1.355,9.957,0.534c2.932-0.711,5.953-1.087,8.838-1.94c5.932-1.755,12.062-2.412,18.111-3.489
		c4.62-0.821,9.316-1.234,13.986-1.768c5.015-0.573,10.03-1.154,15.059-1.578c2.748-0.232,5.473-0.861,8.287-0.36
		c1.418,0.252,2.927,0.103,4.386,0.008c4.932-0.319,9.854-0.785,14.791-1.001c1.882-0.081,3.784,0.486,5.683,0.546
		c7.4,0.234,14.806,0.317,22.206,0.586c6.631,0.241,13.25,0.772,19.88,0.955c7.072,0.196,14.149,0.13,21.225,0.191
		c0.562,0.005,1.121,0.111,1.682,0.182c5.192,0.661,10.396,1.261,15.576,2.017c2.074,0.303,4.091,0.987,6.146,1.434
		c3.737,0.812,7.489,1.553,11.227,2.362c5.046,1.093,10.084,2.235,15.132,3.329c1.861,0.404,3.754,0.676,5.606,1.115
		c1.163,0.277,2.27,0.775,3.412,1.137c0.744,0.234,1.5,0.419,2.255,0.597c4.596,1.079,9.287,1.851,13.756,3.311
		c3.707,1.211,7.153,3.217,10.704,4.891c3.952,1.865,8.054,3.485,11.796,5.707c4.044,2.403,7.771,5.345,11.589,8.118
		c4.527,3.288,7.417,8.064,10.957,12.248c0.072,0.086,0.159,0.172,0.193,0.275c1.753,5.265,6.188,8.968,8.064,14.269
		c1.154,3.264,2.105,6.532,3.09,9.835c1.556,5.212,1.92,10.57,2.814,15.855c0.481,2.842,0.364,5.779,0.604,8.668
		c0.127,1.559,0.833,3.168,0.583,4.637c-0.429,2.518-1.316,4.976-2.171,7.401c-1.116,3.178-2.387,6.301-3.598,9.445
		c-0.283,0.735-0.552,1.479-0.897,2.186c-1.874,3.83-3.639,7.722-5.705,11.446c-1.349,2.436-3.09,4.66-4.753,6.909
		c-1.846,2.495-3.592,5.122-5.777,7.291c-1.711,1.698-4.036,2.771-6.069,4.147c-3.167,2.143-6.267,4.388-9.493,6.431
		c-1.779,1.126-3.729,1.995-5.657,2.863c-3.658,1.652-7.247,3.586-11.064,4.726c-4.246,1.267-8.344,3.17-12.917,3.359
		c-1.858,0.077-3.674,0.984-5.529,1.416c-6.985,1.624-13.988,3.06-21.181,3.608c-3.196,0.244-6.291,1.638-9.487,2.16
		c-5.546,0.905-11.124,1.624-16.706,2.262c-4.909,0.562-9.845,0.906-14.767,1.349C259.288,181.797,259.278,181.658,259.27,181.519z"
		/>
	<path fill="#FFFCE7" d="M307.018,175.396c0,0,90.444-2.359,137.664,76.073c16.007-9.604,15.206-23.209,15.206-23.209
		s-18.417-55.644-73.235-100.652s-83.63,0-83.63,0L307.018,175.396z"/>
	<path fill="#FFFCE7" d="M446.282,236.278c-16.512,5.746-39.198-4.73-55.084,3.341c-0.286,1.198-0.239,2.524,0,3.724
		c13.319,5.579,28.996,7.732,43.218,11.127c8.858,2.114,17.972,3.379,26.719,5.822c3.82,1.065,12.524,6.183,16.382,4.812
		c11.414-4.057,12.802-37.849,12.784-47.214c-0.032-16.831-3.452-28.349-16.647-38.353c0.92,20.938-11.32,41.537-24.97,56.741"/>
</g>
</svg>
