<?xml version="1.0" encoding="utf-8"?>
<!-- Generator: Adobe Illustrator 16.0.0, SVG Export Plug-In . SVG Version: 6.00 Build 0)  -->
<!DOCTYPE svg PUBLIC "-//W3C//DTD SVG 1.1//EN" "http://www.w3.org/Graphics/SVG/1.1/DTD/svg11.dtd">
<svg version="1.1" id="圖層_1" xmlns="http://www.w3.org/2000/svg" xmlns:xlink="http://www.w3.org/1999/xlink" x="0px" y="0px"
	 width="192.851px" height="100.058px" viewBox="0 0 192.851 100.058" enable-background="new 0 0 192.851 100.058"
	 xml:space="preserve">
<path fill-rule="evenodd" clip-rule="evenodd" fill="#FEFCE7" d="M192.512,44.333c-0.076-0.715-0.166-1.429-0.226-2.145
	c-0.043-0.532-0.044-1.066-0.065-1.599c-0.012-0.276,0.002-0.553-0.047-0.827c-0.125-0.696-0.31-1.388-0.41-2.085
	c-0.088-0.61-0.083-1.226-0.138-1.838c-0.037-0.408-0.106-0.815-0.16-1.223c0.019-0.001,0.038-0.001,0.057-0.003
	c-0.142-0.753-0.283-1.507-0.427-2.261c-0.042-0.216-0.092-0.432-0.13-0.648c-0.102-0.594-0.631-1.145-0.527-1.763
	c0.018-0.107-0.101-0.223-0.166-0.333c-0.134-0.221-0.283-0.438-0.409-0.661c-0.483-0.855-0.881-1.728-1.485-2.561
	c-0.469-0.646-0.904-1.301-1.35-1.953c-0.147-0.216-0.27-0.438-0.422-0.652c-0.398-0.562-1.286-0.978-1.445-1.615
	c-0.02-0.074-0.18-0.136-0.271-0.205c-0.219-0.16-0.442-0.319-0.648-0.483c-0.325-0.261-0.618-0.534-0.958-0.788
	c-0.555-0.414-1.152-0.808-1.699-1.226c-0.207-0.158-0.415-0.269-0.751-0.337c-0.288-0.059-0.611-0.178-0.763-0.324
	c-0.486-0.47-1.259-0.749-1.961-1.078c-0.328-0.154-0.664-0.311-0.931-0.498c-0.47-0.331-0.943-0.644-1.609-0.854
	c-0.326-0.103-0.607-0.261-0.88-0.413c-0.873-0.484-1.737-0.971-2.761-1.356c-0.46-0.173-0.842-0.416-1.296-0.598
	c-0.861-0.345-1.455-0.903-2.536-1.073c-0.092-0.015-0.168-0.064-0.246-0.102c-0.674-0.327-1.481-0.561-2.035-0.973
	c-0.059-0.044-0.169-0.062-0.251-0.097c-0.284-0.119-0.561-0.243-0.851-0.357c-0.307-0.122-0.631-0.23-0.938-0.353
	c-0.262-0.104-0.525-0.21-0.759-0.334c-0.519-0.274-0.945-0.641-1.543-0.824c-0.782-0.238-1.57-0.46-2.28-0.767
	c-0.682-0.294-1.368-0.586-2.045-0.884c-0.674-0.296-1.053-0.797-1.95-0.941c-0.062-0.01-0.094-0.068-0.154-0.093
	c-0.224-0.09-0.455-0.172-0.677-0.264c-0.181-0.075-0.379-0.145-0.519-0.242c-0.275-0.19-0.577-0.307-0.991-0.416
	c-0.606-0.158-1.216-0.299-1.827-0.447c-0.831-0.202-1.629-0.446-2.505-0.596c-0.352-0.061-0.655-0.21-0.984-0.316
	c-0.37-0.119-0.729-0.302-1.122-0.335c-0.754-0.064-1.384-0.259-2.024-0.466c-0.415-0.133-0.839-0.271-1.287-0.358
	c-0.59-0.115-1.145-0.271-1.785-0.331c-0.748-0.07-1.553-0.126-2.182-0.448c-0.139-0.07-0.419-0.058-0.636-0.062
	c-0.601-0.012-1.204-0.01-1.807-0.019c-0.384-0.006-0.657-0.104-0.837-0.314c-0.096-0.112-0.261-0.223-0.443-0.29
	c-1.013-0.376-2.14-0.588-3.325-0.664c-0.874-0.057-1.763-0.052-2.646-0.064c-0.754-0.01-1.514,0.023-2.263-0.017
	c-1.178-0.065-2.348-0.177-3.523-0.268c-0.175-0.014-0.354-0.011-0.526-0.03c-0.542-0.061-1.109-0.088-1.619-0.2
	c-1.253-0.274-2.525-0.37-3.859-0.335c-1.03,0.026-2.071,0.002-3.099-0.051c-1.431-0.073-2.851-0.221-4.281-0.288
	c-1.785-0.084-3.578-0.115-5.367-0.176c-1.258-0.044-2.514-0.107-3.771-0.152C100.284,0.032,99.43-0.005,98.576,0
	c-1.006,0.006-2.01,0.055-3.017,0.084C95.006,0.1,94.453,0.117,93.9,0.127c-1.083,0.019-2.166,0.046-3.249,0.043
	c-1.134-0.003-2.274-0.092-3.4-0.047c-2.237,0.089-4.467,0.243-6.699,0.373c-0.375,0.022-0.747,0.072-1.123,0.087
	c-0.829,0.032-1.669,0.012-2.486,0.083c-2.137,0.188-4.302,0.298-6.368,0.708c-0.402,0.08-0.816,0.161-1.236,0.189
	c-2.463,0.165-4.853,0.5-7.164,1.021c-2.001,0.45-4.064,0.784-6.127,1.117c-0.917,0.148-1.836,0.288-2.748,0.444
	c-0.525,0.089-1.049,0.186-1.553,0.308c-0.974,0.236-1.933,0.491-2.896,0.741c-1.077,0.279-2.142,0.574-3.231,0.836
	c-0.76,0.183-1.431,0.501-2.305,0.521c-0.115,0.002-0.226,0.06-0.342,0.089c-0.916,0.231-1.805,0.513-2.755,0.68
	c-0.912,0.159-1.706,0.439-2.506,0.701c-1.326,0.435-2.582,0.941-3.868,1.416c-0.923,0.34-1.917,0.611-2.812,0.981
	c-0.814,0.337-1.684,0.63-2.533,0.938c-0.277,0.101-0.595,0.168-0.848,0.284c-1.078,0.499-2.158,0.996-3.198,1.52
	c-1.103,0.556-2.162,1.141-3.238,1.713c-0.518,0.276-1.031,0.555-1.545,0.833c-0.57,0.309-1.165,0.603-1.701,0.931
	c-0.866,0.53-1.695,1.081-2.534,1.625c-0.533,0.346-1.176,0.631-1.573,1.051c-0.3,0.316-0.612,0.647-1.044,0.901
	c-0.666,0.39-1.059,0.876-1.58,1.316c-0.61,0.516-1.176,1.049-1.769,1.572c-0.649,0.572-1.318,1.137-1.956,1.714
	c-0.27,0.244-0.493,0.506-0.717,0.766c-0.531,0.611-1.05,1.226-1.57,1.839c-0.043,0.052-0.057,0.111-0.088,0.166
	c-0.28,0.482-0.553,0.967-0.845,1.447c-0.132,0.216-0.329,0.42-0.454,0.637c-0.328,0.567-0.624,1.141-0.953,1.708
	c-0.103,0.178-0.319,0.336-0.401,0.516c-0.215,0.471-0.399,0.947-0.569,1.424c-0.147,0.414-0.284,0.831-0.378,1.25
	c-0.091,0.405-0.109,0.815-0.461,1.187c-0.071,0.074-0.099,0.166-0.118,0.251c-0.098,0.434-0.185,0.868-0.277,1.302
	c-0.095,0.448-0.282,0.897-0.268,1.344c0.02,0.586,0.057,1.166-0.078,1.75c-0.08,0.346-0.074,0.694,0.165,1.037
	c0.115,0.165,0.072,0.373,0.064,0.561c-0.011,0.292-0.073,0.582-0.078,0.873c-0.008,0.41-0.004,0.819,0.032,1.228
	c0.043,0.48,0.107,0.959,0.2,1.436c0.059,0.304,0.224,0.601,0.277,0.904c0.089,0.508,0.101,1.02,0.193,1.527
	c0.178,0.984,0.391,1.968,0.585,2.951c0.012,0.057,0.019,0.12-0.015,0.172c-0.193,0.292-0.098,0.581,0.048,0.862
	C2.034,52.4,1.99,52.852,1.96,53.301c-0.041,0.618-0.275,1.232,0.006,1.853c0.067,0.147-0.018,0.317-0.027,0.477
	c-0.009,0.144-0.022,0.288-0.012,0.433c0.016,0.218,0.064,0.436,0.074,0.653c0.03,0.673,0.048,1.346,0.072,2.018
	c0.011,0.306,0.112,0.618,0.021,0.912C1.983,60,1.986,60.338,2.09,60.689c0.072,0.244,0.073,0.495,0.085,0.745
	c0.033,0.698,0.045,1.397,0.087,2.096c0.023,0.38,0.085,0.759,0.137,1.138c0.137,0.99,0.245,1.98,0.623,2.955
	c0.107,0.277,0.06,0.576,0.086,0.864c0.01,0.116,0.001,0.235,0.042,0.349c0.24,0.671,0.489,1.34,0.745,2.008
	c0.037,0.098,0.134,0.187,0.198,0.28c0.083,0.122,0.214,0.243,0.233,0.368c0.089,0.591,0.464,1.128,0.83,1.672
	c0.181,0.27,0.23,0.568,0.338,0.854c0.092,0.24,0.155,0.486,0.28,0.72c0.28,0.53,0.602,1.052,0.885,1.58
	c0.178,0.331,0.293,0.673,0.477,1.002c0.323,0.581,0.837,1.121,0.978,1.74c0.114,0.501,0.207,1.007,0.691,1.461
	c0.232,0.217,0.287,0.493,0.464,0.733c0.504,0.68,1.024,1.354,1.549,2.03c0.423,0.543,0.85,1.088,1.303,1.625
	c0.13,0.152,0.414,0.266,0.532,0.421c0.427,0.563,0.981,1.08,1.603,1.577c0.307,0.245,0.552,0.517,0.824,0.778
	c0.26,0.249,0.463,0.528,0.791,0.742c0.457,0.302,1.037,0.539,1.506,0.833c0.511,0.32,1.028,0.65,1.408,1.023
	c0.362,0.355,0.846,0.612,1.392,0.849c0.402,0.174,0.827,0.331,1.223,0.51c0.875,0.396,1.726,0.808,2.611,1.195
	c0.376,0.165,0.813,0.283,1.224,0.421c0.277,0.094,0.547,0.196,0.836,0.276c0.226,0.063,0.485,0.085,0.713,0.146
	c1.094,0.291,2.114,0.667,3.269,0.895c1.049,0.207,2.056,0.484,3.083,0.729c0.303,0.072,0.62,0.126,0.915,0.206
	c0.613,0.166,1.215,0.347,1.826,0.516c0.11,0.03,0.25,0.057,0.364,0.046c0.819-0.081,1.536,0.096,2.257,0.278
	c0.275,0.07,0.57,0.116,0.862,0.159c0.485,0.069,0.978,0.124,1.465,0.188c1.203,0.157,2.407,0.315,3.609,0.475
	c1.027,0.136,2.052,0.275,3.08,0.411c0.857,0.112,1.714,0.305,2.576,0.312c1.354,0.011,2.529,0.374,3.812,0.511
	c0.636,0.068,1.217,0.281,1.9,0.258c0.141-0.005,0.315,0.022,0.426,0.072c0.312,0.137,0.653,0.14,1.011,0.119
	c1.344-0.078,2.667,0.037,3.988,0.152c1.04,0.092,2.073,0.21,3.116,0.287c1.349,0.099,2.701,0.187,4.057,0.246
	c1.178,0.052,2.361,0.055,3.542,0.085c0.377,0.009,0.762,0.078,1.128,0.051c1.165-0.088,2.306,0.029,3.452,0.096
	c0.928,0.053,1.844,0.194,2.771,0.224c2.262,0.072,4.527,0.104,6.792,0.146c0.757,0.016,1.516,0.015,2.273,0.021
	c1.061,0.01,2.122,0.043,3.182,0.025c1.25-0.021,2.501-0.033,3.748-0.06c0.918-0.02,1.841-0.066,2.766-0.071
	c0.398-0.002,0.797-0.061,1.197-0.081c1.024-0.055,2.062-0.062,3.07-0.163c1.356-0.135,2.689-0.215,4.039,0.009
	c0.188,0.03,0.444-0.019,0.641-0.068c0.878-0.218,1.792-0.062,2.686-0.104c0.046-0.003,0.101,0.014,0.142,0.03
	c0.367,0.152,0.756,0.093,1.07-0.023c0.382-0.144,0.74-0.119,1.15-0.093c0.547,0.035,1.133,0.087,1.646,0.008
	c0.474-0.072,0.926-0.129,1.404-0.112c0.75,0.028,1.499,0.076,2.249,0.108c0.146,0.006,0.311,0.002,0.441-0.03
	c0.521-0.129,1.038-0.072,1.566-0.034c0.474,0.034,0.953,0.049,1.43,0.067c0.502,0.021,1.008,0.023,1.506,0.059
	c0.699,0.052,1.408,0.095,2.086,0.2c0.643,0.1,1.25,0.278,1.879,0.415c0.251,0.055,0.513,0.114,0.775,0.125
	c0.954,0.039,1.911,0.057,2.866,0.087c0.421,0.015,0.841,0.054,1.261,0.058c0.752,0.005,1.503-0.014,2.256-0.044
	c0.832-0.031,1.653-0.079,2.467-0.172c0.792-0.091,1.572-0.272,2.365-0.289c1.263-0.026,2.349-0.349,3.454-0.605
	c1.409-0.326,2.885-0.516,4.3-0.821c0.539-0.115,1.097-0.216,1.601-0.372c0.979-0.303,2.024-0.499,3.066-0.707
	c0.304-0.06,0.661-0.126,0.855-0.258c0.358-0.243,0.805-0.33,1.299-0.406c0.28-0.044,0.547-0.128,0.805-0.21
	c0.629-0.202,1.219-0.465,1.887-0.605c0.466-0.098,0.858-0.231,1.244-0.393c0.12-0.05,0.21-0.146,0.335-0.164
	c0.745-0.095,1.282-0.373,1.856-0.638c0.509-0.232,1.084-0.429,1.67-0.591c0.608-0.169,1.267-0.277,1.9-0.416
	c0.162-0.035,0.338-0.071,0.467-0.134c0.705-0.351,1.402-0.707,2.092-1.067c0.165-0.086,0.361-0.19,0.413-0.306
	c0.158-0.348,0.656-0.493,1.083-0.688c0.134-0.062,0.269-0.128,0.366-0.208c0.316-0.259,0.557-0.558,0.936-0.778
	c0.54-0.315,0.759-0.706,1.051-1.091c0.219-0.288,0.469-0.604,0.862-0.803c0.587-0.298,0.8-0.658,0.93-1.066
	c0.041-0.125,0.091-0.257,0.191-0.368c0.418-0.465,0.876-0.919,1.28-1.389c0.3-0.351,0.558-0.715,0.802-1.079
	c0.306-0.457,0.582-0.921,0.862-1.383c0.267-0.441,0.505-0.887,0.788-1.323c0.168-0.257,0.407-0.498,0.597-0.751
	c0.118-0.157,0.191-0.326,0.309-0.485c0.488-0.654,0.948-1.317,1.493-1.956c0.387-0.451,0.853-0.87,1.005-1.389
	c0.071-0.243,0.446-0.451,0.646-0.687c0.104-0.125,0.198-0.28,0.164-0.41c-0.054-0.205-0.015-0.366,0.221-0.527
	c0.104-0.071,0.115-0.188,0.168-0.285c0.133-0.25,0.267-0.499,0.401-0.749c0.075-0.139,0.172-0.274,0.226-0.416
	c0.225-0.612,0.496-1.211,1.062-1.761c0.275-0.268,0.398-0.592,0.565-0.896c0.158-0.291,0.241-0.597,0.431-0.88
	c0.361-0.542,0.845-1.059,1.145-1.611c0.385-0.708,0.639-1.44,0.946-2.162c0.055-0.128,0.092-0.26,0.16-0.384
	c0.471-0.868,0.703-1.761,0.695-2.667c-0.002-0.306,0.09-0.575,0.303-0.845c0.587-0.743,1.02-1.519,1.432-2.302
	c0.285-0.541,0.667-1.066,1.008-1.599c0.157-0.245,0.324-0.489,0.475-0.736c0.125-0.203,0.162-0.438,0.366-0.608
	c0.31-0.258,0.352-0.537,0.429-0.826c0.124-0.474,0.221-0.956,0.473-1.408c0.215-0.39,0.455-0.769,0.512-1.181
	c0.015-0.098,0.113-0.191,0.161-0.29c0.243-0.507,0.532-1.008,0.71-1.522c0.227-0.655,0.37-1.322,0.534-1.984
	c0.055-0.216,0.015-0.443,0.097-0.655c0.264-0.683,0.571-1.36,0.848-2.041c0.068-0.168,0.103-0.344,0.115-0.518
	c0.039-0.553-0.038-1.118,0.12-1.659C192.613,45.404,192.568,44.872,192.512,44.333z"/>
</svg>
