<?xml version="1.0" encoding="utf-8"?>
<!-- Generator: Adobe Illustrator 16.0.0, SVG Export Plug-In . SVG Version: 6.00 Build 0)  -->
<!DOCTYPE svg PUBLIC "-//W3C//DTD SVG 1.1//EN" "http://www.w3.org/Graphics/SVG/1.1/DTD/svg11.dtd">
<svg version="1.1" id="圖層_1" xmlns="http://www.w3.org/2000/svg" xmlns:xlink="http://www.w3.org/1999/xlink" x="0px" y="0px"
	 width="855.667px" height="181px" viewBox="0 0 855.667 181" enable-background="new 0 0 855.667 181" xml:space="preserve">
<polygon opacity="0.6" fill="#B1DFDC" points="198.935,134 5,134 42.39,90.5 5,47 198.935,47 234.681,90.5 "/>
<polygon opacity="0.6" fill="#BFC23A" points="404.374,134 210.439,134 247.829,90.5 210.439,47 404.374,47 440.119,90.5 "/>
<polygon opacity="0.6" fill="#FAB11C" points="609.812,134 415.879,134 453.268,90.5 415.879,47 609.812,47 645.559,90.5 "/>
<polygon opacity="0.6" fill="#B8A880" points="815.251,134 621.316,134 658.707,90.5 621.316,47 815.251,47 850.997,90.5 "/>
<circle fill="#B1DFDC" cx="127.667" cy="90.5" r="84.5"/>
<circle fill="#BFC23A" cx="330.667" cy="90.5" r="84.5"/>
<circle fill="#FAB11C" cx="536.667" cy="90.5" r="84.5"/>
<circle fill="#B8A880" cx="742.667" cy="90.5" r="84.5"/>
<circle opacity="0.9" fill="#FFFFFF" cx="127.667" cy="90.5" r="76"/>
<circle opacity="0.9" fill="#FFFFFF" cx="330.667" cy="90.5" r="76"/>
<circle opacity="0.9" fill="#FFFFFF" cx="536.667" cy="90.5" r="76"/>
<circle opacity="0.9" fill="#FFFFFF" cx="742.667" cy="90.5" r="76"/>
<text transform="matrix(1 0 0 1 87.667 87.877)" font-family="'jf-jinxuan-fresh-Medium-B5pc-H'" font-size="20">三次系審</text>
<text transform="matrix(1 0 0 1 78.54 113.5449)" fill="#6D6E71" font-family="'jf-jinxuan-fresh-Medium-B5pc-H'" font-size="16">03/02 - 03/03</text>
<text transform="matrix(1 0 0 1 300.667 87.877)" font-family="'jf-jinxuan-fresh-Medium-B5pc-H'" font-size="20">校內展</text>
<text transform="matrix(1 0 0 1 280.667 113.5449)" fill="#6D6E71" font-family="'jf-jinxuan-fresh-Medium-B5pc-H'" font-size="16">04/08 - 04/14</text>
<text transform="matrix(1 0 0 1 476.667 87.877)" font-family="'jf-jinxuan-fresh-Medium-B5pc-H'" font-size="20">新一代設計展</text>
<text transform="matrix(1 0 0 1 487.5479 113.5449)" fill="#6D6E71" font-family="'jf-jinxuan-fresh-Medium-B5pc-H'" font-size="16">05/19 - 05/22</text>
<text transform="matrix(1 0 0 1 683.4189 87.877)" font-family="'jf-jinxuan-fresh-Medium-B5pc-H'" font-size="20">臺中A</text>
<text transform="matrix(0.583 0 0 0.583 736.6582 81.2168)" font-family="'jf-jinxuan-fresh-Medium-B5pc-H'" font-size="20">+</text>
<text transform="matrix(1 0 0 1 741.917 87.877)" font-family="'jf-jinxuan-fresh-Medium-B5pc-H'" font-size="20">創意季</text>
<text transform="matrix(1 0 0 1 693.7568 113.5449)" fill="#6D6E71" font-family="'jf-jinxuan-fresh-Medium-B5pc-H'" font-size="16">05/26 - 05/31</text>
</svg>
