<?xml version="1.0" encoding="utf-8"?>
<!-- Generator: Adobe Illustrator 16.0.0, SVG Export Plug-In . SVG Version: 6.00 Build 0)  -->
<!DOCTYPE svg PUBLIC "-//W3C//DTD SVG 1.1//EN" "http://www.w3.org/Graphics/SVG/1.1/DTD/svg11.dtd">
<svg version="1.1" id="圖層_1" xmlns="http://www.w3.org/2000/svg" xmlns:xlink="http://www.w3.org/1999/xlink" x="0px" y="0px"
	 width="226.771px" height="85.04px" viewBox="0 0 226.771 85.04" enable-background="new 0 0 226.771 85.04" xml:space="preserve">
<path fill="#89898A" d="M43.742,17.354c4.228,0,8.454,0.026,12.677-0.004c4.088-0.028,8.125-1.242,12.168-2.224
	c4.592-1.104,9.193-2.038,13.802-2.767c9.233-1.459,18.484-2.299,27.746-2.126c9.112,0.166,18.209,1.003,27.28,2.808
	c5.879,1.166,11.754,2.795,17.691,2.137c4.545-0.503,9.087-1.087,13.634-1.572c7.17-0.764,14.332-0.284,21.486,0.475
	c7.149,0.759,14.266,2.373,21.271,5.369c2.819,1.206,4.108,4.565,3.915,10.077c-0.137,3.881-0.58,7.678-1.015,11.471
	c-0.116,0.995-0.356,1.86-0.69,2.625c-1.449,3.381-2.869,6.822-4.535,9.83c-2.123,3.82-4.777,5.191-7.527,5.92
	c-12.402,3.277-24.693,7.869-37.08,11.35c-9.318,2.62-18.686,4.266-28.119,3.383c-6.641-0.615-13.249-1.954-19.866-3.113
	c-4.534-0.797-9.079-1.41-13.639-1.576c-7.72-0.271-15.418,0.643-23.114,1.527c-8.175,0.928-16.343,2.135-24.523,2.981
	c-7.348,0.761-14.701,1.257-22.042,0.585c-5.797-0.537-11.463-2.742-16.26-9.801c-2.305-3.391-4.09-7.373-4.459-13.311
	c-0.19-3.049-0.855-5.975-1.122-9.05c-0.36-4.236,0.52-7.218,2.642-8.492c2.101-1.264,3.966-3.366,5.718-5.839
	c4.939-6.974,10.57-9.854,16.582-10.707C38.821,16.962,41.28,16.977,43.742,17.354z"/>
</svg>
